<svg xmlns="http://www.w3.org/2000/svg" xmlns:xlink="http://www.w3.org/1999/xlink" xmlns:lucid="lucid" width="2178.91" height="1371.85"><g transform="translate(127.91430582110083 -79.5)" lucid:page-tab-id="0_0"><path d="M-500 0h3000v1500H-500z" fill="#fff"/><path d="M1460 659.6a6 6 0 0 1 6-6h448a6 6 0 0 1 6 6v272.98a6 6 0 0 1-6 6h-448a6 6 0 0 1-6-6z" stroke="#3a414a" fill="#fff"/><use xlink:href="#a" transform="matrix(1,0,0,1,1472.0000500000315,665.5935821454092) translate(132.21111111111117 122.79243055555554)"/><use xlink:href="#b" transform="matrix(1,0,0,1,1472.0000500000315,665.5935821454092) translate(187.18444444444447 157.66798611111108)"/><path d="M614 299.06a6 6 0 0 1 6-6h414a6 6 0 0 1 6 6v937.25a6 6 0 0 1-6 6H620a6 6 0 0 1-6-6z" stroke="#3a414a" fill="#fff"/><use xlink:href="#c" transform="matrix(1,0,0,1,626,305.0569573764579) translate(124.26444444444446 477.52680555555554)"/><path d="M940 1188.3a6 6 0 0 1 6-6h88a6 6 0 0 1 6 6v48a6 6 0 0 1-6 6h-88a6 6 0 0 1-6-6z" stroke="#000" stroke-opacity="0" fill="#fff" fill-opacity="0"/><use xlink:href="#d" transform="matrix(1,0,0,1,945,1187.3045846217788) translate(30.65555555555556 33.21111111111111)"/><path d="M1460 106a6 6 0 0 1 6-6h448a6 6 0 0 1 6 6v474.1a6 6 0 0 1-6 6h-448a6 6 0 0 1-6-6z" stroke="#3a414a" fill="#fff"/><use xlink:href="#e" transform="matrix(1,0,0,1,1472.00005,112) translate(155.40444444444447 224.32368055555554)"/><use xlink:href="#f" transform="matrix(1,0,0,1,1472.00005,112) translate(190.57555555555558 259.1992361111111)"/><path d="M1460.1 1068.3a6 6 0 0 1 6-6H1914a6 6 0 0 1 6 6v356.55a6 6 0 0 1-6 6h-447.9a6 6 0 0 1-6-6z" stroke="#3a414a" fill="#fff"/><use xlink:href="#g" transform="matrix(1,0,0,1,1472.097153033033,1074.3045846217788) translate(164.1777777777778 169.15180555555554)"/><use xlink:href="#h" transform="matrix(1,0,0,1,1472.097153033033,1074.3045846217788) translate(178.2866666666667 204.02736111111108)"/><path d="M940 1124.26a6 6 0 0 1 6-6h88a6 6 0 0 1 6 6v48a6 6 0 0 1-6 6h-88a6 6 0 0 1-6-6z" stroke="#000" stroke-opacity="0" fill="#fff" fill-opacity="0"/><use xlink:href="#i" transform="matrix(1,0,0,1,945,1123.2599987380722) translate(25.65555555555556 33.21111111111111)"/><path d="M940 1044.26a6 6 0 0 1 6-6h88a6 6 0 0 1 6 6v48a6 6 0 0 1-6 6h-88a6 6 0 0 1-6-6z" stroke="#000" stroke-opacity="0" fill="#fff" fill-opacity="0"/><use xlink:href="#j" transform="matrix(1,0,0,1,945,1043.2599987380722) translate(28.277777777777782 33.21111111111111)"/><path d="M900 886a6 6 0 0 1 6-6h128a6 6 0 0 1 6 6v48a6 6 0 0 1-6 6H906a6 6 0 0 1-6-6z" stroke="#000" stroke-opacity="0" fill="#fff" fill-opacity="0"/><use xlink:href="#k" transform="matrix(1,0,0,1,905,885) translate(21.68888888888889 33.21111111111111)"/><path d="M940 826a6 6 0 0 1 6-6h88a6 6 0 0 1 6 6v48a6 6 0 0 1-6 6h-88a6 6 0 0 1-6-6z" stroke="#000" stroke-opacity="0" fill="#fff" fill-opacity="0"/><use xlink:href="#l" transform="matrix(1,0,0,1,945,825) translate(19.95555555555556 33.21111111111111)"/><path d="M940 767.45a6 6 0 0 1 6-6h88a6 6 0 0 1 6 6v48a6 6 0 0 1-6 6h-88a6 6 0 0 1-6-6z" stroke="#000" stroke-opacity="0" fill="#fff" fill-opacity="0"/><use xlink:href="#m" transform="matrix(1,0,0,1,945,766.4541443145008) translate(28.211111111111112 33.21111111111111)"/><path d="M940 708.9a6 6 0 0 1 6-6h88a6 6 0 0 1 6 6v48a6 6 0 0 1-6 6h-88a6 6 0 0 1-6-6z" stroke="#000" stroke-opacity="0" fill="#fff" fill-opacity="0"/><use xlink:href="#n" transform="matrix(1,0,0,1,945,707.9082886290016) translate(28.311111111111114 33.21111111111111)"/><path d="M940 532.1a6 6 0 0 1 6-6h88a6 6 0 0 1 6 6v48a6 6 0 0 1-6 6h-88a6 6 0 0 1-6-6z" stroke="#000" stroke-opacity="0" fill="#fff" fill-opacity="0"/><use xlink:href="#o" transform="matrix(1,0,0,1,945,531.1139147529158) translate(23.444444444444446 33.21111111111111)"/><path d="M940 354.6a6 6 0 0 1 6-6h88a6 6 0 0 1 6 6v48a6 6 0 0 1-6 6h-88a6 6 0 0 1-6-6z" stroke="#000" stroke-opacity="0" fill="#fff" fill-opacity="0"/><use xlink:href="#p" transform="matrix(1,0,0,1,945,353.61240005569516) translate(20.111111111111114 33.21111111111111)"/><path d="M940 472.1a6 6 0 0 1 6-6h88a6 6 0 0 1 6 6v48a6 6 0 0 1-6 6h-88a6 6 0 0 1-6-6z" stroke="#000" stroke-opacity="0" fill="#fff" fill-opacity="0"/><use xlink:href="#q" transform="matrix(1,0,0,1,945,471.1139147529158) translate(20.433333333333337 33.21111111111111)"/><path d="M960 412.1a6 6 0 0 1 6-6h68a6 6 0 0 1 6 6v48a6 6 0 0 1-6 6h-68a6 6 0 0 1-6-6z" stroke="#000" stroke-opacity="0" fill="#fff" fill-opacity="0"/><use xlink:href="#r" transform="matrix(1,0,0,1,965,411.1139147529158) translate(18.68888888888889 33.21111111111111)"/><path d="M940 304.33a6 6 0 0 1 6-6h88a6 6 0 0 1 6 6v48a6 6 0 0 1-6 6h-88a6 6 0 0 1-6-6z" stroke="#000" stroke-opacity="0" fill="#fff" fill-opacity="0"/><use xlink:href="#s" transform="matrix(1,0,0,1,945,303.33333333333337) translate(22.522222222222226 33.21111111111111)"/><path d="M614 707.28a6 6 0 0 1 6-6h88a6 6 0 0 1 6 6v48a6 6 0 0 1-6 6h-88a6 6 0 0 1-6-6z" stroke="#000" stroke-opacity="0" fill="#fff" fill-opacity="0"/><use xlink:href="#t" transform="matrix(1,0,0,1,619,706.2766955674649) translate(14.522222222222226 33.21111111111111)"/><path d="M614 990.76a6 6 0 0 1 6-6h68a6 6 0 0 1 6 6v48a6 6 0 0 1-6 6h-68a6 6 0 0 1-6-6z" stroke="#000" stroke-opacity="0" fill="#fff" fill-opacity="0"/><use xlink:href="#u" transform="matrix(1,0,0,1,619,989.7602085025906) translate(28.677777777777777 33.21111111111111)"/><path d="M160 626a6 6 0 0 1 6-6h228a6 6 0 0 1 6 6v208a6 6 0 0 1-6 6H166a6 6 0 0 1-6-6z" stroke="#3a414a" fill="#fff"/><use xlink:href="#v" transform="matrix(1,0,0,1,171.9999499999749,632) translate(37.680000000000035 92.22833333333332)"/><use xlink:href="#w" transform="matrix(1,0,0,1,171.9999499999749,632) translate(54.3466666666667 122.12166666666664)"/><path d="M340 706a6 6 0 0 1 6-6h48a6 6 0 0 1 6 6v48a6 6 0 0 1-6 6h-48a6 6 0 0 1-6-6z" stroke="#000" stroke-opacity="0" fill="#fff" fill-opacity="0"/><use xlink:href="#x" transform="matrix(1,0,0,1,344.9999499999749,705) translate(16.31111111111111 33.21111111111111)"/><path d="M578.55 726.28v10h-49.62v-10zM405 735v-10h55.55v10z" stroke="#000" stroke-width=".05"/><path d="M405.13 735H400v-10h5.13z"/><path d="M405.15 735.02h-5.17V725h5.17zm-5.13-10V735h5.08V725z" stroke="#000" stroke-width=".05"/><path d="M597.82 731.28l-14.27 4.63v-9.26z"/><path d="M614 731.28l-35.45 11.5v-23.02z" stroke="#000" stroke-width=".05"/><use xlink:href="#y" transform="matrix(1,0,0,1,460.55407556972204,717.1111111111111) translate(0 20.711111111111112)"/><use xlink:href="#z" transform="matrix(1,0,0,1,460.55407556972204,717.1111111111111) translate(30.46666666666667 20.711111111111112)"/><path d="M160 635.96a6 6 0 0 1 6-6h28a6 6 0 0 1 6 6v48a6 6 0 0 1-6 6h-28a6 6 0 0 1-6-6z" stroke="#000" stroke-opacity="0" fill="#fff" fill-opacity="0"/><use xlink:href="#A" transform="matrix(1,0,0,1,164.99994999997477,634.9598089895208) translate(7.033333333333334 33.21111111111111)"/><path d="M160 708.9a6 6 0 0 1 6-6h48a6 6 0 0 1 6 6v48a6 6 0 0 1-6 6h-48a6 6 0 0 1-6-6z" stroke="#000" stroke-opacity="0" fill="#fff" fill-opacity="0"/><use xlink:href="#B" transform="matrix(1,0,0,1,164.9999499999749,707.9082886290016) translate(10.477777777777778 33.21111111111111)"/><path d="M165 783.32a3.22 3.22 0 0 0-5 2.68v43.5a3.22 3.22 0 0 0 5 2.68l31.74-21.1a4 4 0 0 0 0-6.65z" stroke="#000" fill="#fff"/><path d="M160 807.75c0 7.53-6.1 13.64-13.64 13.64-7.54 0-13.65-6.12-13.65-13.65s6.12-13.64 13.66-13.64c7.53 0 13.64 6.12 13.64 13.65z" stroke="#000" fill="#fff"/><path d="M160 904.26a6 6 0 0 1 6-6h228a6 6 0 0 1 6 6v208a6 6 0 0 1-6 6H166a6 6 0 0 1-6-6z" stroke="#3a414a" fill="#fff"/><use xlink:href="#C" transform="matrix(1,0,0,1,172,910.2599987380723) translate(52.37444444444448 106.54944444444443)"/><path d="M340 990.76a6 6 0 0 1 6-6h48a6 6 0 0 1 6 6v48a6 6 0 0 1-6 6h-48a6 6 0 0 1-6-6z" stroke="#000" stroke-opacity="0" fill="#fff" fill-opacity="0"/><use xlink:href="#D" transform="matrix(1,0,0,1,345,989.7602085025904) translate(3.6111111111111143 33.21111111111111)"/><path d="M160 1044.26a6 6 0 0 1 6-6h48a6 6 0 0 1 6 6v48a6 6 0 0 1-6 6h-48a6 6 0 0 1-6-6z" stroke="#000" stroke-opacity="0" fill="#fff" fill-opacity="0"/><use xlink:href="#E" transform="matrix(1,0,0,1,164.9999499999749,1043.2599987380722) translate(5.222222222222225 33.21111111111111)"/><path d="M165 921.4a3.22 3.22 0 0 0-5 2.68v43.5a3.22 3.22 0 0 0 5 2.67l31.74-21.1a4 4 0 0 0 0-6.65z" stroke="#000" fill="#fff"/><path d="M160 945.83c0 7.53-6.1 13.64-13.64 13.64-7.54 0-13.65-6.1-13.65-13.64 0-7.54 6.12-13.65 13.66-13.65 7.53 0 13.64 6.1 13.64 13.65z" stroke="#000" fill="#fff"/><path d="M1460.2 1188.3a6 6 0 0 1 6-6h96.58a6 6 0 0 1 6 6v48a6 6 0 0 1-6 6h-96.6a6 6 0 0 1-6-6z" stroke="#000" stroke-opacity="0" fill="#fff" fill-opacity="0"/><use xlink:href="#F" transform="matrix(1,0,0,1,1465.194256066066,1187.3045846217788) translate(18.322222222222223 33.21111111111111)"/><path d="M1460 167.67a6 6 0 0 1 6-6h88a6 6 0 0 1 6 6V219a6 6 0 0 1-6 6h-88a6 6 0 0 1-6-6z" stroke="#000" stroke-opacity="0" fill="#fff" fill-opacity="0"/><use xlink:href="#G" transform="matrix(1,0,0,1,1465.00005,166.66666666666666) translate(16.48888888888889 34.21111111111111)"/><path d="M1460 532.1a6 6 0 0 1 6-6h88a6 6 0 0 1 6 6v48a6 6 0 0 1-6 6h-88a6 6 0 0 1-6-6z" stroke="#000" stroke-opacity="0" fill="#fff" fill-opacity="0"/><use xlink:href="#H" transform="matrix(1,0,0,1,1465.00005,531.1139147529158) translate(17.133333333333336 33.21111111111111)"/><path d="M1460 472.1a6 6 0 0 1 6-6h88a6 6 0 0 1 6 6v48a6 6 0 0 1-6 6h-88a6 6 0 0 1-6-6z" stroke="#000" stroke-opacity="0" fill="#fff" fill-opacity="0"/><use xlink:href="#I" transform="matrix(1,0,0,1,1465.00005,471.1139147529158) translate(16.48888888888889 33.21111111111111)"/><path d="M1460 354.88a6 6 0 0 1 6-6h88a6 6 0 0 1 6 6v48a6 6 0 0 1-6 6h-88a6 6 0 0 1-6-6z" stroke="#000" stroke-opacity="0" fill="#fff" fill-opacity="0"/><use xlink:href="#p" transform="matrix(1,0,0,1,1465.00005,353.87767432166993) translate(20.111111111111114 33.21111111111111)"/><path d="M1460 412.1a6 6 0 0 1 6-6h88a6 6 0 0 1 6 6v48a6 6 0 0 1-6 6h-88a6 6 0 0 1-6-6z" stroke="#000" stroke-opacity="0" fill="#fff" fill-opacity="0"/><use xlink:href="#J" transform="matrix(1,0,0,1,1465.00005,411.1139147529158) translate(19.87777777777778 33.21111111111111)"/><path d="M1460 884.58a6 6 0 0 1 6-6h68a6 6 0 0 1 6 6v48a6 6 0 0 1-6 6h-68a6 6 0 0 1-6-6z" stroke="#000" stroke-opacity="0" fill="#fff" fill-opacity="0"/><use xlink:href="#K" transform="matrix(1,0,0,1,1465.000050000025,883.5792637102973) translate(20.855555555555558 33.21111111111111)"/><path d="M1460 827.45a6 6 0 0 1 6-6h82.67a6 6 0 0 1 6 6v48a6 6 0 0 1-6 6H1466a6 6 0 0 1-6-6z" stroke="#000" stroke-opacity="0" fill="#fff" fill-opacity="0"/><use xlink:href="#l" transform="matrix(1,0,0,1,1465.000050000025,826.4541443145008) translate(17.45555555555556 33.21111111111111)"/><path d="M1460 767.45a6 6 0 0 1 6-6h68a6 6 0 0 1 6 6v48a6 6 0 0 1-6 6h-68a6 6 0 0 1-6-6z" stroke="#000" stroke-opacity="0" fill="#fff" fill-opacity="0"/><use xlink:href="#m" transform="matrix(1,0,0,1,1465.000050000025,766.4541443145008) translate(18.211111111111112 33.21111111111111)"/><path d="M1460 707.45a6 6 0 0 1 6-6h68a6 6 0 0 1 6 6v48a6 6 0 0 1-6 6h-68a6 6 0 0 1-6-6z" stroke="#000" stroke-opacity="0" fill="#fff" fill-opacity="0"/><use xlink:href="#L" transform="matrix(1,0,0,1,1465.000050000025,706.4541443145008) translate(21.200000000000003 33.21111111111111)"/><path d="M1460 659.6a6 6 0 0 1 6-6h68a6 6 0 0 1 6 6v48a6 6 0 0 1-6 6h-68a6 6 0 0 1-6-6z" stroke="#000" stroke-opacity="0" fill="#fff" fill-opacity="0"/><use xlink:href="#M" transform="matrix(1,0,0,1,1465.00005,658.5935821454092) translate(19.511111111111113 33.21111111111111)"/><path d="M1558 935a3.22 3.22 0 0 0 2.67 5h43.5a3.22 3.22 0 0 0 2.68-5l-21.1-31.74a4 4 0 0 0-6.65 0z" stroke="#000" fill="#fff"/><path d="M1582.42 940c7.54 0 13.64 6.1 13.64 13.64 0 7.54-6.1 13.65-13.64 13.65-7.53 0-13.64-6.12-13.64-13.66 0-7.53 6.1-13.64 13.64-13.64z" stroke="#000" fill="#fff"/><path d="M1460.2 1376.85a6 6 0 0 1 6-6h104a6 6 0 0 1 6 6v48a6 6 0 0 1-6 6h-104a6 6 0 0 1-6-6z" stroke="#000" stroke-opacity="0" fill="#fff" fill-opacity="0"/><use xlink:href="#N" transform="matrix(1,0,0,1,1465.194256066066,1375.850440307278) translate(19.800000000000004 33.21111111111111)"/><path d="M1460.2 1256.85a6 6 0 0 1 6-6h88a6 6 0 0 1 6 6v48a6 6 0 0 1-6 6h-88a6 6 0 0 1-6-6z" stroke="#000" stroke-opacity="0" fill="#fff" fill-opacity="0"/><use xlink:href="#O" transform="matrix(1,0,0,1,1465.194256066066,1255.850440307278) translate(19.533333333333335 33.21111111111111)"/><path d="M1460.2 1068.3a6 6 0 0 1 6-6h77.18a6 6 0 0 1 6 6v48a6 6 0 0 1-6 6h-77.2a6 6 0 0 1-6-6z" stroke="#000" stroke-opacity="0" fill="#fff" fill-opacity="0"/><use xlink:href="#P" transform="matrix(1,0,0,1,1465.194256066066,1067.3045846217788) translate(19.37777777777778 33.21111111111111)"/><path d="M1460.1 1128.3a6 6 0 0 1 6-6h77.28a6 6 0 0 1 6 6v48a6 6 0 0 1-6 6h-77.28a6 6 0 0 1-6-6z" stroke="#000" stroke-opacity="0" fill="#fff" fill-opacity="0"/><use xlink:href="#Q" transform="matrix(1,0,0,1,1465.097153033033,1127.3045846217788) translate(19.166666666666668 33.21111111111111)"/><path d="M1820 1376.85a6 6 0 0 1 6-6h88a6 6 0 0 1 6 6v48a6 6 0 0 1-6 6h-88a6 6 0 0 1-6-6z" stroke="#000" stroke-opacity="0" fill="#fff" fill-opacity="0"/><use xlink:href="#R" transform="matrix(1,0,0,1,1825,1375.850440307278) translate(17.35555555555556 33.21111111111111)"/><path d="M1820 1316.85a6 6 0 0 1 6-6h88a6 6 0 0 1 6 6v48a6 6 0 0 1-6 6h-88a6 6 0 0 1-6-6z" stroke="#000" stroke-opacity="0" fill="#fff" fill-opacity="0"/><use xlink:href="#S" transform="matrix(1,0,0,1,1825,1315.850440307278) translate(9.400000000000006 33.21111111111111)"/><path d="M1820 1256.85a6 6 0 0 1 6-6h88a6 6 0 0 1 6 6v48a6 6 0 0 1-6 6h-88a6 6 0 0 1-6-6z" stroke="#000" stroke-opacity="0" fill="#fff" fill-opacity="0"/><use xlink:href="#T" transform="matrix(1,0,0,1,1825,1255.850440307278) translate(9.400000000000006 33.21111111111111)"/><path d="M1820 1196.85a6 6 0 0 1 6-6h88a6 6 0 0 1 6 6v48a6 6 0 0 1-6 6h-88a6 6 0 0 1-6-6z" stroke="#000" stroke-opacity="0" fill="#fff" fill-opacity="0"/><use xlink:href="#U" transform="matrix(1,0,0,1,1825,1195.850440307278) translate(9.400000000000006 33.21111111111111)"/><path d="M1820 1136.85a6 6 0 0 1 6-6h88a6 6 0 0 1 6 6v48a6 6 0 0 1-6 6h-88a6 6 0 0 1-6-6z" stroke="#000" stroke-opacity="0" fill="#fff" fill-opacity="0"/><use xlink:href="#V" transform="matrix(1,0,0,1,1825,1135.850440307278) translate(12.13333333333334 33.21111111111111)"/><path d="M1460 107.67a6 6 0 0 1 6-6h48a6 6 0 0 1 6 6v48a6 6 0 0 1-6 6h-48a6 6 0 0 1-6-6z" stroke="#000" stroke-opacity="0" fill="#fff" fill-opacity="0"/><use xlink:href="#A" transform="matrix(1,0,0,1,1465.0000500000315,106.66666666666666) translate(17.033333333333335 33.21111111111111)"/><path d="M1250 343.33v261.62" stroke="#54c45e" stroke-width="10" fill="none"/><path d="M1255 343.46h-10v-6.6l1.84.96 3.16.5 3.16-.5 1.84-.95zM1255 611.3l-2.4-1-2.6-.34-2.6.34-2.4 1v-6.47h10z" stroke="#54c45e" stroke-width=".05" fill="#54c45e"/><path d="M1110.37 437.1H1041v-2h69.37zm331.13 0h-275.38v-2h275.38z" stroke="#e81313" stroke-width=".05" fill="#e81313"/><path d="M1041.03 437.1H1040v-2h1.03z" fill="#e81313"/><path d="M1041.05 437.14h-1.08v-2.05h1.08zm-1.02-2v1.95h.97v-1.96z" stroke="#e81313" stroke-width=".05" fill="#e81313"/><path d="M1456.76 436.1l-14.26 4.65v-9.27z" fill="#e81313"/><path d="M1460 436.1l-18.5 6.03V430.1zm-16.5 3.27l10.03-3.26-10.03-3.25z" stroke="#e81313" stroke-width=".05" fill="#e81313"/><use xlink:href="#W" transform="matrix(1,0,0,1,1110.3657005574528,423.22502586402686) translate(0 20.711111111111112)"/><use xlink:href="#z" transform="matrix(1,0,0,1,1110.3657005574528,423.22502586402686) translate(17.844444444444445 20.711111111111112)"/><path d="M1109.9 497.1H1041v-2h68.9zm331.6 0h-275.84v-2h275.84z" stroke="#e81313" stroke-width=".05" fill="#e81313"/><path d="M1041.03 497.1H1040v-2h1.03z" fill="#e81313"/><path d="M1041.05 497.14h-1.08v-2.05h1.08zm-1.02-2v1.95h.97v-1.96z" stroke="#e81313" stroke-width=".05" fill="#e81313"/><path d="M1456.76 496.1l-14.26 4.65v-9.27z" fill="#e81313"/><path d="M1460 496.1l-18.5 6.03V490.1zm-16.5 3.27l10.03-3.26-10.03-3.25z" stroke="#e81313" stroke-width=".05" fill="#e81313"/><use xlink:href="#W" transform="matrix(1,0,0,1,1109.9072632094972,483.22502586402686) translate(0 20.711111111111112)"/><use xlink:href="#z" transform="matrix(1,0,0,1,1109.9072632094972,483.22502586402686) translate(17.844444444444445 20.711111111111112)"/><path d="M1040.5 378.6h255.88a.13.13 0 0 1 .13.14.13.13 0 0 0 .14.14h146.98" stroke="#e81313" fill="none"/><path d="M1040.5 379.1h-.5v-1h.5z" stroke="#e81313" stroke-width=".05" fill="#e81313"/><path d="M1458.38 378.88l-14.26 4.63v-9.26z" stroke="#e81313" fill="#e81313"/><path d="M1040.5 556.1h403.12" stroke="#e81313" fill="none"/><path d="M1040.5 556.6h-.5v-1h.5z" stroke="#e81313" stroke-width=".05" fill="#e81313"/><path d="M1458.38 556.1l-14.26 4.65v-9.27z" stroke="#e81313" fill="#e81313"/><path d="M1222.12 912H1042v-4h180.12zm215.14 0h-159.38v-4h159.38z" stroke="#e81313" stroke-width=".05" fill="#e81313"/><path d="M1042.05 912H1040v-4h2.05z" fill="#e81313"/><path d="M1042.08 912.02h-2.1V908h2.1zm-2.05-4V912h2V908z" stroke="#e81313" stroke-width=".05" fill="#e81313"/><path d="M1453.53 910l-14.27 4.63v-9.26z" fill="#e81313"/><path d="M1460 910l-22.74 7.4v-14.8zm-18.74 1.88l5.8-1.88-5.8-1.88z" stroke="#e81313" stroke-width=".05" fill="#e81313"/><use xlink:href="#X" transform="matrix(1,0,0,1,1222.1212488902738,897.1111107348995) translate(0 20.71111111111111)"/><use xlink:href="#Y" transform="matrix(1,0,0,1,1222.1212488902738,897.1111107348995) translate(17.84444444444444 20.71111111111111)"/><path d="M1040.5 850h403.12" stroke="#e81313" fill="none"/><path d="M1040.5 850.5h-.5v-1h.5z" stroke="#e81313" stroke-width=".05" fill="#e81313"/><path d="M1458.38 850l-14.27 4.63.02-9.26z" stroke="#e81313" fill="#e81313"/><path d="M1040.5 791.45h403.12" stroke="#e81313" fill="none"/><path d="M1040.5 791.95h-.5v-1h.5z" stroke="#e81313" stroke-width=".05" fill="#e81313"/><path d="M1458.38 791.45l-14.26 4.64v-9.28z" stroke="#e81313" fill="#e81313"/><path d="M1040.5 732.9h403.12" stroke="#e81313" fill="none"/><path d="M1040.5 733.4h-.5v-1h.5z" stroke="#e81313" stroke-width=".05" fill="#e81313"/><path d="M1458.38 732.9l-14.27 4.64.02-9.27z" stroke="#e81313" fill="#e81313"/><path d="M-80 106a6 6 0 0 1 6-6h468a6 6 0 0 1 6 6v307.6a6 6 0 0 1-6 6H-74a6 6 0 0 1-6-6z" stroke="#3a414a" fill="#fff"/><use xlink:href="#Z" transform="matrix(1,0,0,1,-68,112) translate(188.45777777777778 139.99555555555554)"/><use xlink:href="#aa" transform="matrix(1,0,0,1,-68,112) translate(188.2866666666667 174.87111111111108)"/><path d="M143.62 733.4h-57.6l-.88.08-.84.2-.8.33-.73.46-.66.56-.55.66-.45.73-.33.8-.2.85-.07.88v554.84l.07.88.2.84.33.8.45.72.56.66.67.56.73.45.8.32.84.2.88.07h1027.96l.88-.08.84-.2.8-.33.73-.46.66-.56.55-.66.45-.73.33-.8.2-.85.07-.88v-139.5l-.07-.87-.2-.84-.33-.8-.45-.73-.56-.66-.67-.56-.73-.44-.8-.33-.84-.2-.88-.07h-73.48v-1h73.52l1 .08 1 .24.93.4.87.52.78.66.66.78.53.87.38.95.24 1 .08 1v139.56l-.08 1-.24 1-.4.94-.52.87-.66.8-.78.65-.87.53-.94.4-.98.23-1 .1H85.98l-1-.1-1-.23-.93-.4-.87-.52-.78-.66-.66-.8-.53-.86-.38-.94-.24-1-.08-1V738.9l.08-1 .24-1 .4-.94.52-.87.66-.8.78-.65.87-.53.94-.4.98-.23 1-.1h57.64z" stroke="#000" stroke-width=".05"/><path d="M1040.5 1148.76h-.5v-1h.5z"/><path d="M1040.54 1148.8h-.57v-1.07h.57zm-.5-1v.93h.45v-.94z" stroke="#000" stroke-width=".05"/><path d="M158.38 732.9l-14.26 4.64v-9.27z"/><path d="M160 732.9l-16.38 5.33V727.6zm-15.38 3.96l12.14-3.95-12.14-3.94z" stroke="#000" stroke-width=".05"/><path d="M1820 319.06a6 6 0 0 1 6-6h88a6 6 0 0 1 6 6v48a6 6 0 0 1-6 6h-88a6 6 0 0 1-6-6z" stroke="#000" stroke-opacity="0" fill="#fff" fill-opacity="0"/><use xlink:href="#ab" transform="matrix(1,0,0,1,1825.00005,318.0569573764579) translate(30 33.21111111111111)"/><path d="M1820 500.44a6 6 0 0 1 6-6h88a6 6 0 0 1 6 6v48a6 6 0 0 1-6 6h-88a6 6 0 0 1-6-6z" stroke="#000" stroke-opacity="0" fill="#fff" fill-opacity="0"/><use xlink:href="#ac" transform="matrix(1,0,0,1,1825.00005,499.43883716083496) translate(30 33.21111111111111)"/><path d="M1820 767.45a6 6 0 0 1 6-6h88a6 6 0 0 1 6 6v48a6 6 0 0 1-6 6h-88a6 6 0 0 1-6-6z" stroke="#000" stroke-opacity="0" fill="#fff" fill-opacity="0"/><use xlink:href="#ad" transform="matrix(1,0,0,1,1825,766.4541443145135) translate(25.622222222222224 33.21111111111111)"/><path d="M1975 985.4l-.12 1.52-.4 1.68-.66 1.6-.9 1.47-1.13 1.32-1.33 1.1-1.47.9-1.6.68-1.68.4-1.52.12h-643.88l-.35.03-.15.03-.14.06-.13.08-.12.1-.1.12-.08.13-.06.15-.04.15-.03.35v148.7l.03.36.03.15.05.15.08.13.1.12.12.1.13.08.14.06.15.04.36.03h104.32v10h-104.72l-1.53-.12-1.68-.4-1.6-.66-1.47-.9-1.3-1.13-1.13-1.32-.9-1.47-.67-1.6-.4-1.67-.12-1.53V997l.12-1.52.4-1.68.66-1.6.92-1.48 1.12-1.3 1.3-1.13 1.5-.9 1.58-.68 1.68-.4 1.53-.12h643.87l.35-.03.15-.03.15-.06.13-.08.12-.1.1-.12.08-.13.06-.15.03-.15.03-.35V806.45h10z" stroke="#1071e5" stroke-width=".05" fill="#1071e5"/><path d="M1975 806.58h-10v-6.6l1.84.96 3.16.5 3.16-.5 1.84-.95z" fill="#1071e5"/><path d="M1975.03 806.6h-10.06v-6.65l1.88.97 3.15.5 3.15-.5 1.88-.97zm-1.86-5.63l-3.17.5-3.17-.5-1.8-.94v6.53h9.94v-6.53z" stroke="#1071e5" stroke-width=".05" fill="#1071e5"/><path d="M1443.92 1152.3l-14.27 4.64v-9.27z" fill="#1071e5"/><path d="M1460.1 1152.3l-35.45 11.52v-23.03z" stroke="#1071e5" stroke-width=".05" fill="#1071e5"/><path d="M549.95 1014.76c0 2.75-2.22 4.98-4.97 4.98-2.75 0-4.98-2.23-4.98-4.98 0-2.75 2.23-4.98 4.98-4.98 2.75 0 4.97 2.23 4.97 4.98z" stroke="#000" stroke-opacity="0"/><path d="M2 1354.38l.07.88.2.84.33.8.45.73.56.66.67.55.73.45.8.33.84.2.88.07h1147.1l.88-.07.84-.2.8-.33.73-.45.66-.56.56-.67.44-.73.33-.8.2-.84.07-.88v-280.1l-.07-.88-.2-.84-.33-.8-.45-.73-.57-.66-.65-.56-.74-.44-.8-.33-.84-.2-.88-.07H1040.5v-1h114.16l1 .08 1 .24.93.4.87.52.77.66.66.78.54.87.4.95.23 1 .07 1v280.17l-.08 1-.23 1-.4.93-.53.87-.66.78-.78.66-.87.53-.95.38-1 .24-1 .08H7.5l-1-.08-1-.24-.93-.4-.87-.52-.78-.66-.66-.78-.53-.87-.38-.94-.24-.98-.08-1V436h1z" stroke="#e81313" stroke-width=".05" fill="#e81313"/><path d="M1040.5 1068.76h-.5v-1h.5z" fill="#e81313"/><path d="M1040.54 1068.8h-.57v-1.07h.57zm-.5-1v.93h.45v-.94z" stroke="#e81313" stroke-width=".05" fill="#e81313"/><path d="M6.13 435.5h-9.27l4.64-14.27z" fill="#e81313"/><path d="M6.82 436H-3.82l5.32-16.4zm-9.27-1h7.9L1.5 422.85z" stroke="#e81313" stroke-width=".05" fill="#e81313"/><path d="M1820 1073.97a6 6 0 0 1 6-6h88a6 6 0 0 1 6 6v48a6 6 0 0 1-6 6h-88a6 6 0 0 1-6-6z" stroke="#000" stroke-opacity="0" fill="#fff" fill-opacity="0"/><use xlink:href="#ae" transform="matrix(1,0,0,1,1825,1072.9746886169144) translate(14.25555555555556 33.21111111111111)"/><use xlink:href="#af" transform="matrix(1,0,0,1,1825,1072.9746886169144) translate(59.81111111111111 33.21111111111111)"/><path d="M1920.5 1097.97h83.12" stroke="#4c535d" fill="none"/><path d="M1920.5 1098.47h-.5v-1h.5z" stroke="#4c535d" stroke-width=".05" fill="#4c535d"/><path d="M2018.38 1097.97l-14.26 4.64v-9.26z" stroke="#4c535d" fill="#4c535d"/><path d="M1951.04 1165.85H1925v-10h26.04zm33.5 0h-8.26v-10h8.27z" stroke="#4c535d" stroke-width=".05" fill="#4c535d"/><path d="M1925.13 1165.85H1920v-10h5.13z" fill="#4c535d"/><path d="M1925.15 1165.88h-5.18v-10.06h5.18zm-5.13-10v9.94h5.08v-9.94z" stroke="#4c535d" stroke-width=".05" fill="#4c535d"/><path d="M2003.82 1160.85l-14.27 4.64v-9.3z" fill="#4c535d"/><path d="M2020 1160.85l-35.45 11.52v-23.04z" stroke="#4c535d" stroke-width=".05" fill="#4c535d"/><use xlink:href="#ag" transform="matrix(1,0,0,1,1951.038504647448,1147.961551418389) translate(0 20.711111111111112)"/><path d="M1956.63 1224.35h-33.13v-7h33.13zm34.28 0h-21.65v-7h21.66z" stroke="#4c535d" stroke-width=".05" fill="#4c535d"/><path d="M1923.6 1224.35h-3.6v-7h3.6z" fill="#4c535d"/><path d="M1923.62 1224.38h-3.64v-7.06h3.63zm-3.6-7v6.94h3.55v-6.94z" stroke="#4c535d" stroke-width=".05" fill="#4c535d"/><path d="M2008.67 1220.85l-14.26 4.64v-9.3z" fill="#4c535d"/><path d="M2020 1220.85l-29.1 9.45v-18.9z" stroke="#4c535d" stroke-width=".05" fill="#4c535d"/><use xlink:href="#ah" transform="matrix(1,0,0,1,1956.6314273748226,1207.961551418389) translate(0 20.711111111111112)"/><path d="M1957.1 1284.35h-33.6v-7h33.6zm33.8 0h-21.2v-7h21.2z" stroke="#4c535d" stroke-width=".05" fill="#4c535d"/><path d="M1923.6 1284.35h-3.6v-7h3.6z" fill="#4c535d"/><path d="M1923.62 1284.38h-3.64v-7.06h3.63zm-3.6-7v6.94h3.55v-6.94z" stroke="#4c535d" stroke-width=".05" fill="#4c535d"/><path d="M2008.67 1280.85l-14.26 4.64v-9.3z" fill="#4c535d"/><path d="M2020 1280.85l-29.1 9.45v-18.9z" stroke="#4c535d" stroke-width=".05" fill="#4c535d"/><use xlink:href="#ah" transform="matrix(1,0,0,1,1957.0898647227787,1267.961551418389) translate(0 20.711111111111112)"/><path d="M1955.7 1344.35h-32.2v-7h32.2zm35.2 0h-22.56v-7h22.57z" stroke="#4c535d" stroke-width=".05" fill="#4c535d"/><path d="M1923.6 1344.35h-3.6v-7h3.6z" fill="#4c535d"/><path d="M1923.62 1344.38h-3.64v-7.06h3.63zm-3.6-7v6.94h3.55v-6.94z" stroke="#4c535d" stroke-width=".05" fill="#4c535d"/><path d="M2008.67 1340.85l-14.26 4.64v-9.3z" fill="#4c535d"/><path d="M2020 1340.85l-29.1 9.45v-18.9z" stroke="#4c535d" stroke-width=".05" fill="#4c535d"/><use xlink:href="#ah" transform="matrix(1,0,0,1,1955.7145526789113,1327.961551418389) translate(0 20.711111111111112)"/><path d="M1955.46 1404.35h-31.96v-7h31.96zm35.26-.3h-22.64v-7h22.64z" stroke="#4c535d" stroke-width=".05" fill="#4c535d"/><path d="M1923.6 1404.35h-3.6v-7h3.6z" fill="#4c535d"/><path d="M1923.62 1404.38h-3.64v-7.06h3.63zm-3.6-7v6.94h3.55v-6.94z" stroke="#4c535d" stroke-width=".05" fill="#4c535d"/><path d="M2008.5 1400.55l-14.28 4.63v-9.27z" fill="#4c535d"/><path d="M2019.82 1400.55l-29.1 9.45v-18.9z" stroke="#4c535d" stroke-width=".05" fill="#4c535d"/><use xlink:href="#ah" transform="matrix(1,0,0,1,1955.4620732235448,1387.6594260016425) translate(0 20.711111111111112)"/><path d="M1079.85 1217.78v36.1a6 6 0 0 1-6 6H126a6 6 0 0 1-6-6v-179.62a6 6 0 0 1 6-6h17.62" stroke="#000" fill="none"/><path d="M1079.85 1217.28l.5-.08v.6h-1v-.68z" stroke="#000" stroke-width=".05"/><path d="M158.38 1068.26l-14.26 4.63v-9.28z" stroke="#000"/><path d="M539.03 1013.94v2l-30.6-.04v-2zM401 1015.76v-2h51.66v2z" stroke="#000" stroke-width=".05"/><path d="M401.03 1015.76H400v-2h1.03z"/><path d="M401.05 1015.8h-1.07v-2.06h1.07zm-1.03-2v1.94h.98v-1.96z" stroke="#000" stroke-width=".05"/><path d="M540 1014.76l.2 1.18H539v-2h1.27z"/><path d="M540.03 1014.76l.2 1.2h-1.25v-2.05h1.32zm-1-.8v1.95h1.13l-.2-1.14.27-.8z" stroke="#000" stroke-width=".05"/><use xlink:href="#W" transform="matrix(1,0,0,1,452.66279757985535,1002.0490275543895) translate(0 20.711111111111112)"/><use xlink:href="#z" transform="matrix(1,0,0,1,452.66279757985535,1002.0490275543895) translate(17.844444444444445 20.711111111111112)"/><path d="M550.95 1014.76H605" stroke="#000" stroke-width="2" fill="none"/><path d="M550.98 1015.76h-1.35l.32-1-.15-1h1.18z" stroke="#000" stroke-width=".05"/><path d="M612.04 1014.76l-12.92 7.64v-15.27z" stroke="#000" stroke-width="2"/><path d="M544.98 1020.74v254.1a6 6 0 0 0 6 6h890.7" stroke="#1071e5" stroke-width="2" fill="none"/><path d="M544.98 1019.74l1-.16v1.18h-2v-1.35z" stroke="#1071e5" stroke-width=".05" fill="#1071e5"/><path d="M1456.96 1280.85l-14.27 4.64v-9.3z" stroke="#1071e5" stroke-width="2" fill="#1071e5"/><path d="M45 807.75c0 2.75-2.23 4.98-4.98 4.98-2.75 0-4.97-2.23-4.97-4.98 0-2.75 2.22-4.98 4.97-4.98 2.75 0 4.98 2.23 4.98 4.98z" stroke="#000" stroke-opacity="0" fill="#fc9432"/><path d="M1460 227a6 6 0 0 1 6-6h88a6 6 0 0 1 6 6v51.33a6 6 0 0 1-6 6h-88a6 6 0 0 1-6-6z" stroke="#000" stroke-opacity="0" fill="#fff" fill-opacity="0"/><use xlink:href="#ai" transform="matrix(1,0,0,1,1465.00005,226) translate(17.133333333333336 34.21111111111111)"/><path d="M1925 343.06h39a6 6 0 0 1 6 6v255.9" stroke="#54c45e" stroke-width="10" fill="none"/><path d="M1925.13 348.06H1920v-10h5.13zM1975 611.3l-2.4-1-2.6-.34-2.6.34-2.4 1v-6.47h10z" stroke="#54c45e" stroke-width=".05" fill="#54c45e"/><path d="M540 131.67c0 5.52-4.48 10-10 10s-10-4.48-10-10c0-5.53 4.48-10 10-10s10 4.47 10 10z" stroke="#000" stroke-opacity="0" fill="#54c45e"/><path d="M535 574.2l-.12 1.52-.4 1.68-.66 1.6-.9 1.48-1.13 1.3-1.32 1.13-1.48.92-1.6.66-1.68.4-1.52.12h-408l-.35.03-.15.03-.15.06-.13.08-.12.1-.1.12-.08.13-.06.15-.03.15-.03.35v67.56l.03.35.03.16.06.15.08.14.1.12.12.1.13.08.15.06.15.03.35.03H155v10h-39.2l-1.52-.12-1.68-.4-1.6-.67-1.47-.9-1.32-1.12-1.1-1.32-.9-1.47-.68-1.6-.4-1.68-.12-1.52V585.8l.12-1.52.4-1.68.67-1.6.9-1.48 1.1-1.3 1.33-1.13 1.47-.92 1.6-.66 1.68-.4 1.52-.12h408l.35-.03.15-.03.15-.06.13-.08.12-.1.1-.12.08-.13.06-.15.03-.15.03-.35V146.67h10z" stroke="#54c45e" stroke-width=".05" fill="#54c45e"/><path d="M535 146.8h-10v-6.6l1.84.96 3.16.5 3.16-.5 1.84-.95z" fill="#54c45e"/><path d="M535.02 146.82H525v-6.66l1.87.97 3.15.5 3.15-.5 1.88-.97zm-1.85-5.64l-3.17.5-3.17-.5-1.8-.93v6.52h9.95v-6.52z" stroke="#54c45e" stroke-width=".05" fill="#54c45e"/><path d="M160 664.96h-5.13v-10H160z" fill="#54c45e"/><path d="M160.03 665h-5.18V654.9h5.18zm-5.13-10v9.93h5.07V655z" stroke="#54c45e" stroke-width=".05" fill="#54c45e"/><path d="M1260 131.67c0 5.52-4.48 10-10 10s-10-4.48-10-10c0-5.53 4.48-10 10-10s10 4.47 10 10z" stroke="#000" stroke-opacity="0" fill="#54c45e"/><path d="M1250 146.67v166.66" stroke="#54c45e" stroke-width="10" fill="none"/><path d="M1246.84 141.16l3.16.5 3.16-.5 1.84-.95v6.6h-10v-6.6zM1255 319.67l-2.4-1-2.6-.34-2.6.34-2.4 1v-6.47h10z" stroke="#54c45e" stroke-width=".05" fill="#54c45e"/><path d="M1265 131.67h190" stroke="#54c45e" stroke-width="10" fill="none"/><path d="M1265.13 136.67h-6.6l.96-1.84.5-3.16-.34-2.6-1-2.4h6.47zM1460 136.67h-5.13v-10h5.13zM815 136.67H545v-10h270zm420 0H965v-10h270z" stroke="#54c45e" stroke-width=".05" fill="#54c45e"/><path d="M545.13 136.67h-6.6l.96-1.84.5-3.16-.34-2.6-1-2.4h6.47z" fill="#54c45e"/><path d="M545.15 136.7h-6.65l.97-1.88.5-3.15-.33-2.6-1-2.42h6.5zm-6.45-10l.98 2.36.35 2.6-.52 3.18-.92 1.8h6.52v-9.95z" stroke="#54c45e" stroke-width=".05" fill="#54c45e"/><path d="M1241.33 126.67l-1 2.4-.33 2.6.5 3.16.96 1.84h-6.6v-10h6.48z" fill="#54c45e"/><path d="M1241.36 126.7l-1 2.38-.33 2.6.5 3.14.97 1.87h-6.65v-10.06h6.54zm-6.46 0v9.94h6.52l-.93-1.8-.53-3.17.35-2.6.98-2.38z" stroke="#54c45e" stroke-width=".05" fill="#54c45e"/><use xlink:href="#aj" transform="matrix(1,0,0,1,815.0111111111112,118.77777777777777) translate(0 20.711111111111112)"/><use xlink:href="#ak" transform="matrix(1,0,0,1,815.0111111111112,118.77777777777777) translate(86.82222222222222 20.711111111111112)"/><path d="M1084.83 1212.3c0 2.75-2.23 4.98-4.98 4.98-2.75 0-4.98-2.23-4.98-4.97 0-2.74 2.23-4.97 4.98-4.97 2.75 0 4.98 2.23 4.98 4.98z" stroke="#000" stroke-opacity="0"/><path d="M1040.5 1212.3h33.87" stroke="#000" fill="none"/><path d="M1040.5 1212.8h-.5v-1h.5zM1074.87 1212.3l.08.5h-.6v-1h.7z" stroke="#000" stroke-width=".05"/><path d="M1085.33 1212.3h358.48" stroke="#3a414a" fill="none"/><path d="M1085.34 1212.8h-.68l.16-.5-.07-.5h.6z" stroke="#3a414a" stroke-width=".05" fill="#3a414a"/><path d="M1458.58 1212.3l-14.27 4.64v-9.27z" stroke="#3a414a" fill="#3a414a"/><path d="M1980 619.96c0 5.52-4.48 10-10 10s-10-4.48-10-10 4.48-10 10-10 10 4.48 10 10z" stroke="#000" stroke-opacity="0" fill="#54c45e"/><path d="M1970 634.96v141.5" stroke="#54c45e" stroke-width="10" fill="none"/><path d="M1966.84 629.45l3.16.5 3.16-.5 1.84-.95v6.6h-10v-6.6zM1975 782.8l-2.4-1-2.6-.35-2.6.34-2.4 1v-6.47h10z" stroke="#54c45e" stroke-width=".05" fill="#54c45e"/><path d="M1665.2 1035h-274.83l-.35.03-.15.03-.14.06-.13.08-.12.1-.1.12-.08.13-.06.15-.04.15-.02.35v49.9l.02.36.04.15.06.15.08.13.1.12.12.1.13.08.14.06.15.04.35.03h34.38v10h-34.77l-1.53-.12-1.68-.4-1.6-.66-1.47-.9-1.3-1.13-1.13-1.32-.9-1.47-.67-1.6-.4-1.67-.12-1.53v-50.7l.12-1.52.4-1.68.66-1.6.9-1.47 1.13-1.32 1.3-1.1 1.48-.9 1.6-.68 1.67-.4 1.53-.12h275.23zm368.3-515.44l1.7.4 1.6.66 1.46.9 1.32 1.13 1.12 1.3.9 1.5.67 1.58.4 1.7.12 1.5v493.97l-.13 1.52-.4 1.68-.67 1.6-.9 1.47-1.12 1.32-1.32 1.1-1.47.9-1.6.68-1.7.4-1.5.12h-298.4v-10h298l.34-.03.15-.03.14-.06.13-.08.12-.1.1-.12.07-.13.06-.15.03-.15.03-.35V530.64l-.04-.36-.03-.14-.06-.15-.08-.14-.12-.12-.1-.1-.14-.08-.15-.06-.16-.03-.35-.03H1925v-10h107z" stroke="#6db1ff" stroke-width=".05" fill="#6db1ff"/><path d="M1925.13 529.44H1920v-10h5.13z" fill="#6db1ff"/><path d="M1925.15 529.46h-5.18V519.4h5.18zm-5.13-10v9.95h5.08v-9.94z" stroke="#6db1ff" stroke-width=".05" fill="#6db1ff"/><path d="M1444 1092.3l-14.25 4.64v-9.27z" fill="#6db1ff"/><path d="M1460.2 1092.3l-35.45 11.52v-23.03z" stroke="#6db1ff" stroke-width=".05" fill="#6db1ff"/><use xlink:href="#al" transform="matrix(1,0,0,1,1665.2111111111103,1017.1111111111111) translate(0 20.71111111111111)"/><use xlink:href="#Y" transform="matrix(1,0,0,1,1665.2111111111103,1017.1111111111111) translate(30.46666666666666 20.71111111111111)"/><path d="M1980 791.45c0 5.53-4.48 10-10 10s-10-4.47-10-10c0-5.52 4.48-10 10-10s10 4.48 10 10z" stroke="#000" stroke-opacity="0" fill="#54c45e"/><path d="M1925 791.45h30" stroke="#54c45e" stroke-width="10" fill="none"/><path d="M1925.13 796.45H1920v-10h5.13zM1961.33 786.46l-1 2.4-.33 2.6.5 3.15.96 1.85h-6.6v-10h6.48z" stroke="#54c45e" stroke-width=".05" fill="#54c45e"/><path d="M1955 619.96h-690" stroke="#54c45e" stroke-width="10" fill="none"/><path d="M1961.33 614.97l-1 2.4-.33 2.6.5 3.15.96 1.84h-6.6v-10h6.48zM1265.13 624.96h-6.6l.96-1.84.5-3.16-.34-2.6-1-2.4h6.47z" stroke="#54c45e" stroke-width=".05" fill="#54c45e"/><path d="M-80 302.67a6 6 0 0 1 6-6H29.05a6 6 0 0 1 6 6v48a6 6 0 0 1-6 6H-74a6 6 0 0 1-6-6z" stroke="#000" stroke-opacity="0" fill="#fff" fill-opacity="0"/><use xlink:href="#am" transform="matrix(1,0,0,1,-75,301.6666666666667) translate(14.866666666666674 33.21111111111111)"/><path d="M-77 362.28a6 6 0 0 1 6-6H74a6 6 0 0 1 6 6v51.33a6 6 0 0 1-6 6H-71a6 6 0 0 1-6-6z" stroke="#000" stroke-opacity="0" fill="#fff" fill-opacity="0"/><use xlink:href="#an" transform="matrix(1,0,0,1,-72,361.27907494233654) translate(11.866666666666703 34.21111111111111)"/><path d="M73 297.7a3.7 3.7 0 0 0-5.37 3.3v51.33a3.7 3.7 0 0 0 5.36 3.3l52.17-26.27a3.02 3.02 0 0 0 0-5.4z" stroke="#979ea8" fill="#fff"/><path d="M-80 244.33a6 6 0 0 1 6-6H39a6 6 0 0 1 6 6v48a6 6 0 0 1-6 6H-74a6 6 0 0 1-6-6z" stroke="#000" stroke-opacity="0" fill="#fff" fill-opacity="0"/><use xlink:href="#ao" transform="matrix(1,0,0,1,-75,243.33333333333337) translate(16.16666666666667 33.21111111111111)"/><path d="M293.75 169.33a6 6 0 0 1 6-6H394a6 6 0 0 1 6 6v48a6 6 0 0 1-6 6h-94.25a6 6 0 0 1-6-6z" stroke="#000" stroke-opacity="0" fill="#fff" fill-opacity="0"/><use xlink:href="#ap" transform="matrix(1,0,0,1,298.7531204386727,168.3333333333333) translate(0 33.21111111111111)"/><path d="M891.8 193.83H400.5v-1h491.3zm551.82 0H968.18v-1h475.4z" stroke="#000" stroke-width=".05"/><path d="M400.5 193.83h-.5v-1h.5z"/><path d="M400.54 193.86h-.56v-1.05h.56zm-.52-1v.95h.47v-.94z" stroke="#000" stroke-width=".05"/><path d="M1458.38 193.33l-14.27 4.64.02-9.27z"/><path d="M1460 193.33l-16.38 5.33V188zm-15.38 3.95l12.14-3.95-12.14-3.94z" stroke="#000" stroke-width=".05"/><use xlink:href="#aq" transform="matrix(1,0,0,1,891.8111363304477,180.4444444444444) translate(0 20.711111111111112)"/><path d="M280 344.33a6 6 0 0 1 6-6h108a6 6 0 0 1 6 6v48a6 6 0 0 1-6 6H286a6 6 0 0 1-6-6z" stroke="#000" stroke-opacity="0" fill="#fff" fill-opacity="0"/><use xlink:href="#N" transform="matrix(1,0,0,1,284.9999499999749,343.33333333333337) translate(21.800000000000004 33.21111111111111)"/><path d="M280 283.22a6 6 0 0 1 6-6h108a6 6 0 0 1 6 6v48a6 6 0 0 1-6 6H286a6 6 0 0 1-6-6z" stroke="#000" stroke-opacity="0" fill="#fff" fill-opacity="0"/><use xlink:href="#ar" transform="matrix(1,0,0,1,284.9999499999749,282.22295471704047) translate(28.633333333333336 33.21111111111111)"/><path d="M1400.15 253.17h-15.47v-1h15.47z" stroke="#000" stroke-width=".05"/><path d="M1384.7 253.17h-.52v-1h.5z" stroke="#000" stroke-width=".05"/><path d="M1458.38 252.67l-14.26 4.63v-9.27z"/><path d="M1460 252.67l-15.98 5.2v-10.4zm-15.38 3.94l12.14-3.93-12.14-3.95z" stroke="#000" stroke-width=".05"/><use xlink:href="#as" transform="matrix(1,0,0,1,1400.1554667157425,239.77777777777777) translate(0 20.711111111111112)"/><path d="M1260 328.33c0 5.53-4.48 10-10 10s-10-4.47-10-10c0-5.52 4.48-10 10-10s10 4.48 10 10z" stroke="#000" stroke-opacity="0" fill="#54c45e"/><path d="M1045 328.33h190" stroke="#54c45e" stroke-width="10" fill="none"/><path d="M1045.13 333.33H1040v-10h5.13zM1241.33 323.34l-1 2.4-.33 2.6.5 3.15.96 1.83h-6.6v-10h6.48z" stroke="#54c45e" stroke-width=".05" fill="#54c45e"/><path d="M1260 619.96c0 5.52-4.48 10-10 10s-10-4.48-10-10 4.48-10 10-10 10 4.48 10 10z" stroke="#000" stroke-opacity="0" fill="#54c45e"/><path d="M1250 634.96v42.63a6 6 0 0 0 6 6h199" stroke="#54c45e" stroke-width="10" fill="none"/><path d="M1246.84 629.45l3.16.5 3.16-.5 1.84-.95v6.6h-10v-6.6zM1460 688.6h-5.13v-10h5.13z" stroke="#54c45e" stroke-width=".05" fill="#54c45e"/><path d="M293.75 107.67a6 6 0 0 1 6-6H394a6 6 0 0 1 6 6v48a6 6 0 0 1-6 6h-94.25a6 6 0 0 1-6-6z" stroke="#000" stroke-opacity="0" fill="#fff" fill-opacity="0"/><use xlink:href="#at" transform="matrix(1,0,0,1,298.7531204386727,106.66666666666666) translate(0 33.21111111111111)"/><path d="M405 131.67h110" stroke="#54c45e" stroke-width="10" fill="none"/><path d="M405.13 136.67H400v-10h5.13zM521.33 126.67l-1 2.4-.33 2.6.5 3.16.96 1.84h-6.6v-10h6.48z" stroke="#54c45e" stroke-width=".05" fill="#54c45e"/><path d="M1370.46 318.03c0 2.75-2.23 4.98-4.98 4.98-2.75 0-4.97-2.22-4.97-4.97 0-2.74 2.23-4.97 4.98-4.97 2.75 0 4.98 2.23 4.98 4.97z" stroke="#000" stroke-opacity="0" fill="#fc9432"/><path d="M480.87 301.75V246.3a6 6 0 0 1 6-6h872.6a6 6 0 0 1 6 6v66.26" stroke="#fc9432" fill="none"/><path d="M481.37 302.4l-.5-.15-.5.07v-.6h1zM1365.98 313.22l-.5-.16-.5.08v-.6h1z" stroke="#fc9432" stroke-width=".05" fill="#fc9432"/><path d="M435.02 367.9l1 .25.93.4.87.52.78.67.66.77.53.88.38.94.24 1 .08 1v99.76l-.08 1-.24 1-.4.93-.52.88-.66.78-.78.66-.87.53-.94.4-.98.23-1 .08h-468l-.88.07-.84.2-.8.33-.73.45-.66.57-.55.66-.45.73-.33.8-.2.84-.07.88v908.45l.07.88.2.85.33.8.45.73.56.66.67.56.73.45.8.33.84.2.88.07h1454.03l.4.16.04.15h23.3v1h-23.65l-.4-.16-.05-.15H-34.02l-1-.08-1-.24-.93-.4-.87-.52-.78-.65-.66-.78-.53-.87-.38-.94-.24-1-.08-1V486.05l.08-1 .24-1 .4-.93.52-.86.66-.78.78-.66.87-.53.94-.4.98-.23 1-.08h468l.88-.07.84-.2.8-.34.73-.45.66-.55.55-.66.45-.75.33-.8.2-.83.07-.88v-99.7l-.07-.87-.2-.84-.33-.8-.45-.73-.56-.66-.67-.56-.73-.45-.8-.33-.84-.2-.88-.07H400.5v-1h33.52z" stroke="#000" stroke-width=".05"/><path d="M400.5 368.83h-.5v-1h.5z"/><path d="M400.54 368.86h-.56v-1.05h.56zm-.52-1v.95h.47v-.94z" stroke="#000" stroke-width=".05"/><path d="M1458.58 1400.85l-14.27 4.64v-9.3z"/><path d="M1460.2 1400.85l-16.4 5.32v-10.64zm-15.4 3.95l12.16-3.95-12.15-3.95z" stroke="#000" stroke-width=".05"/><path d="M1465 294.96a3.22 3.22 0 0 0-5 2.68v43.5a3.22 3.22 0 0 0 5 2.68l31.74-21.1a4 4 0 0 0 0-6.65zM1446.36 305.75c7.53 0 13.64 6.1 13.64 13.64 0 7.53-6.1 13.63-13.64 13.63-7.54 0-13.65-6.1-13.65-13.64 0-7.54 6.12-13.65 13.66-13.65z" stroke="#000" fill="#fff"/><path d="M1431.7 319.4h-61.2" stroke="#fc9432" fill="none"/><path d="M1432.2 319.4l.08.5h-.58v-1h.58zM1370.53 319.9h-.68l.33-1h.35zM481.37 521.6l-.08.98-.25 1-.4.94-.52.87-.66.76-.78.67-.88.53-.94.4-1 .23-1 .07H46.05l-.88.07-.84.2-.8.33-.73.45-.66.56-.56.66-.46.73-.33.8-.2.84-.08.9v268.67h-1V533.55l.08-1 .24-1 .4-.93.52-.88.67-.77.77-.66.87-.53.94-.4 1-.23 1-.07h428.85l.88-.07.84-.2.8-.33.73-.46.66-.54.56-.66.45-.74.33-.8.2-.83.07-.88V312.7h1z" stroke="#fc9432" stroke-width=".05" fill="#fc9432"/><path d="M480.87 312.2l.5-.08v.6h-1v-.68z" fill="#fc9432"/><path d="M480.87 312.17l.52-.08v.64h-1.06V312zm-.48.52h.94v-.55l-.47.08-.48-.16z" stroke="#fc9432" stroke-width=".05" fill="#fc9432"/><path d="M40.52 802.94l-.5-.17-.5.08v-.6h1z" fill="#fc9432"/><path d="M40.55 802.97l-.53-.17-.52.08v-.64h1.05zm-1-.7v.55l.48-.07.47.15v-.62z" stroke="#fc9432" stroke-width=".05" fill="#fc9432"/><path d="M1567.77 953.64h-196.3a6 6 0 0 1-6-6V323.5" stroke="#fc9432" fill="none"/><path d="M1568.27 953.64l.07.5h-.58v-1h.58zM1365.48 323l.5-.07v.6h-1v-.68z" stroke="#fc9432" stroke-width=".05" fill="#fc9432"/><path d="M45.5 807.75h70.33" stroke="#fc9432" fill="none"/><path d="M45.5 808.25h-.66l.16-.5-.08-.5h.6z" stroke="#fc9432" stroke-width=".05" fill="#fc9432"/><path d="M130.6 807.75l-14.27 4.63v-9.26z" stroke="#fc9432" fill="#fc9432"/><path d="M40.02 813.23v126.6a6 6 0 0 0 6 6h69.8" stroke="#fc9432" fill="none"/><path d="M40.02 812.73l.5-.08v.6h-1v-.7z" stroke="#fc9432" stroke-width=".05" fill="#fc9432"/><path d="M130.6 945.83l-14.27 4.63v-9.27z" stroke="#fc9432" fill="#fc9432"/><path d="M485.85 307.22c0 2.75-2.23 4.98-4.98 4.98-2.75 0-4.98-2.23-4.98-4.98 0-2.75 2.22-4.97 4.97-4.97 2.75 0 4.98 2.22 4.98 4.97z" stroke="#000" stroke-opacity="0" fill="#fc9432"/><path d="M400.5 307.22h74.9" stroke="#fc9432" fill="none"/><path d="M400.5 307.72h-.5v-1h.5zM475.9 307.22l.07.5h-.6v-1h.7z" stroke="#fc9432" stroke-width=".05" fill="#fc9432"/><path d="M40.05 326.67h22.08" stroke="#dfe3e8" stroke-width="10" fill="none"/><path d="M40.17 331.67h-5.12v-10h5.12zM67.13 331.67H62v-10h5.13z" stroke="#dfe3e8" stroke-width=".05" fill="#dfe3e8"/><path d="M80.5 387.95h12.58a6 6 0 0 0 6-6v-22.5" stroke="#ffd9d9" fill="none"/><path d="M80.5 388.45H80v-1h.5z" stroke="#ffd9d9" stroke-width=".05" fill="#ffd9d9"/><path d="M99.08 344.68l4.64 14.26h-9.27z" stroke="#ffd9d9" fill="#ffd9d9"/><path d="M-80 175.17a6 6 0 0 1 6-6H33.7a6 6 0 0 1 6 6v48a6 6 0 0 1-6 6H-74a6 6 0 0 1-6-6z" stroke="#000" stroke-opacity="0" fill="#fff" fill-opacity="0"/><use xlink:href="#au" transform="matrix(1,0,0,1,-75,174.16666666666669) translate(14.622222222222234 33.21111111111111)"/><path d="M267.82 136.67h-8.5l-.35.02-.15.03-.15.06-.13.07-.12.1-.1.12-.08.12-.06.14-.03.15-.03.36v183l-.12 1.53-.4 1.67-.66 1.6-.9 1.47-1.13 1.32-1.3 1.12-1.48.9-1.6.66-1.68.4-1.52.13H132.34v-10h114.58l.36-.03.15-.04.14-.06.13-.08.12-.1.1-.12.08-.13.06-.13.03-.15.02-.35v-183l.12-1.53.4-1.68.67-1.6.9-1.47 1.13-1.32 1.32-1.13 1.47-.9 1.6-.66 1.68-.4 1.52-.13h8.9z" stroke="#dfe3e8" stroke-width=".05" fill="#dfe3e8"/><path d="M132.47 331.67h-8.13v-1.32l1.08-.55.63-.4.54-.57.4-.66.25-.73.1-.77-.1-.78-.25-.74-.4-.66-.55-.56-.63-.4-1.08-.55v-1.33h8.13z" fill="#dfe3e8"/><path d="M132.5 331.7h-8.2v-1.37l1.1-.55.63-.4.54-.56.4-.66.26-.73.08-.76-.07-.77-.25-.73-.4-.66-.55-.54-.62-.4-1.1-.56v-1.36h8.2zm-8.14-10v1.27l1.07.54.63.42.55.56.42.67.26.74.08.77-.08.77-.26.74-.4.67-.56.56-.63.42-1.07.54v1.28h8.08v-9.95z" stroke="#dfe3e8" stroke-width=".05" fill="#dfe3e8"/><path d="M283.93 131.67l-12.9 7.63v-15.27z" fill="#dfe3e8"/><path d="M293.75 131.67l-27.73 16.4v-32.8z" stroke="#dfe3e8" stroke-width=".05" fill="#dfe3e8"/><path d="M99.34 193.83h-53.3l-.88.07-.84.2-.8.33-.73.45-.66.56-.56.66-.46.74-.33.8-.2.83-.08.88V322.2l-.06.77-.18.76-.3.72-.4.67-.5.6-.6.5-.67.4-.72.3-.75.2-.74.05-.1-1 .67-.05.6-.15.58-.24.53-.32.48-.4.4-.47.33-.54.23-.58.14-.6.05-.65V199.3l.08-.98.24-1 .4-.94.52-.87.67-.76.77-.67.87-.53.94-.4 1-.23 1-.07h53.34zm178.03 0h-76.3v-1h76.3z" stroke="#ced4db" stroke-width=".05" fill="#ced4db"/><path d="M35.56 327.17h-.5v-1h.5z" fill="#ced4db"/><path d="M35.58 327.2h-.56v-1.06h.56zm-.5-1v.94h.45v-.95z" stroke="#ced4db" stroke-width=".05" fill="#ced4db"/><path d="M292.13 193.33l-14.26 4.64v-9.27z" fill="#ced4db"/><path d="M293.75 193.33l-16.38 5.33V188zm-15.38 3.95l12.15-3.95-12.15-3.94z" stroke="#ced4db" stroke-width=".05" fill="#ced4db"/><use xlink:href="#av" transform="matrix(1,0,0,1,99.33613707715574,183.02222222222218) translate(0 16.56888888888889)"/><use xlink:href="#aw" transform="matrix(1,0,0,1,99.33613707715574,183.02222222222218) translate(77.08444444444444 16.56888888888889)"/><path d="M-107.4 326.67c0-4.24 3.42-7.67 7.65-7.67 4.24 0 7.67 3.43 7.67 7.67 0 4.23-3.43 7.66-7.67 7.66-4.23 0-7.66-3.43-7.66-7.66z" stroke="#4c535d" fill="#4c535d"/><path d="M-84.5 326.67h-2.57" stroke="#4c535d" stroke-width="9" fill="none"/><path d="M-80 331.17h-4.6l-.02-9H-80zM-86.96 331.17h-6.16l.85-1.2.7-3.3-.5-2.8-1.04-1.7h6.14z" stroke="#4c535d" stroke-width=".05" fill="#4c535d"/><g><path d="M-104.67 383.06c0-2.23 1.8-4.04 4.04-4.04 2.23 0 4.03 1.8 4.03 4.04 0 2.23-1.8 4.03-4.03 4.03-2.23 0-4.04-1.8-4.04-4.04z" stroke="#4c535d" fill="#4c535d"/></g><path d="M-80.5 383.06h-15.6M-80.5 383.06h.5" stroke="#4c535d" fill="none"/><path d="M-96.08 383.56h-.2l.2-.5zm0-.64l-.16-.36h.16z" stroke="#4c535d" stroke-width=".05" fill="#4c535d"/><g><path d="M-104.67 268.33c0-2.23 1.8-4.03 4.04-4.03 2.23 0 4.03 1.8 4.03 4.03 0 2.23-1.8 4.04-4.03 4.04-2.23 0-4.04-1.8-4.04-4.04z" stroke="#4c535d" fill="#4c535d"/></g><path d="M-80.5 268.33h-15.6M-80.5 268.33h.5" stroke="#4c535d" fill="none"/><path d="M-96.08 268.83h-.2l.2-.5zm0-.63l-.16-.37h.16z" stroke="#4c535d" stroke-width=".05" fill="#4c535d"/><g><path d="M-104.67 199.17c0-2.23 1.8-4.04 4.04-4.04 2.23 0 4.03 1.8 4.03 4.04 0 2.23-1.8 4.03-4.03 4.03-2.23 0-4.04-1.8-4.04-4.03z" stroke="#4c535d" fill="#4c535d"/></g><path d="M-80.5 199.17h-15.6M-80.5 199.17h.5" stroke="#4c535d" fill="none"/><path d="M-96.08 199.67h-.2l.2-.5zm0-.63l-.16-.37h.16z" stroke="#4c535d" stroke-width=".05" fill="#4c535d"/><defs><path d="M60 0c12-231 25-481 55-693h149c67 125 131 277 188 413 58-137 121-288 188-413h142c30 212 43 462 55 693H685c-5-147-10-313-23-460-51 119-108 254-159 372H394c-51-118-108-253-159-372-13 147-18 313-23 460H60" id="ax"/><path d="M304-115c21 0 48-2 66-5v-406h149v508C462-2 373 12 295 12 133 12 65-74 65-233v-293h149v275c2 86 11 133 90 136" id="ay"/><path d="M219-203c-2 61 24 87 82 90L280 10C144 10 70-36 70-173v-579l149-24v573" id="az"/><path d="M273 12C125 12 65-67 65-215v-442l149-24v155h179v124H214v185c2 63 16 104 83 103 34 0 71-7 96-17l21 116c-41 16-81 27-141 27" id="aA"/><path d="M219 0H70v-526h149V0zm-75-766c49 0 89 36 89 88s-40 88-89 88-89-36-89-88 40-88 89-88" id="aB"/><path d="M25-366h290v135H25v-135" id="aC"/><path d="M64-139c45 18 98 32 157 32 46 0 72-1 75-39-14-53-105-62-152-89-51-30-89-66-91-145-5-167 225-188 368-133l-26 116c-36-12-75-23-125-23-84 0-86 59-30 82 96 39 207 59 204 194-2 116-97 158-224 158C148 14 81-2 39-18" id="aD"/><path d="M183-166c-2 75 96 63 162 58v-113c-63-10-160-16-162 55zm-148 4c-1-153 163-182 310-156 2-69-30-99-103-98-49 0-104 8-139 21L84-515c50-14 111-24 175-25 152-2 229 65 229 215v310C426-2 349 12 261 11 129 9 36-30 35-162" id="aE"/><path d="M375-413c-107-27-178 30-178 133 0 83 34 125 101 125 30 0 58-10 77-20v-238zm-62-125c77 0 150 13 211 30v442c-1 176-89 254-268 254-67 0-134-14-185-31L97 32c47 18 95 30 161 30 84 0 121-38 117-119-31 14-62 22-105 22-148 1-228-95-225-245 3-167 100-258 268-258" id="aF"/><path d="M323 14C144 14 45-83 45-259c0-170 90-275 252-281 176-6 262 133 239 326H198c8 66 67 100 145 100 51 0 111-11 145-26l20 121C460 2 393 14 323 14zm72-330c13-111-157-138-187-38-4 12-8 25-10 38h197" id="aG"/><g id="a"><use transform="matrix(0.031111111111111096,0,0,0.031111111111111096,0,0)" xlink:href="#ax"/><use transform="matrix(0.031111111111111096,0,0,0.031111111111111096,27.906666666666652,0)" xlink:href="#ay"/><use transform="matrix(0.031111111111111096,0,0,0.031111111111111096,46.23111111111109,0)" xlink:href="#az"/><use transform="matrix(0.031111111111111096,0,0,0.031111111111111096,56.062222222222196,0)" xlink:href="#aA"/><use transform="matrix(0.031111111111111096,0,0,0.031111111111111096,69.87555555555552,0)" xlink:href="#aB"/><use transform="matrix(0.031111111111111096,0,0,0.031111111111111096,78.86666666666663,0)" xlink:href="#aC"/><use transform="matrix(0.031111111111111096,0,0,0.031111111111111096,89.4444444444444,0)" xlink:href="#aD"/><use transform="matrix(0.031111111111111096,0,0,0.031111111111111096,104.53333333333327,0)" xlink:href="#aA"/><use transform="matrix(0.031111111111111096,0,0,0.031111111111111096,117.72444444444439,0)" xlink:href="#aE"/><use transform="matrix(0.031111111111111096,0,0,0.031111111111111096,134.92888888888882,0)" xlink:href="#aF"/><use transform="matrix(0.031111111111111096,0,0,0.031111111111111096,153.4088888888888,0)" xlink:href="#aG"/></g><path d="M10 0c86-246 171-474 276-693h149C539-473 626-245 711 0H544c-15-49-35-101-51-150H223c-16 49-36 101-51 150H10zm347-536c-31 85-67 173-98 262h197c-31-90-66-177-99-262" id="aH"/><path d="M543-134V0H80v-693h156v559h307" id="aI"/><path d="M637-262C634-80 536 14 351 14 168 14 70-82 70-262v-431h156v418c1 94 35 154 127 154 87 0 128-54 128-154v-418h156v431" id="aJ"/><g id="b"><use transform="matrix(0.031111111111111096,0,0,0.031111111111111096,0,0)" xlink:href="#aH"/><use transform="matrix(0.031111111111111096,0,0,0.031111111111111096,22.4311111111111,0)" xlink:href="#aI"/><use transform="matrix(0.031111111111111096,0,0,0.031111111111111096,39.63555555555554,0)" xlink:href="#aJ"/></g><path d="M628-38C575-8 488 14 396 14 170 14 50-120 50-347c0-295 267-433 542-323 12 5 21 11 26 14l-45 126c-44-23-101-43-171-41-128 4-190 86-190 221 0 139 59 224 198 226 72 0 128-15 175-39" id="aK"/><path d="M304-540c166 0 258 108 258 276 0 170-90 278-258 278S45-95 45-264c0-168 94-276 259-276zm0 426c75 0 106-68 106-150s-31-148-106-148-107 66-107 148 32 150 107 150" id="aL"/><path d="M285-411c-21 0-48 2-66 5V0H70v-508c57-16 146-30 224-30 161 0 230 83 230 241V0H375v-279c-2-87-10-129-90-132" id="aM"/><path d="M70-498c86-33 237-58 342-19l-25 123c-45-13-116-24-168-8V0H70v-498" id="aN"/><g id="c"><use transform="matrix(0.031111111111111096,0,0,0.031111111111111096,0,0)" xlink:href="#aK"/><use transform="matrix(0.031111111111111096,0,0,0.031111111111111096,19.786666666666655,0)" xlink:href="#aL"/><use transform="matrix(0.031111111111111096,0,0,0.031111111111111096,38.67111111111109,0)" xlink:href="#aM"/><use transform="matrix(0.031111111111111096,0,0,0.031111111111111096,56.995555555555526,0)" xlink:href="#aA"/><use transform="matrix(0.031111111111111096,0,0,0.031111111111111096,70.80888888888886,0)" xlink:href="#aN"/><use transform="matrix(0.031111111111111096,0,0,0.031111111111111096,83.62666666666662,0)" xlink:href="#aL"/><use transform="matrix(0.031111111111111096,0,0,0.031111111111111096,102.51111111111106,0)" xlink:href="#az"/><use transform="matrix(0.031111111111111096,0,0,0.031111111111111096,112.34222222222218,0)" xlink:href="#az"/><use transform="matrix(0.031111111111111096,0,0,0.031111111111111096,122.17333333333329,0)" xlink:href="#aG"/><use transform="matrix(0.031111111111111096,0,0,0.031111111111111096,140.34222222222218,0)" xlink:href="#aN"/></g><path d="M597-29C545 0 469 15 386 15 168 15 67-125 60-347c-8-284 240-432 510-326 11 4 18 9 22 12l-28 80c-42-23-98-43-163-43-163 0-238 111-238 277 0 165 69 273 232 277 73 3 134-19 177-39" id="aO"/><path d="M173-151c-3 59 26 79 78 83l-13 78C129 7 80-30 80-136v-624l93-16v625" id="aP"/><path d="M82-498c73-28 204-47 296-18l-16 81c-44-19-138-19-187-2V0H82v-498" id="aQ"/><g id="d"><use transform="matrix(0.02222222222222222,0,0,0.02222222222222222,0,0)" xlink:href="#aO"/><use transform="matrix(0.02222222222222222,0,0,0.02222222222222222,13.866666666666665,0)" xlink:href="#aP"/><use transform="matrix(0.02222222222222222,0,0,0.02222222222222222,20.02222222222222,0)" xlink:href="#aQ"/></g><path d="M80-683c59-12 137-18 203-18 187 1 322 54 322 228 0 106-52 157-130 190 65 83 124 182 172 283H472c-49-87-99-179-159-253h-77V0H80v-683zm364 209c1-96-110-98-208-91v188c111-1 207 3 208-97" id="aR"/><g id="e"><use transform="matrix(0.031111111111111096,0,0,0.031111111111111096,0,0)" xlink:href="#aR"/><use transform="matrix(0.031111111111111096,0,0,0.031111111111111096,19.973333333333322,0)" xlink:href="#aG"/><use transform="matrix(0.031111111111111096,0,0,0.031111111111111096,38.1422222222222,0)" xlink:href="#aF"/><use transform="matrix(0.031111111111111096,0,0,0.031111111111111096,56.62222222222219,0)" xlink:href="#aB"/><use transform="matrix(0.031111111111111096,0,0,0.031111111111111096,65.6133333333333,0)" xlink:href="#aD"/><use transform="matrix(0.031111111111111096,0,0,0.031111111111111096,80.70222222222219,0)" xlink:href="#aA"/><use transform="matrix(0.031111111111111096,0,0,0.031111111111111096,93.8933333333333,0)" xlink:href="#aG"/><use transform="matrix(0.031111111111111096,0,0,0.031111111111111096,112.06222222222218,0)" xlink:href="#aN"/></g><path d="M80 0v-693h464v131H236v145h274v131H236V0H80" id="aS"/><g id="f"><use transform="matrix(0.031111111111111096,0,0,0.031111111111111096,0,0)" xlink:href="#aS"/><use transform="matrix(0.031111111111111096,0,0,0.031111111111111096,17.85777777777777,0)" xlink:href="#aB"/><use transform="matrix(0.031111111111111096,0,0,0.031111111111111096,26.848888888888876,0)" xlink:href="#az"/><use transform="matrix(0.031111111111111096,0,0,0.031111111111111096,36.67999999999998,0)" xlink:href="#aG"/></g><path d="M395-572c-128 0-184 94-184 225s55 224 184 224c128 0 184-93 184-224s-55-225-184-225zm0-137c221 0 345 136 345 362 0 227-122 361-345 361C174 14 50-121 50-347c0-224 126-362 345-362" id="aT"/><path d="M219-137c18 12 52 21 82 21 71 0 106-48 106-143 0-113-71-175-188-147v269zm66-401c176 0 274 99 274 275 0 162-70 273-230 273-44 0-78-9-110-23v198H70v-693c62-18 137-30 215-30" id="aU"/><g id="g"><use transform="matrix(0.031111111111111103,0,0,0.031111111111111103,0,0)" xlink:href="#aT"/><use transform="matrix(0.031111111111111103,0,0,0.031111111111111103,24.577777777777772,0)" xlink:href="#ay"/><use transform="matrix(0.031111111111111103,0,0,0.031111111111111103,42.90222222222221,0)" xlink:href="#aA"/><use transform="matrix(0.031111111111111103,0,0,0.031111111111111103,56.71555555555554,0)" xlink:href="#aU"/><use transform="matrix(0.031111111111111103,0,0,0.031111111111111103,75.50666666666665,0)" xlink:href="#ay"/><use transform="matrix(0.031111111111111103,0,0,0.031111111111111103,93.83111111111108,0)" xlink:href="#aA"/></g><path d="M319 14C139 11 45-85 45-263c0-194 140-304 348-269 24 4 46 12 68 21l-31 119c-29-11-61-20-102-20-89 0-131 62-131 149 0 96 36 150 137 149 40 0 85-8 115-21l21 122c-38 16-94 28-151 27" id="aV"/><g id="h"><use transform="matrix(0.031111111111111103,0,0,0.031111111111111103,0,0)" xlink:href="#aI"/><use transform="matrix(0.031111111111111103,0,0,0.031111111111111103,17.51555555555555,0)" xlink:href="#aL"/><use transform="matrix(0.031111111111111103,0,0,0.031111111111111103,36.39999999999999,0)" xlink:href="#aF"/><use transform="matrix(0.031111111111111103,0,0,0.031111111111111103,54.87999999999999,0)" xlink:href="#aB"/><use transform="matrix(0.031111111111111103,0,0,0.031111111111111103,63.8711111111111,0)" xlink:href="#aV"/></g><path d="M88-693h97V0H88v-693" id="aW"/><path d="M571-481c0 104-59 163-144 191 67 84 137 186 186 290H507c-51-97-115-192-181-272-45 2-94 0-141 1V0H88v-683c49-13 125-17 184-17 175 0 299 58 299 219zm-102-1c0-139-153-139-284-130v261c140 0 284 11 284-131" id="aX"/><path d="M175 0H82v-520h93V0zm13-675c0 35-26 61-60 61s-60-26-60-61 26-61 60-61 60 26 60 61" id="aY"/><path d="M279-449c-36 1-74 4-104 10V0H82v-505c55-13 130-26 207-26 153 0 213 87 213 239V0h-93v-272c1-107-22-180-130-177" id="aZ"/><g id="i"><use transform="matrix(0.02222222222222222,0,0,0.02222222222222222,0,0)" xlink:href="#aW"/><use transform="matrix(0.02222222222222222,0,0,0.02222222222222222,6.0666666666666655,0)" xlink:href="#aX"/><use transform="matrix(0.02222222222222222,0,0,0.02222222222222222,20.13333333333333,0)" xlink:href="#aY"/><use transform="matrix(0.02222222222222222,0,0,0.02222222222222222,25.84444444444444,0)" xlink:href="#aZ"/></g><path d="M88 0v-693h423v83H185v206h290v81H185v240h351V0H88" id="ba"/><path d="M18 0c47-93 120-191 180-273L26-520h105l124 182 125-182h99L311-279C371-196 448-94 495 0H393c-39-75-91-148-140-214-49 66-99 140-139 214H18" id="bb"/><path d="M257 11C121 11 76-66 76-201v-464l93-16v161h197v78H169v240c-1 80 17 131 96 131 43 0 79-13 103-23l18 77c-27 12-82 28-129 28" id="bc"/><g id="j"><use transform="matrix(0.02222222222222222,0,0,0.02222222222222222,0,0)" xlink:href="#ba"/><use transform="matrix(0.02222222222222222,0,0,0.02222222222222222,12.977777777777776,0)" xlink:href="#bb"/><use transform="matrix(0.02222222222222222,0,0,0.02222222222222222,24.42222222222222,0)" xlink:href="#bc"/></g><path d="M10 0c89-244 173-472 279-693h89C484-472 568-243 657 0H551c-23-60-41-116-63-177H174L111 0H10zm450-257c-42-112-82-221-129-325-48 103-88 212-129 325h258" id="bd"/><path d="M505-84V0H88v-693h97v609h320" id="be"/><path d="M609-258C606-86 520 15 346 15S83-86 83-258v-435h97v424c-3 125 55 198 166 198 117 0 165-77 166-198v-424h97v435" id="bf"/><path d="M447-14c-35 17-88 26-139 26C139 12 53-90 53-259c0-187 118-299 319-268 23 4 46 10 67 19l-21 79c-28-13-66-22-107-22-111 1-162 75-161 192 1 118 51 189 170 189 43 1 87-10 114-22" id="bg"/><path d="M297-533c160 0 244 110 244 273S457 13 297 13 53-97 53-260s84-273 244-273zm0 464c98 0 147-85 147-191s-49-191-147-191-147 85-147 191S199-69 297-69" id="bh"/><g id="k"><use transform="matrix(0.02222222222222222,0,0,0.02222222222222222,0,0)" xlink:href="#bd"/><use transform="matrix(0.02222222222222222,0,0,0.02222222222222222,14.822222222222221,0)" xlink:href="#be"/><use transform="matrix(0.02222222222222222,0,0,0.02222222222222222,26.04444444444444,0)" xlink:href="#bf"/><use transform="matrix(0.02222222222222222,0,0,0.02222222222222222,41.42222222222222,0)" xlink:href="#bg"/><use transform="matrix(0.02222222222222222,0,0,0.02222222222222222,51.555555555555536,0)" xlink:href="#bh"/><use transform="matrix(0.02222222222222222,0,0,0.02222222222222222,64.75555555555555,0)" xlink:href="#aZ"/><use transform="matrix(0.02222222222222222,0,0,0.02222222222222222,77.6,0)" xlink:href="#bc"/></g><path d="M397-70c43 1 85-5 114-13v-258h97v324C546 0 468 14 386 14 169 14 67-125 60-347c-9-289 247-432 522-326 11 4 18 9 22 12l-31 81c-38-25-111-46-175-44-161 5-235 113-235 277 0 165 70 273 234 277" id="bi"/><path d="M300-71c36 0 74-3 103-10v-439h93v505C441-2 367 11 290 11 138 11 76-78 76-228v-292h93v272c2 116 24 177 131 177" id="bj"/><g id="l"><use transform="matrix(0.02222222222222222,0,0,0.02222222222222222,0,0)" xlink:href="#bi"/><use transform="matrix(0.02222222222222222,0,0,0.02222222222222222,15.02222222222222,0)" xlink:href="#bh"/><use transform="matrix(0.02222222222222222,0,0,0.02222222222222222,28.222222222222225,0)" xlink:href="#bj"/><use transform="matrix(0.02222222222222222,0,0,0.02222222222222222,41.06666666666666,0)" xlink:href="#bc"/></g><g id="m"><use transform="matrix(0.02222222222222222,0,0,0.02222222222222222,0,0)" xlink:href="#bi"/><use transform="matrix(0.02222222222222222,0,0,0.02222222222222222,15.02222222222222,0)" xlink:href="#aY"/><use transform="matrix(0.02222222222222222,0,0,0.02222222222222222,20.73333333333333,0)" xlink:href="#aZ"/></g><g id="n"><use transform="matrix(0.02222222222222222,0,0,0.02222222222222222,0,0)" xlink:href="#bd"/><use transform="matrix(0.02222222222222222,0,0,0.02222222222222222,14.822222222222221,0)" xlink:href="#aY"/><use transform="matrix(0.02222222222222222,0,0,0.02222222222222222,20.53333333333333,0)" xlink:href="#aZ"/></g><path d="M563 0C450-189 321-377 183-541V0H88v-693h77c137 151 274 337 384 513v-513h95V0h-81" id="bk"/><g id="o"><use transform="matrix(0.02222222222222222,0,0,0.02222222222222222,0,0)" xlink:href="#ba"/><use transform="matrix(0.02222222222222222,0,0,0.02222222222222222,12.777777777777777,0)" xlink:href="#bk"/><use transform="matrix(0.02222222222222222,0,0,0.02222222222222222,29.044444444444448,0)" xlink:href="#aX"/></g><path d="M903-693C857-438 808-218 734 0h-97c-62-154-117-299-170-470C414-299 357-155 296 0h-97C124-217 75-438 30-693h102c36 196 74 394 125 572 56-149 122-324 169-490h84c47 166 115 341 171 490 50-178 88-377 123-572h99" id="bl"/><g id="p"><use transform="matrix(0.02222222222222222,0,0,0.02222222222222222,0,0)" xlink:href="#ba"/><use transform="matrix(0.02222222222222222,0,0,0.02222222222222222,12.777777777777777,0)" xlink:href="#bk"/><use transform="matrix(0.02222222222222222,0,0,0.02222222222222222,29.044444444444448,0)" xlink:href="#bl"/></g><g id="q"><use transform="matrix(0.02222222222222222,0,0,0.02222222222222222,0,0)" xlink:href="#aX"/><use transform="matrix(0.02222222222222222,0,0,0.02222222222222222,14.066666666666665,0)" xlink:href="#bh"/><use transform="matrix(0.02222222222222222,0,0,0.02222222222222222,27.266666666666662,0)" xlink:href="#bj"/><use transform="matrix(0.02222222222222222,0,0,0.02222222222222222,40.11111111111111,0)" xlink:href="#bc"/></g><g id="r"><use transform="matrix(0.02222222222222222,0,0,0.02222222222222222,0,0)" xlink:href="#aX"/><use transform="matrix(0.02222222222222222,0,0,0.02222222222222222,14.066666666666665,0)" xlink:href="#aY"/><use transform="matrix(0.02222222222222222,0,0,0.02222222222222222,19.777777777777775,0)" xlink:href="#aZ"/></g><path d="M682-533C610-400 540-239 477-96h-78c-63-145-132-302-205-437-15 163-23 356-30 533H69c10-236 25-474 51-693h85c86 143 163 321 233 480 71-159 147-337 233-480h85c23 223 40 454 51 693h-95c-7-177-15-370-30-533" id="bm"/><g id="s"><use transform="matrix(0.02222222222222222,0,0,0.02222222222222222,0,0)" xlink:href="#aW"/><use transform="matrix(0.02222222222222222,0,0,0.02222222222222222,6.0666666666666655,0)" xlink:href="#bm"/><use transform="matrix(0.02222222222222222,0,0,0.02222222222222222,25.51111111111111,0)" xlink:href="#bm"/></g><path d="M64-114c42 22 110 45 185 45 127 0 189-72 139-159-74-129-329-76-337-288-8-203 271-234 423-150l-31 79c-73-47-295-73-292 60 2 88 82 103 147 131 102 44 200 79 205 222C510 40 191 50 35-34" id="bn"/><path d="M551-693v84H333V0h-97v-609H18v-84h533" id="bo"/><g id="t"><use transform="matrix(0.02222222222222222,0,0,0.02222222222222222,0,0)" xlink:href="#aW"/><use transform="matrix(0.02222222222222222,0,0,0.02222222222222222,6.0666666666666655,0)" xlink:href="#bk"/><use transform="matrix(0.02222222222222222,0,0,0.02222222222222222,22.333333333333332,0)" xlink:href="#bn"/><use transform="matrix(0.02222222222222222,0,0,0.02222222222222222,34.24444444444444,0)" xlink:href="#bo"/><use transform="matrix(0.02222222222222222,0,0,0.02222222222222222,46.888888888888886,0)" xlink:href="#aX"/></g><use transform="matrix(0.02222222222222222,0,0,0.02222222222222222,0,0)" xlink:href="#bo" id="u"/><path d="M80-693h156V0H80v-693" id="bp"/><g id="v"><use transform="matrix(0.026666666666666655,0,0,0.026666666666666655,0,0)" xlink:href="#bp"/><use transform="matrix(0.026666666666666655,0,0,0.026666666666666655,8.426666666666662,0)" xlink:href="#aM"/><use transform="matrix(0.026666666666666655,0,0,0.026666666666666655,24.133333333333322,0)" xlink:href="#aD"/><use transform="matrix(0.026666666666666655,0,0,0.026666666666666655,37.06666666666665,0)" xlink:href="#aA"/><use transform="matrix(0.026666666666666655,0,0,0.026666666666666655,48.906666666666645,0)" xlink:href="#aN"/><use transform="matrix(0.026666666666666655,0,0,0.026666666666666655,60.159999999999975,0)" xlink:href="#ay"/><use transform="matrix(0.026666666666666655,0,0,0.026666666666666655,75.86666666666663,0)" xlink:href="#aV"/><use transform="matrix(0.026666666666666655,0,0,0.026666666666666655,89.19999999999996,0)" xlink:href="#aA"/><use transform="matrix(0.026666666666666655,0,0,0.026666666666666655,101.03999999999995,0)" xlink:href="#aB"/><use transform="matrix(0.026666666666666655,0,0,0.026666666666666655,108.74666666666661,0)" xlink:href="#aL"/><use transform="matrix(0.026666666666666655,0,0,0.026666666666666655,124.93333333333328,0)" xlink:href="#aM"/></g><g id="w"><use transform="matrix(0.026666666666666655,0,0,0.026666666666666655,0,0)" xlink:href="#aR"/><use transform="matrix(0.026666666666666655,0,0,0.026666666666666655,17.11999999999999,0)" xlink:href="#aG"/><use transform="matrix(0.026666666666666655,0,0,0.026666666666666655,32.693333333333314,0)" xlink:href="#aF"/><use transform="matrix(0.026666666666666655,0,0,0.026666666666666655,48.5333333333333,0)" xlink:href="#aB"/><use transform="matrix(0.026666666666666655,0,0,0.026666666666666655,56.23999999999996,0)" xlink:href="#aD"/><use transform="matrix(0.026666666666666655,0,0,0.026666666666666655,69.17333333333329,0)" xlink:href="#aA"/><use transform="matrix(0.026666666666666655,0,0,0.026666666666666655,80.47999999999995,0)" xlink:href="#aG"/><use transform="matrix(0.026666666666666655,0,0,0.026666666666666655,96.05333333333327,0)" xlink:href="#aN"/></g><path d="M722-347c0 199-96 317-260 354 20 80 125 87 211 102l-23 76c-132-20-258-47-285-171C169-7 60-134 60-347c0-222 117-362 333-362 214 0 329 141 329 362zM391-624c-159 0-229 115-229 277S232-70 391-70c158 0 228-115 228-277s-70-277-228-277" id="bq"/><use transform="matrix(0.02222222222222222,0,0,0.02222222222222222,0,0)" xlink:href="#bq" id="x"/><path d="M95-550c82-33 155-78 210-143h66V0h-93v-564c-41 36-97 64-154 84" id="br"/><path d="M284 15C113 15 52-150 52-347s61-362 232-362 232 165 232 362S455 15 284 15zm64-105c75-64 80-230 64-365-11-87-37-172-128-172-152 0-143 232-128 388 8 87 37 172 128 172 25 0 47-8 64-23" id="bs"/><g id="y"><use transform="matrix(0.022222222222222223,0,0,0.022222222222222223,0,0)" xlink:href="#br"/><use transform="matrix(0.022222222222222223,0,0,0.022222222222222223,12.622222222222224,0)" xlink:href="#bs"/></g><path d="M279 12C204 13 135-1 82-15v-745l93-16v279c28-17 80-37 131-35 159 6 234 110 234 272C540-90 448 7 279 12zm15-462c-46-2-95 21-119 40v329c28 7 62 11 103 11 106 0 167-77 165-190-2-110-39-188-149-190" id="bt"/><path d="M59-97c36 13 83 32 144 30 63-2 112-9 112-63 0-99-160-93-221-153-24-24-44-52-44-100 0-151 196-178 331-127l-17 80c-60-35-257-49-214 69 69 92 264 59 259 227-2 107-89 146-206 146C133 12 82-2 42-17" id="bu"/><g id="z"><use transform="matrix(0.022222222222222223,0,0,0.022222222222222223,0,0)" xlink:href="#bt"/><use transform="matrix(0.022222222222222223,0,0,0.022222222222222223,13.177777777777779,0)" xlink:href="#aY"/><use transform="matrix(0.022222222222222223,0,0,0.022222222222222223,18.88888888888889,0)" xlink:href="#bc"/><use transform="matrix(0.022222222222222223,0,0,0.022222222222222223,27.91111111111111,0)" xlink:href="#bu"/></g><path d="M272-700c239 0 385 113 385 353S511 6 272 6C213 6 137 2 88-11v-672c49-13 125-17 184-17zM185-82c28 2 55 3 95 3 179 2 274-95 274-268s-95-270-274-268c-40 0-67 1-95 3v530" id="bv"/><use transform="matrix(0.02222222222222222,0,0,0.02222222222222222,0,0)" xlink:href="#bv" id="A"/><g id="B"><use transform="matrix(0.02222222222222222,0,0,0.02222222222222222,0,0)" xlink:href="#ba"/><use transform="matrix(0.02222222222222222,0,0,0.02222222222222222,12.777777777777777,0)" xlink:href="#bk"/></g><g id="C"><use transform="matrix(0.028888888888888877,0,0,0.028888888888888877,0,0)" xlink:href="#aK"/><use transform="matrix(0.028888888888888877,0,0,0.028888888888888877,18.373333333333324,0)" xlink:href="#aL"/><use transform="matrix(0.028888888888888877,0,0,0.028888888888888877,35.90888888888887,0)" xlink:href="#ay"/><use transform="matrix(0.028888888888888877,0,0,0.028888888888888877,52.92444444444442,0)" xlink:href="#aM"/><use transform="matrix(0.028888888888888877,0,0,0.028888888888888877,69.93999999999997,0)" xlink:href="#aA"/><use transform="matrix(0.028888888888888877,0,0,0.028888888888888877,82.18888888888884,0)" xlink:href="#aG"/><use transform="matrix(0.028888888888888877,0,0,0.028888888888888877,99.05999999999995,0)" xlink:href="#aN"/></g><g id="D"><use transform="matrix(0.02222222222222222,0,0,0.02222222222222222,0,0)" xlink:href="#aO"/><use transform="matrix(0.02222222222222222,0,0,0.02222222222222222,13.866666666666665,0)" xlink:href="#bk"/><use transform="matrix(0.02222222222222222,0,0,0.02222222222222222,30.133333333333336,0)" xlink:href="#bo"/></g><g id="E"><use transform="matrix(0.02222222222222222,0,0,0.02222222222222222,0,0)" xlink:href="#aO"/><use transform="matrix(0.02222222222222222,0,0,0.02222222222222222,13.866666666666665,0)" xlink:href="#be"/><use transform="matrix(0.02222222222222222,0,0,0.02222222222222222,25.488888888888887,0)" xlink:href="#aX"/></g><path d="M393 15C177 15 60-125 60-347s117-362 333-362c214 0 329 141 329 362S607 15 393 15zm-2-639c-159 0-229 115-229 277S232-70 391-70c158 0 228-115 228-277s-70-277-228-277" id="bw"/><g id="F"><use transform="matrix(0.02222222222222222,0,0,0.02222222222222222,0,0)" xlink:href="#bv"/><use transform="matrix(0.02222222222222222,0,0,0.02222222222222222,15.933333333333332,0)" xlink:href="#bw"/><use transform="matrix(0.02222222222222222,0,0,0.02222222222222222,33.31111111111111,0)" xlink:href="#bk"/><use transform="matrix(0.02222222222222222,0,0,0.02222222222222222,49.57777777777777,0)" xlink:href="#ba"/></g><g id="G"><use transform="matrix(0.02222222222222222,0,0,0.02222222222222222,0,0)" xlink:href="#aX"/><use transform="matrix(0.02222222222222222,0,0,0.02222222222222222,14.066666666666665,0)" xlink:href="#bv"/><use transform="matrix(0.02222222222222222,0,0,0.02222222222222222,29.577777777777776,0)" xlink:href="#bd"/><use transform="matrix(0.02222222222222222,0,0,0.02222222222222222,44.4,0)" xlink:href="#br"/></g><g id="H"><use transform="matrix(0.02222222222222222,0,0,0.02222222222222222,0,0)" xlink:href="#ba"/><use transform="matrix(0.02222222222222222,0,0,0.02222222222222222,12.777777777777777,0)" xlink:href="#bk"/><use transform="matrix(0.02222222222222222,0,0,0.02222222222222222,29.044444444444448,0)" xlink:href="#aX"/><use transform="matrix(0.02222222222222222,0,0,0.02222222222222222,43.11111111111111,0)" xlink:href="#bs"/></g><g id="I"><use transform="matrix(0.02222222222222222,0,0,0.02222222222222222,0,0)" xlink:href="#aX"/><use transform="matrix(0.02222222222222222,0,0,0.02222222222222222,14.066666666666665,0)" xlink:href="#bv"/><use transform="matrix(0.02222222222222222,0,0,0.02222222222222222,29.577777777777776,0)" xlink:href="#bd"/><use transform="matrix(0.02222222222222222,0,0,0.02222222222222222,44.4,0)" xlink:href="#bs"/></g><g id="J"><use transform="matrix(0.02222222222222222,0,0,0.02222222222222222,0,0)" xlink:href="#bl"/><use transform="matrix(0.02222222222222222,0,0,0.02222222222222222,20.73333333333333,0)" xlink:href="#aX"/><use transform="matrix(0.02222222222222222,0,0,0.02222222222222222,35.42222222222222,0)" xlink:href="#bd"/></g><path d="M88 0v-693h418v83H185v209h285v82H185V0H88" id="bx"/><g id="K"><use transform="matrix(0.02222222222222222,0,0,0.02222222222222222,0,0)" xlink:href="#bx"/><use transform="matrix(0.02222222222222222,0,0,0.02222222222222222,12.02222222222222,0)" xlink:href="#bk"/></g><path d="M279-449c-38 1-76 8-104 17V0H82v-760l93-16v266c32-12 72-21 114-21 153-1 213 87 213 239V0h-93v-272c1-107-22-181-130-177" id="by"/><g id="L"><use transform="matrix(0.02222222222222222,0,0,0.02222222222222222,0,0)" xlink:href="#bd"/><use transform="matrix(0.02222222222222222,0,0,0.02222222222222222,14.822222222222221,0)" xlink:href="#by"/></g><path d="M88-683c49-13 125-17 184-17 175 0 303 59 303 221 0 202-179 229-390 222V0H88v-683zm385 203c0-140-156-141-288-132v272c146 2 288 4 288-140" id="bz"/><g id="M"><use transform="matrix(0.02222222222222222,0,0,0.02222222222222222,0,0)" xlink:href="#bw"/><use transform="matrix(0.02222222222222222,0,0,0.02222222222222222,17.377777777777776,0)" xlink:href="#bz"/></g><path d="M185-387c99-95 208-204 299-306h117c-98 108-210 222-315 324C416-272 538-140 625 0H511c-85-128-198-245-326-329V0H88v-693h97v306" id="bA"/><g id="N"><use transform="matrix(0.02222222222222222,0,0,0.02222222222222222,0,0)" xlink:href="#bz"/><use transform="matrix(0.02222222222222222,0,0,0.02222222222222222,13.599999999999998,0)" xlink:href="#ba"/><use transform="matrix(0.02222222222222222,0,0,0.02222222222222222,26.377777777777776,0)" xlink:href="#ba"/><use transform="matrix(0.02222222222222222,0,0,0.02222222222222222,39.15555555555555,0)" xlink:href="#bA"/><use transform="matrix(0.02222222222222222,0,0,0.02222222222222222,53.222222222222214,0)" xlink:href="#bt"/></g><g id="O"><use transform="matrix(0.02222222222222222,0,0,0.02222222222222222,0,0)" xlink:href="#bo"/><use transform="matrix(0.02222222222222222,0,0,0.02222222222222222,12.644444444444442,0)" xlink:href="#aW"/><use transform="matrix(0.02222222222222222,0,0,0.02222222222222222,18.71111111111111,0)" xlink:href="#bm"/><use transform="matrix(0.02222222222222222,0,0,0.02222222222222222,38.15555555555555,0)" xlink:href="#ba"/></g><g id="P"><use transform="matrix(0.02222222222222222,0,0,0.02222222222222222,0,0)" xlink:href="#aX"/><use transform="matrix(0.02222222222222222,0,0,0.02222222222222222,14.066666666666665,0)" xlink:href="#ba"/><use transform="matrix(0.02222222222222222,0,0,0.02222222222222222,26.222222222222218,0)" xlink:href="#bi"/></g><path d="M594-203C589-38 465 6 275 6 209 6 142 1 88-11v-672c188-30 472-44 472 165 1 79-42 125-99 148 77 24 136 68 133 167zm-100 1c0-142-168-119-310-121v244c136 8 310 16 310-123zm-34-309c0-119-159-112-276-104v214c128 0 276 15 276-110" id="bB"/><g id="Q"><use transform="matrix(0.02222222222222222,0,0,0.02222222222222222,0,0)" xlink:href="#bB"/><use transform="matrix(0.02222222222222222,0,0,0.02222222222222222,14.377777777777776,0)" xlink:href="#bf"/><use transform="matrix(0.02222222222222222,0,0,0.02222222222222222,29.755555555555553,0)" xlink:href="#bn"/></g><path d="M524-693h97V0h-97v-320H185V0H88v-693h97v289h339v-289" id="bC"/><path d="M25 0c65-128 149-247 231-366L34-693h112l171 258 169-258h111L379-370C463-249 547-129 613 0H504c-52-103-121-205-186-296-66 91-133 194-186 296H25" id="bD"/><g id="R"><use transform="matrix(0.02222222222222222,0,0,0.02222222222222222,0,0)" xlink:href="#bo"/><use transform="matrix(0.02222222222222222,0,0,0.02222222222222222,12.644444444444442,0)" xlink:href="#bC"/><use transform="matrix(0.02222222222222222,0,0,0.02222222222222222,28.399999999999995,0)" xlink:href="#ba"/><use transform="matrix(0.02222222222222222,0,0,0.02222222222222222,41.17777777777777,0)" xlink:href="#bD"/></g><path d="M251-709c137-2 218 63 218 193 0 127-100 188-167 261-37 40-88 87-116 136-9 15-13 29-13 40h319V0H72c-7-158 94-233 172-317 52-56 126-98 126-196 0-75-44-113-118-113-68 0-113 33-148 66l-46-66c44-44 106-81 193-83" id="bE"/><g id="S"><use transform="matrix(0.02222222222222222,0,0,0.02222222222222222,0,0)" xlink:href="#bv"/><use transform="matrix(0.02222222222222222,0,0,0.02222222222222222,15.933333333333332,0)" xlink:href="#bC"/><use transform="matrix(0.02222222222222222,0,0,0.02222222222222222,31.688888888888886,0)" xlink:href="#ba"/><use transform="matrix(0.02222222222222222,0,0,0.02222222222222222,44.46666666666666,0)" xlink:href="#bD"/><use transform="matrix(0.02222222222222222,0,0,0.02222222222222222,58.57777777777777,0)" xlink:href="#bE"/></g><g id="T"><use transform="matrix(0.02222222222222222,0,0,0.02222222222222222,0,0)" xlink:href="#bv"/><use transform="matrix(0.02222222222222222,0,0,0.02222222222222222,15.933333333333332,0)" xlink:href="#bC"/><use transform="matrix(0.02222222222222222,0,0,0.02222222222222222,31.688888888888886,0)" xlink:href="#ba"/><use transform="matrix(0.02222222222222222,0,0,0.02222222222222222,44.46666666666666,0)" xlink:href="#bD"/><use transform="matrix(0.02222222222222222,0,0,0.02222222222222222,58.57777777777777,0)" xlink:href="#br"/></g><g id="U"><use transform="matrix(0.02222222222222222,0,0,0.02222222222222222,0,0)" xlink:href="#bv"/><use transform="matrix(0.02222222222222222,0,0,0.02222222222222222,15.933333333333332,0)" xlink:href="#bC"/><use transform="matrix(0.02222222222222222,0,0,0.02222222222222222,31.688888888888886,0)" xlink:href="#ba"/><use transform="matrix(0.02222222222222222,0,0,0.02222222222222222,44.46666666666666,0)" xlink:href="#bD"/><use transform="matrix(0.02222222222222222,0,0,0.02222222222222222,58.57777777777777,0)" xlink:href="#bs"/></g><path d="M-2 106h500v79H-2v-79" id="bF"/><g id="V"><use transform="matrix(0.02222222222222222,0,0,0.02222222222222222,0,0)" xlink:href="#be"/><use transform="matrix(0.02222222222222222,0,0,0.02222222222222222,11.62222222222222,0)" xlink:href="#ba"/><use transform="matrix(0.02222222222222222,0,0,0.02222222222222222,24.4,0)" xlink:href="#bv"/><use transform="matrix(0.02222222222222222,0,0,0.02222222222222222,40.33333333333333,0)" xlink:href="#bF"/><use transform="matrix(0.02222222222222222,0,0,0.02222222222222222,51.35555555555555,0)" xlink:href="#bB"/></g><use transform="matrix(0.022222222222222223,0,0,0.022222222222222223,0,0)" xlink:href="#bE" id="W"/><path d="M42-240c77-166 189-328 311-453h89v440h82v76h-82V0h-90v-177H42v-63zm310-343c-86 94-162 208-220 330h220v-330" id="bG"/><use transform="matrix(0.02222222222222222,0,0,0.02222222222222222,0,0)" xlink:href="#bG" id="X"/><g id="Y"><use transform="matrix(0.02222222222222222,0,0,0.02222222222222222,0,0)" xlink:href="#bt"/><use transform="matrix(0.02222222222222222,0,0,0.02222222222222222,13.177777777777775,0)" xlink:href="#aY"/><use transform="matrix(0.02222222222222222,0,0,0.02222222222222222,18.888888888888886,0)" xlink:href="#bc"/><use transform="matrix(0.02222222222222222,0,0,0.02222222222222222,27.911111111111104,0)" xlink:href="#bu"/></g><g id="Z"><use transform="matrix(0.031111111111111096,0,0,0.031111111111111096,0,0)" xlink:href="#bp"/><use transform="matrix(0.031111111111111096,0,0,0.031111111111111096,9.831111111111106,0)" xlink:href="#aM"/><use transform="matrix(0.031111111111111096,0,0,0.031111111111111096,28.15555555555554,0)" xlink:href="#aU"/><use transform="matrix(0.031111111111111096,0,0,0.031111111111111096,46.946666666666644,0)" xlink:href="#ay"/><use transform="matrix(0.031111111111111096,0,0,0.031111111111111096,65.27111111111108,0)" xlink:href="#aA"/></g><g id="aa"><use transform="matrix(0.031111111111111096,0,0,0.031111111111111096,0,0)" xlink:href="#aI"/><use transform="matrix(0.031111111111111096,0,0,0.031111111111111096,17.515555555555547,0)" xlink:href="#aL"/><use transform="matrix(0.031111111111111096,0,0,0.031111111111111096,36.399999999999984,0)" xlink:href="#aF"/><use transform="matrix(0.031111111111111096,0,0,0.031111111111111096,54.879999999999974,0)" xlink:href="#aB"/><use transform="matrix(0.031111111111111096,0,0,0.031111111111111096,63.871111111111084,0)" xlink:href="#aV"/></g><g id="ab"><use transform="matrix(0.02222222222222222,0,0,0.02222222222222222,0,0)" xlink:href="#bq"/><use transform="matrix(0.02222222222222222,0,0,0.02222222222222222,17.377777777777776,0)" xlink:href="#bs"/></g><g id="ac"><use transform="matrix(0.02222222222222222,0,0,0.02222222222222222,0,0)" xlink:href="#bq"/><use transform="matrix(0.02222222222222222,0,0,0.02222222222222222,17.377777777777776,0)" xlink:href="#br"/></g><g id="ad"><use transform="matrix(0.02222222222222222,0,0,0.02222222222222222,0,0)" xlink:href="#aX"/><use transform="matrix(0.02222222222222222,0,0,0.02222222222222222,14.066666666666665,0)" xlink:href="#ba"/><use transform="matrix(0.02222222222222222,0,0,0.02222222222222222,26.84444444444444,0)" xlink:href="#bn"/></g><g id="ae"><use transform="matrix(0.02222222222222222,0,0,0.02222222222222222,0,0)" xlink:href="#be"/><use transform="matrix(0.02222222222222222,0,0,0.02222222222222222,11.62222222222222,0)" xlink:href="#ba"/><use transform="matrix(0.02222222222222222,0,0,0.02222222222222222,24.4,0)" xlink:href="#bv"/></g><use transform="matrix(0.02222222222222222,0,0,0.02222222222222222,0,0)" xlink:href="#bv" id="af"/><g id="ag"><use transform="matrix(0.022222222222222223,0,0,0.022222222222222223,0,0)" xlink:href="#br"/><use transform="matrix(0.022222222222222223,0,0,0.022222222222222223,12.622222222222224,0)" xlink:href="#bs"/></g><path d="M503-616C384-463 284-252 262 0h-97c26-244 117-459 234-612H62v-81h441v77" id="bH"/><use transform="matrix(0.022222222222222223,0,0,0.022222222222222223,0,0)" xlink:href="#bH" id="ah"/><g id="ai"><use transform="matrix(0.02222222222222222,0,0,0.02222222222222222,0,0)" xlink:href="#ba"/><use transform="matrix(0.02222222222222222,0,0,0.02222222222222222,12.777777777777777,0)" xlink:href="#bk"/><use transform="matrix(0.02222222222222222,0,0,0.02222222222222222,29.044444444444448,0)" xlink:href="#aX"/><use transform="matrix(0.02222222222222222,0,0,0.02222222222222222,43.11111111111111,0)" xlink:href="#br"/></g><path fill="#333" d="M315-70c41 0 75-4 103-11v-329c-24-19-73-42-119-40-110 2-147 80-149 190-2 113 59 189 165 190zm-28-462c51-2 103 18 131 35v-263l93-16v761C458-1 388 13 314 12 145 7 53-90 53-260c0-162 75-266 234-272" id="bI"/><path fill="#333" d="M139-156c0 106 132 93 220 82v-155c-78-22-220-23-220 73zm-94 1c-2-152 173-180 314-148 5-94-26-150-117-150-50 0-101 8-132 20l-11-77c32-13 99-23 151-23 135 0 201 66 200 199V-9C390 1 319 11 247 11 126 11 46-34 45-155" id="bJ"/><path fill="#333" d="M257 11C121 11 76-66 76-201v-464l93-16v161h197v78H169v240c-1 80 17 131 96 131 43 0 79-13 103-23l18 77c-27 12-82 28-129 28" id="bK"/><path fill="#333" d="M279 12C204 13 135-1 82-15v-745l93-16v279c28-17 80-37 131-35 159 6 234 110 234 272C540-90 448 7 279 12zm15-462c-46-2-95 21-119 40v329c28 7 62 11 103 11 106 0 167-77 165-190-2-110-39-188-149-190" id="bL"/><path fill="#333" d="M300-71c36 0 74-3 103-10v-439h93v505C441-2 367 11 290 11 138 11 76-78 76-228v-292h93v272c2 116 24 177 131 177" id="bM"/><path fill="#333" d="M59-97c36 13 83 32 144 30 63-2 112-9 112-63 0-99-160-93-221-153-24-24-44-52-44-100 0-151 196-178 331-127l-17 80c-60-35-257-49-214 69 69 92 264 59 259 227-2 107-89 146-206 146C133 12 82-2 42-17" id="bN"/><g id="aj"><use transform="matrix(0.022222222222222223,0,0,0.022222222222222223,0,0)" xlink:href="#bI"/><use transform="matrix(0.022222222222222223,0,0,0.022222222222222223,13.177777777777779,0)" xlink:href="#bJ"/><use transform="matrix(0.022222222222222223,0,0,0.022222222222222223,24.866666666666667,0)" xlink:href="#bK"/><use transform="matrix(0.022222222222222223,0,0,0.022222222222222223,33.888888888888886,0)" xlink:href="#bJ"/><use transform="matrix(0.022222222222222223,0,0,0.022222222222222223,45.57777777777778,0)" xlink:href="#bL"/><use transform="matrix(0.022222222222222223,0,0,0.022222222222222223,58.75555555555556,0)" xlink:href="#bM"/><use transform="matrix(0.022222222222222223,0,0,0.022222222222222223,71.6,0)" xlink:href="#bN"/></g><path fill="#333" d="M95-550c82-33 155-78 210-143h66V0h-93v-564c-41 36-97 64-154 84" id="bO"/><path fill="#333" d="M284 15C113 15 52-150 52-347s61-362 232-362 232 165 232 362S455 15 284 15zm64-105c75-64 80-230 64-365-11-87-37-172-128-172-152 0-143 232-128 388 8 87 37 172 128 172 25 0 47-8 64-23" id="bP"/><path fill="#333" d="M175 0H82v-520h93V0zm13-675c0 35-26 61-60 61s-60-26-60-61 26-61 60-61 60 26 60 61" id="bQ"/><g id="ak"><use transform="matrix(0.022222222222222223,0,0,0.022222222222222223,0,0)" xlink:href="#bO"/><use transform="matrix(0.022222222222222223,0,0,0.022222222222222223,12.622222222222224,0)" xlink:href="#bP"/><use transform="matrix(0.022222222222222223,0,0,0.022222222222222223,25.244444444444447,0)" xlink:href="#bL"/><use transform="matrix(0.022222222222222223,0,0,0.022222222222222223,38.422222222222224,0)" xlink:href="#bQ"/><use transform="matrix(0.022222222222222223,0,0,0.022222222222222223,44.13333333333333,0)" xlink:href="#bK"/><use transform="matrix(0.022222222222222223,0,0,0.022222222222222223,53.155555555555544,0)" xlink:href="#bN"/></g><g id="al"><use transform="matrix(0.02222222222222222,0,0,0.02222222222222222,0,0)" xlink:href="#br"/><use transform="matrix(0.02222222222222222,0,0,0.02222222222222222,12.62222222222222,0)" xlink:href="#bs"/></g><path d="M139-156c0 106 132 93 220 82v-155c-78-22-220-23-220 73zm-94 1c-2-152 173-180 314-148 5-94-26-150-117-150-50 0-101 8-132 20l-11-77c32-13 99-23 151-23 135 0 201 66 200 199V-9C390 1 319 11 247 11 126 11 46-34 45-155" id="bR"/><path d="M761-520C714-334 656-153 588 0h-81c-40-105-86-236-117-357-31 122-76 252-116 357h-81C125-153 67-334 20-520h100c31 138 71 286 118 407 45-126 85-269 117-407h77c30 140 70 281 115 407 46-123 88-268 118-407h96" id="bS"/><g id="am"><use transform="matrix(0.02222222222222222,0,0,0.02222222222222222,0,0)" xlink:href="#aX"/><use transform="matrix(0.02222222222222222,0,0,0.02222222222222222,14.066666666666665,0)" xlink:href="#bR"/><use transform="matrix(0.02222222222222222,0,0,0.02222222222222222,25.755555555555553,0)" xlink:href="#bS"/><use transform="matrix(0.02222222222222222,0,0,0.02222222222222222,43.11111111111111,0)" xlink:href="#bv"/><use transform="matrix(0.02222222222222222,0,0,0.02222222222222222,58.73333333333333,0)" xlink:href="#bR"/><use transform="matrix(0.02222222222222222,0,0,0.02222222222222222,70.42222222222222,0)" xlink:href="#bc"/><use transform="matrix(0.02222222222222222,0,0,0.02222222222222222,79.44444444444444,0)" xlink:href="#bR"/></g><path d="M315 12C141 9 53-87 53-259c0-164 81-274 237-274 163 0 227 118 216 298H150c9 108 58 165 175 165 54 0 101-11 133-25l13 78c-33 16-99 31-156 29zm95-322c8-101-82-177-178-132-47 22-73 71-80 132h258" id="bT"/><g id="an"><use transform="matrix(0.02222222222222222,0,0,0.02222222222222222,0,0)" xlink:href="#ba"/><use transform="matrix(0.02222222222222222,0,0,0.02222222222222222,12.977777777777776,0)" xlink:href="#bb"/><use transform="matrix(0.02222222222222222,0,0,0.02222222222222222,24.42222222222222,0)" xlink:href="#bc"/><use transform="matrix(0.02222222222222222,0,0,0.02222222222222222,33.444444444444436,0)" xlink:href="#aQ"/><use transform="matrix(0.02222222222222222,0,0,0.02222222222222222,42.1111111111111,0)" xlink:href="#aZ"/><use transform="matrix(0.02222222222222222,0,0,0.02222222222222222,54.95555555555554,0)" xlink:href="#bF"/><use transform="matrix(0.02222222222222222,0,0,0.02222222222222222,65.97777777777776,0)" xlink:href="#ba"/><use transform="matrix(0.02222222222222222,0,0,0.02222222222222222,78.75555555555553,0)" xlink:href="#aZ"/><use transform="matrix(0.02222222222222222,0,0,0.02222222222222222,91.6,0)" xlink:href="#bR"/><use transform="matrix(0.02222222222222222,0,0,0.02222222222222222,103.28888888888886,0)" xlink:href="#bt"/><use transform="matrix(0.02222222222222222,0,0,0.02222222222222222,116.46666666666663,0)" xlink:href="#aP"/><use transform="matrix(0.02222222222222222,0,0,0.02222222222222222,122.62222222222219,0)" xlink:href="#bT"/></g><g id="ao"><use transform="matrix(0.02222222222222222,0,0,0.02222222222222222,0,0)" xlink:href="#aX"/><use transform="matrix(0.02222222222222222,0,0,0.02222222222222222,14.066666666666665,0)" xlink:href="#bR"/><use transform="matrix(0.02222222222222222,0,0,0.02222222222222222,25.755555555555553,0)" xlink:href="#bS"/><use transform="matrix(0.02222222222222222,0,0,0.02222222222222222,43.11111111111111,0)" xlink:href="#aO"/><use transform="matrix(0.02222222222222222,0,0,0.02222222222222222,56.977777777777774,0)" xlink:href="#be"/><use transform="matrix(0.02222222222222222,0,0,0.02222222222222222,68.6,0)" xlink:href="#bA"/></g><path d="M315-70c41 0 75-4 103-11v-329c-24-19-73-42-119-40-110 2-147 80-149 190-2 113 59 189 165 190zm-28-462c51-2 103 18 131 35v-263l93-16v761C458-1 388 13 314 12 145 7 53-90 53-260c0-162 75-266 234-272" id="bU"/><g id="ap"><use transform="matrix(0.02222222222222222,0,0,0.02222222222222222,0,0)" xlink:href="#bU"/><use transform="matrix(0.02222222222222222,0,0,0.02222222222222222,13.177777777777775,0)" xlink:href="#bR"/><use transform="matrix(0.02222222222222222,0,0,0.02222222222222222,24.866666666666664,0)" xlink:href="#bc"/><use transform="matrix(0.02222222222222222,0,0,0.02222222222222222,33.888888888888886,0)" xlink:href="#bR"/><use transform="matrix(0.02222222222222222,0,0,0.02222222222222222,45.577777777777776,0)" xlink:href="#bE"/><use transform="matrix(0.02222222222222222,0,0,0.02222222222222222,58.199999999999996,0)" xlink:href="#bt"/><use transform="matrix(0.02222222222222222,0,0,0.02222222222222222,71.37777777777777,0)" xlink:href="#aY"/><use transform="matrix(0.02222222222222222,0,0,0.02222222222222222,77.08888888888887,0)" xlink:href="#bc"/></g><path d="M125-121c39 0 67 30 67 67s-28 67-67 67-67-30-67-67 28-67 67-67zm0-399c39 0 67 30 67 67s-28 67-67 67-67-30-67-67 28-67 67-67" id="bV"/><g id="aq"><use transform="matrix(0.022222222222222223,0,0,0.022222222222222223,0,0)" xlink:href="#bU"/><use transform="matrix(0.022222222222222223,0,0,0.022222222222222223,13.177777777777779,0)" xlink:href="#bR"/><use transform="matrix(0.022222222222222223,0,0,0.022222222222222223,24.866666666666667,0)" xlink:href="#bc"/><use transform="matrix(0.022222222222222223,0,0,0.022222222222222223,33.888888888888886,0)" xlink:href="#bR"/><use transform="matrix(0.022222222222222223,0,0,0.022222222222222223,45.57777777777778,0)" xlink:href="#br"/><use transform="matrix(0.022222222222222223,0,0,0.022222222222222223,58.2,0)" xlink:href="#bV"/><use transform="matrix(0.022222222222222223,0,0,0.022222222222222223,63.75555555555556,0)" xlink:href="#bs"/></g><g id="ar"><use transform="matrix(0.02222222222222222,0,0,0.02222222222222222,0,0)" xlink:href="#aO"/><use transform="matrix(0.02222222222222222,0,0,0.02222222222222222,13.866666666666665,0)" xlink:href="#be"/><use transform="matrix(0.02222222222222222,0,0,0.02222222222222222,25.488888888888887,0)" xlink:href="#bA"/><use transform="matrix(0.02222222222222222,0,0,0.02222222222222222,39.55555555555555,0)" xlink:href="#bt"/></g><path d="M95-501c-14-80-24-166-21-259h97c3 93-7 179-21 259H95" id="bW"/><g id="as"><use transform="matrix(0.022222222222222223,0,0,0.022222222222222223,0,0)" xlink:href="#br"/><use transform="matrix(0.022222222222222223,0,0,0.022222222222222223,12.622222222222224,0)" xlink:href="#bW"/><use transform="matrix(0.022222222222222223,0,0,0.022222222222222223,18.06666666666667,0)" xlink:href="#bt"/><use transform="matrix(0.022222222222222223,0,0,0.022222222222222223,31.244444444444447,0)" xlink:href="#br"/></g><g id="at"><use transform="matrix(0.02222222222222222,0,0,0.02222222222222222,0,0)" xlink:href="#bU"/><use transform="matrix(0.02222222222222222,0,0,0.02222222222222222,13.177777777777775,0)" xlink:href="#bR"/><use transform="matrix(0.02222222222222222,0,0,0.02222222222222222,24.866666666666664,0)" xlink:href="#bc"/><use transform="matrix(0.02222222222222222,0,0,0.02222222222222222,33.888888888888886,0)" xlink:href="#bR"/><use transform="matrix(0.02222222222222222,0,0,0.02222222222222222,45.577777777777776,0)" xlink:href="#bt"/><use transform="matrix(0.02222222222222222,0,0,0.02222222222222222,58.755555555555546,0)" xlink:href="#bj"/><use transform="matrix(0.02222222222222222,0,0,0.02222222222222222,71.6,0)" xlink:href="#bu"/></g><path d="M490-520c-69 78-147 159-220 234 93 75 176 181 240 286H401c-59-95-136-186-226-250V0H82v-760l93-16v474c70-69 142-144 206-218h109" id="bX"/><path d="M266-100c50-137 84-270 119-420h96C435-330 371-148 306 16 261 129 164 226 4 172l17-75c41 21 118 16 149-11 20-17 39-42 56-79C145-149 66-333 18-520h100c37 148 89 293 148 420" id="bY"/><g id="au"><use transform="matrix(0.02222222222222222,0,0,0.02222222222222222,0,0)" xlink:href="#bz"/><use transform="matrix(0.02222222222222222,0,0,0.02222222222222222,12.888888888888888,0)" xlink:href="#bT"/><use transform="matrix(0.02222222222222222,0,0,0.02222222222222222,25.4,0)" xlink:href="#bT"/><use transform="matrix(0.02222222222222222,0,0,0.02222222222222222,37.91111111111111,0)" xlink:href="#bX"/><use transform="matrix(0.02222222222222222,0,0,0.02222222222222222,49.6,0)" xlink:href="#bF"/><use transform="matrix(0.02222222222222222,0,0,0.02222222222222222,60.62222222222221,0)" xlink:href="#bX"/><use transform="matrix(0.02222222222222222,0,0,0.02222222222222222,71.73333333333333,0)" xlink:href="#bT"/><use transform="matrix(0.02222222222222222,0,0,0.02222222222222222,84.24444444444444,0)" xlink:href="#bY"/></g><path fill="#ced4db" d="M571-481c0 104-59 163-144 191 67 84 137 186 186 290H507c-51-97-115-192-181-272-45 2-94 0-141 1V0H88v-683c49-13 125-17 184-17 175 0 299 58 299 219zm-102-1c0-139-153-139-284-130v261c140 0 284 11 284-131" id="bZ"/><path fill="#ced4db" d="M139-156c0 106 132 93 220 82v-155c-78-22-220-23-220 73zm-94 1c-2-152 173-180 314-148 5-94-26-150-117-150-50 0-101 8-132 20l-11-77c32-13 99-23 151-23 135 0 201 66 200 199V-9C390 1 319 11 247 11 126 11 46-34 45-155" id="ca"/><path fill="#ced4db" d="M761-520C714-334 656-153 588 0h-81c-40-105-86-236-117-357-31 122-76 252-116 357h-81C125-153 67-334 20-520h100c31 138 71 286 118 407 45-126 85-269 117-407h77c30 140 70 281 115 407 46-123 88-268 118-407h96" id="cb"/><path fill="#ced4db" d="M272-700c239 0 385 113 385 353S511 6 272 6C213 6 137 2 88-11v-672c49-13 125-17 184-17zM185-82c28 2 55 3 95 3 179 2 274-95 274-268s-95-270-274-268c-40 0-67 1-95 3v530" id="cc"/><path fill="#ced4db" d="M257 11C121 11 76-66 76-201v-464l93-16v161h197v78H169v240c-1 80 17 131 96 131 43 0 79-13 103-23l18 77c-27 12-82 28-129 28" id="cd"/><g id="av"><use transform="matrix(0.017777777777777778,0,0,0.017777777777777778,0,0)" xlink:href="#bZ"/><use transform="matrix(0.017777777777777778,0,0,0.017777777777777778,11.253333333333334,0)" xlink:href="#ca"/><use transform="matrix(0.017777777777777778,0,0,0.017777777777777778,20.60444444444445,0)" xlink:href="#cb"/><use transform="matrix(0.017777777777777778,0,0,0.017777777777777778,34.488888888888894,0)" xlink:href="#cc"/><use transform="matrix(0.017777777777777778,0,0,0.017777777777777778,46.986666666666665,0)" xlink:href="#ca"/><use transform="matrix(0.017777777777777778,0,0,0.017777777777777778,56.33777777777778,0)" xlink:href="#cd"/><use transform="matrix(0.017777777777777778,0,0,0.017777777777777778,63.55555555555555,0)" xlink:href="#ca"/></g><path fill="#ced4db" d="M95-550c82-33 155-78 210-143h66V0h-93v-564c-41 36-97 64-154 84" id="ce"/><path fill="#ced4db" d="M125-121c39 0 67 30 67 67s-28 67-67 67-67-30-67-67 28-67 67-67zm0-399c39 0 67 30 67 67s-28 67-67 67-67-30-67-67 28-67 67-67" id="cf"/><path fill="#ced4db" d="M284 15C113 15 52-150 52-347s61-362 232-362 232 165 232 362S455 15 284 15zm64-105c75-64 80-230 64-365-11-87-37-172-128-172-152 0-143 232-128 388 8 87 37 172 128 172 25 0 47-8 64-23" id="cg"/><g id="aw"><use transform="matrix(0.017777777777777778,0,0,0.017777777777777778,0,0)" xlink:href="#ce"/><use transform="matrix(0.017777777777777778,0,0,0.017777777777777778,10.097777777777777,0)" xlink:href="#cf"/><use transform="matrix(0.017777777777777778,0,0,0.017777777777777778,14.542222222222222,0)" xlink:href="#cg"/></g></defs></g></svg>