<svg xmlns="http://www.w3.org/2000/svg" xmlns:xlink="http://www.w3.org/1999/xlink" xmlns:lucid="lucid" width="2738.91" height="1342.5"><g transform="translate(127.91430582110083 -79.5)" lucid:page-tab-id="0_0"><path d="M-500 0h3500v1500H-500z" fill="#fff"/><path d="M1460 659.6a6 6 0 0 1 6-6h448a6 6 0 0 1 6 6v272.98a6 6 0 0 1-6 6h-448a6 6 0 0 1-6-6z" stroke="#3a414a" fill="#fff"/><use xlink:href="#a" transform="matrix(1,0,0,1,1472.0000500000315,665.5935821454092) translate(142.12345679012347 118.68576388888889)"/><use xlink:href="#b" transform="matrix(1,0,0,1,1472.0000500000315,665.5935821454092) translate(187.7962962962963 156.0190972222222)"/><path d="M614 299.06a6 6 0 0 1 6-6h414a6 6 0 0 1 6 6V1114a6 6 0 0 1-6 6H620a6 6 0 0 1-6-6z" stroke="#3a414a" fill="#fff"/><use xlink:href="#c" transform="matrix(1,0,0,1,626,305.0569573764579) translate(133.80864197530866 413.84201388888886)"/><path d="M940 1066a6 6 0 0 1 6-6h88a6 6 0 0 1 6 6v48a6 6 0 0 1-6 6h-88a6 6 0 0 1-6-6z" stroke="#000" stroke-opacity="0" fill="#fff" fill-opacity="0"/><use xlink:href="#d" transform="matrix(1,0,0,1,945,1065) translate(30.895061728395063 30.277777777777775)"/><path d="M1460 106a6 6 0 0 1 6-6h448a6 6 0 0 1 6 6v474.1a6 6 0 0 1-6 6h-448a6 6 0 0 1-6-6z" stroke="#3a414a" fill="#fff"/><use xlink:href="#e" transform="matrix(1,0,0,1,1472.00005,112) translate(160.2283950617284 220.21701388888889)"/><use xlink:href="#f" transform="matrix(1,0,0,1,1472.00005,112) translate(193.0679012345679 257.5503472222222)"/><path d="M2140 826a6 6 0 0 1 6-6h328a6 6 0 0 1 6 6v445.43a6 6 0 0 1-6 6h-328a6 6 0 0 1-6-6z" stroke="#3a414a" fill="#fff"/><use xlink:href="#g" transform="matrix(1,0,0,1,2152.0001,832) translate(111.33333333333334 201.20138888888889)"/><use xlink:href="#h" transform="matrix(1,0,0,1,2152.0001,832) translate(120.88271604938274 238.5347222222222)"/><path d="M940 1006a6 6 0 0 1 6-6h88a6 6 0 0 1 6 6v48a6 6 0 0 1-6 6h-88a6 6 0 0 1-6-6z" stroke="#000" stroke-opacity="0" fill="#fff" fill-opacity="0"/><use xlink:href="#i" transform="matrix(1,0,0,1,945,1005) translate(25.308641975308646 30.277777777777775)"/><path d="M940 946a6 6 0 0 1 6-6h88a6 6 0 0 1 6 6v48a6 6 0 0 1-6 6h-88a6 6 0 0 1-6-6z" stroke="#000" stroke-opacity="0" fill="#fff" fill-opacity="0"/><use xlink:href="#j" transform="matrix(1,0,0,1,945,945) translate(28.95061728395062 30.277777777777775)"/><path d="M900 886a6 6 0 0 1 6-6h128a6 6 0 0 1 6 6v48a6 6 0 0 1-6 6H906a6 6 0 0 1-6-6z" stroke="#000" stroke-opacity="0" fill="#fff" fill-opacity="0"/><use xlink:href="#k" transform="matrix(1,0,0,1,905,885) translate(22.43827160493828 30.277777777777775)"/><path d="M940 826a6 6 0 0 1 6-6h88a6 6 0 0 1 6 6v48a6 6 0 0 1-6 6h-88a6 6 0 0 1-6-6z" stroke="#000" stroke-opacity="0" fill="#fff" fill-opacity="0"/><use xlink:href="#l" transform="matrix(1,0,0,1,945,825) translate(20.92592592592593 30.277777777777775)"/><path d="M940 767.45a6 6 0 0 1 6-6h88a6 6 0 0 1 6 6v48a6 6 0 0 1-6 6h-88a6 6 0 0 1-6-6z" stroke="#000" stroke-opacity="0" fill="#fff" fill-opacity="0"/><use xlink:href="#m" transform="matrix(1,0,0,1,945,766.4541443145008) translate(27.746913580246915 30.277777777777775)"/><path d="M940 708.9a6 6 0 0 1 6-6h88a6 6 0 0 1 6 6v48a6 6 0 0 1-6 6h-88a6 6 0 0 1-6-6z" stroke="#000" stroke-opacity="0" fill="#fff" fill-opacity="0"/><use xlink:href="#n" transform="matrix(1,0,0,1,945,707.9082886290016) translate(28.981481481481485 30.277777777777775)"/><path d="M940 532.1a6 6 0 0 1 6-6h88a6 6 0 0 1 6 6v48a6 6 0 0 1-6 6h-88a6 6 0 0 1-6-6z" stroke="#000" stroke-opacity="0" fill="#fff" fill-opacity="0"/><use xlink:href="#o" transform="matrix(1,0,0,1,945,531.1139147529158) translate(21.604938271604944 30.277777777777775)"/><path d="M940 354.6a6 6 0 0 1 6-6h88a6 6 0 0 1 6 6v48a6 6 0 0 1-6 6h-88a6 6 0 0 1-6-6z" stroke="#000" stroke-opacity="0" fill="#fff" fill-opacity="0"/><use xlink:href="#p" transform="matrix(1,0,0,1,945,353.61240005569516) translate(19.135802469135804 30.277777777777775)"/><path d="M940 472.1a6 6 0 0 1 6-6h88a6 6 0 0 1 6 6v48a6 6 0 0 1-6 6h-88a6 6 0 0 1-6-6z" stroke="#000" stroke-opacity="0" fill="#fff" fill-opacity="0"/><use xlink:href="#q" transform="matrix(1,0,0,1,945,471.1139147529158) translate(21.574074074074076 30.277777777777775)"/><path d="M960 412.1a6 6 0 0 1 6-6h68a6 6 0 0 1 6 6v48a6 6 0 0 1-6 6h-68a6 6 0 0 1-6-6z" stroke="#000" stroke-opacity="0" fill="#fff" fill-opacity="0"/><use xlink:href="#r" transform="matrix(1,0,0,1,965,411.1139147529158) translate(18.395061728395063 30.277777777777775)"/><path d="M940 304.33a6 6 0 0 1 6-6h88a6 6 0 0 1 6 6v48a6 6 0 0 1-6 6h-88a6 6 0 0 1-6-6z" stroke="#000" stroke-opacity="0" fill="#fff" fill-opacity="0"/><use xlink:href="#s" transform="matrix(1,0,0,1,945,303.33333333333337) translate(23.45679012345679 30.277777777777775)"/><path d="M614 707.28a6 6 0 0 1 6-6h88a6 6 0 0 1 6 6v48a6 6 0 0 1-6 6h-88a6 6 0 0 1-6-6z" stroke="#000" stroke-opacity="0" fill="#fff" fill-opacity="0"/><use xlink:href="#t" transform="matrix(1,0,0,1,619,706.2766955674649) translate(11.759259259259267 30.277777777777775)"/><path d="M614 990.76a6 6 0 0 1 6-6h68a6 6 0 0 1 6 6v48a6 6 0 0 1-6 6h-68a6 6 0 0 1-6-6z" stroke="#000" stroke-opacity="0" fill="#fff" fill-opacity="0"/><use xlink:href="#u" transform="matrix(1,0,0,1,619,989.7602085025906) translate(28.24074074074074 30.277777777777775)"/><path d="M160 626a6 6 0 0 1 6-6h228a6 6 0 0 1 6 6v208a6 6 0 0 1-6 6H166a6 6 0 0 1-6-6z" stroke="#3a414a" fill="#fff"/><use xlink:href="#v" transform="matrix(1,0,0,1,171.9999499999749,632) translate(46.592592592592624 88.70833333333333)"/><use xlink:href="#w" transform="matrix(1,0,0,1,171.9999499999749,632) translate(58.4814814814815 120.70833333333331)"/><path d="M340 706a6 6 0 0 1 6-6h48a6 6 0 0 1 6 6v48a6 6 0 0 1-6 6h-48a6 6 0 0 1-6-6z" stroke="#000" stroke-opacity="0" fill="#fff" fill-opacity="0"/><use xlink:href="#x" transform="matrix(1,0,0,1,344.9999499999749,705) translate(16.358024691358025 30.277777777777775)"/><path d="M578.55 726.28v10h-51.12v-10zM405 735v-10h57.06v10z" stroke="#000" stroke-width=".05"/><path d="M405.13 735H400v-10h5.13z"/><path d="M405.15 735.02h-5.17V725h5.17zm-5.13-10V735h5.08V725z" stroke="#000" stroke-width=".05"/><path d="M597.82 731.28l-14.27 4.63v-9.26z"/><path d="M614 731.28l-35.45 11.5v-23.02z" stroke="#000" stroke-width=".05"/><use xlink:href="#y" transform="matrix(1,0,0,1,462.05777927342575,716.6666666666666) translate(0 17.77777777777778)"/><use xlink:href="#z" transform="matrix(1,0,0,1,462.05777927342575,716.6666666666666) translate(30.864197530864196 17.77777777777778)"/><path d="M160 635.96a6 6 0 0 1 6-6h28a6 6 0 0 1 6 6v48a6 6 0 0 1-6 6h-28a6 6 0 0 1-6-6z" stroke="#000" stroke-opacity="0" fill="#fff" fill-opacity="0"/><use xlink:href="#A" transform="matrix(1,0,0,1,164.99994999997477,634.9598089895208) translate(7.006172839506174 30.277777777777775)"/><path d="M160 708.9a6 6 0 0 1 6-6h48a6 6 0 0 1 6 6v48a6 6 0 0 1-6 6h-48a6 6 0 0 1-6-6z" stroke="#000" stroke-opacity="0" fill="#fff" fill-opacity="0"/><use xlink:href="#B" transform="matrix(1,0,0,1,164.9999499999749,707.9082886290016) translate(9.598765432098768 30.277777777777775)"/><path d="M165 783.32a3.22 3.22 0 0 0-5 2.68v43.5a3.22 3.22 0 0 0 5 2.68l31.74-21.1a4 4 0 0 0 0-6.65z" stroke="#000" fill="#fff"/><path d="M160 807.75c0 7.53-6.1 13.64-13.64 13.64-7.54 0-13.65-6.12-13.65-13.65s6.12-13.64 13.66-13.64c7.53 0 13.64 6.12 13.64 13.65z" stroke="#000" fill="#fff"/><path d="M160 904.26a6 6 0 0 1 6-6h228a6 6 0 0 1 6 6v208a6 6 0 0 1-6 6H166a6 6 0 0 1-6-6z" stroke="#3a414a" fill="#fff"/><use xlink:href="#C" transform="matrix(1,0,0,1,172,910.2599987380723) translate(60.666666666666686 100.95833333333333)"/><path d="M340 990.76a6 6 0 0 1 6-6h48a6 6 0 0 1 6 6v48a6 6 0 0 1-6 6h-48a6 6 0 0 1-6-6z" stroke="#000" stroke-opacity="0" fill="#fff" fill-opacity="0"/><use xlink:href="#D" transform="matrix(1,0,0,1,345,989.7602085025904) translate(2.253086419753089 30.277777777777775)"/><path d="M160 1044.26a6 6 0 0 1 6-6h48a6 6 0 0 1 6 6v48a6 6 0 0 1-6 6h-48a6 6 0 0 1-6-6z" stroke="#000" stroke-opacity="0" fill="#fff" fill-opacity="0"/><use xlink:href="#E" transform="matrix(1,0,0,1,164.9999499999749,1043.2599987380722) translate(2.83950617283951 30.277777777777775)"/><path d="M165 921.4a3.22 3.22 0 0 0-5 2.68v43.5a3.22 3.22 0 0 0 5 2.67l31.74-21.1a4 4 0 0 0 0-6.65z" stroke="#000" fill="#fff"/><path d="M160 945.83c0 7.53-6.1 13.64-13.64 13.64-7.54 0-13.65-6.1-13.65-13.64 0-7.54 6.12-13.65 13.66-13.65 7.53 0 13.64 6.1 13.64 13.65z" stroke="#000" fill="#fff"/><path d="M2140 1066a6 6 0 0 1 6-6h88a6 6 0 0 1 6 6v48a6 6 0 0 1-6 6h-88a6 6 0 0 1-6-6z" stroke="#000" stroke-opacity="0" fill="#fff" fill-opacity="0"/><use xlink:href="#F" transform="matrix(1,0,0,1,2145.0001,1065.0000000000002) translate(12.962962962962969 30.277777777777775)"/><path d="M1460 167.67a6 6 0 0 1 6-6h88a6 6 0 0 1 6 6V219a6 6 0 0 1-6 6h-88a6 6 0 0 1-6-6z" stroke="#000" stroke-opacity="0" fill="#fff" fill-opacity="0"/><use xlink:href="#G" transform="matrix(1,0,0,1,1465.00005,166.66666666666666) translate(15.432098765432105 31.277777777777775)"/><path d="M1460 532.1a6 6 0 0 1 6-6h88a6 6 0 0 1 6 6v48a6 6 0 0 1-6 6h-88a6 6 0 0 1-6-6z" stroke="#000" stroke-opacity="0" fill="#fff" fill-opacity="0"/><use xlink:href="#H" transform="matrix(1,0,0,1,1465.00005,531.1139147529158) translate(15.432098765432105 30.277777777777775)"/><path d="M1460 472.1a6 6 0 0 1 6-6h88a6 6 0 0 1 6 6v48a6 6 0 0 1-6 6h-88a6 6 0 0 1-6-6z" stroke="#000" stroke-opacity="0" fill="#fff" fill-opacity="0"/><use xlink:href="#I" transform="matrix(1,0,0,1,1465.00005,471.1139147529158) translate(15.432098765432105 30.277777777777775)"/><path d="M1460 354.88a6 6 0 0 1 6-6h88a6 6 0 0 1 6 6v48a6 6 0 0 1-6 6h-88a6 6 0 0 1-6-6z" stroke="#000" stroke-opacity="0" fill="#fff" fill-opacity="0"/><use xlink:href="#p" transform="matrix(1,0,0,1,1465.00005,353.87767432166993) translate(19.135802469135804 30.277777777777775)"/><path d="M1460 412.1a6 6 0 0 1 6-6h88a6 6 0 0 1 6 6v48a6 6 0 0 1-6 6h-88a6 6 0 0 1-6-6z" stroke="#000" stroke-opacity="0" fill="#fff" fill-opacity="0"/><use xlink:href="#J" transform="matrix(1,0,0,1,1465.00005,411.1139147529158) translate(19.135802469135804 30.277777777777775)"/><path d="M1460 884.58a6 6 0 0 1 6-6h68a6 6 0 0 1 6 6v48a6 6 0 0 1-6 6h-68a6 6 0 0 1-6-6z" stroke="#000" stroke-opacity="0" fill="#fff" fill-opacity="0"/><use xlink:href="#K" transform="matrix(1,0,0,1,1465.000050000025,883.5792637102973) translate(20.24691358024692 30.277777777777775)"/><path d="M1460 827.45a6 6 0 0 1 6-6h68a6 6 0 0 1 6 6v48a6 6 0 0 1-6 6h-68a6 6 0 0 1-6-6z" stroke="#000" stroke-opacity="0" fill="#fff" fill-opacity="0"/><use xlink:href="#l" transform="matrix(1,0,0,1,1465.000050000025,826.4541443145008) translate(10.925925925925931 30.277777777777775)"/><path d="M1460 767.45a6 6 0 0 1 6-6h68a6 6 0 0 1 6 6v48a6 6 0 0 1-6 6h-68a6 6 0 0 1-6-6z" stroke="#000" stroke-opacity="0" fill="#fff" fill-opacity="0"/><use xlink:href="#m" transform="matrix(1,0,0,1,1465.000050000025,766.4541443145008) translate(17.746913580246915 30.277777777777775)"/><path d="M1460 707.45a6 6 0 0 1 6-6h68a6 6 0 0 1 6 6v48a6 6 0 0 1-6 6h-68a6 6 0 0 1-6-6z" stroke="#000" stroke-opacity="0" fill="#fff" fill-opacity="0"/><use xlink:href="#L" transform="matrix(1,0,0,1,1465.000050000025,706.4541443145008) translate(21.419753086419753 30.277777777777775)"/><path d="M1460 659.6a6 6 0 0 1 6-6h68a6 6 0 0 1 6 6v48a6 6 0 0 1-6 6h-68a6 6 0 0 1-6-6z" stroke="#000" stroke-opacity="0" fill="#fff" fill-opacity="0"/><use xlink:href="#M" transform="matrix(1,0,0,1,1465.00005,658.5935821454092) translate(18.95061728395062 30.277777777777775)"/><path d="M1649.2 935a3.22 3.22 0 0 0 2.7 5h43.5a3.22 3.22 0 0 0 2.67-5l-21.1-31.74a4 4 0 0 0-6.65 0z" stroke="#000" fill="#fff"/><path d="M1673.64 940c7.54 0 13.65 6.1 13.65 13.64 0 7.54-6.12 13.65-13.66 13.65-7.53 0-13.64-6.12-13.64-13.66 0-7.53 6.1-13.64 13.64-13.64z" stroke="#000" fill="#fff"/><path d="M2140 1206a6 6 0 0 1 6-6h108a6 6 0 0 1 6 6v48a6 6 0 0 1-6 6h-108a6 6 0 0 1-6-6z" stroke="#000" stroke-opacity="0" fill="#fff" fill-opacity="0"/><use xlink:href="#N" transform="matrix(1,0,0,1,2145,1205.0000000000002) translate(19.19753086419753 30.277777777777775)"/><path d="M2140 1136a6 6 0 0 1 6-6h88a6 6 0 0 1 6 6v48a6 6 0 0 1-6 6h-88a6 6 0 0 1-6-6z" stroke="#000" stroke-opacity="0" fill="#fff" fill-opacity="0"/><use xlink:href="#O" transform="matrix(1,0,0,1,2145.0001,1135.0000000000002) translate(18.518518518518526 30.277777777777775)"/><path d="M2140 926a6 6 0 0 1 6-6h88a6 6 0 0 1 6 6v48a6 6 0 0 1-6 6h-88a6 6 0 0 1-6-6z" stroke="#000" stroke-opacity="0" fill="#fff" fill-opacity="0"/><use xlink:href="#P" transform="matrix(1,0,0,1,2145.0001,925.0000000000002) translate(20.95679012345679 30.277777777777775)"/><path d="M2140 996a6 6 0 0 1 6-6h88a6 6 0 0 1 6 6v48a6 6 0 0 1-6 6h-88a6 6 0 0 1-6-6z" stroke="#000" stroke-opacity="0" fill="#fff" fill-opacity="0"/><use xlink:href="#Q" transform="matrix(1,0,0,1,2145,995.0000000000002) translate(22.19135802469136 30.277777777777775)"/><path d="M2380 1210.1a6 6 0 0 1 6-6h88a6 6 0 0 1 6 6v48a6 6 0 0 1-6 6h-88a6 6 0 0 1-6-6z" stroke="#000" stroke-opacity="0" fill="#fff" fill-opacity="0"/><use xlink:href="#R" transform="matrix(1,0,0,1,2385,1209.1070185246642) translate(15.432098765432102 30.277777777777775)"/><path d="M2380 1138.05a6 6 0 0 1 6-6h88a6 6 0 0 1 6 6v48a6 6 0 0 1-6 6h-88a6 6 0 0 1-6-6z" stroke="#000" stroke-opacity="0" fill="#fff" fill-opacity="0"/><use xlink:href="#S" transform="matrix(1,0,0,1,2385,1137.0535092623322) translate(8.024691358024697 30.277777777777775)"/><path d="M2380 1062.03a6 6 0 0 1 6-6h88a6 6 0 0 1 6 6v48a6 6 0 0 1-6 6h-88a6 6 0 0 1-6-6z" stroke="#000" stroke-opacity="0" fill="#fff" fill-opacity="0"/><use xlink:href="#T" transform="matrix(1,0,0,1,2385,1061.026754631166) translate(8.024691358024697 30.277777777777775)"/><path d="M2380 989.7a6 6 0 0 1 6-6h88a6 6 0 0 1 6 6v48a6 6 0 0 1-6 6h-88a6 6 0 0 1-6-6z" stroke="#000" stroke-opacity="0" fill="#fff" fill-opacity="0"/><use xlink:href="#U" transform="matrix(1,0,0,1,2385,988.7098680532218) translate(8.024691358024697 30.277777777777775)"/><path d="M2380 917.4a6 6 0 0 1 6-6h88a6 6 0 0 1 6 6v48a6 6 0 0 1-6 6h-88a6 6 0 0 1-6-6z" stroke="#000" stroke-opacity="0" fill="#fff" fill-opacity="0"/><use xlink:href="#V" transform="matrix(1,0,0,1,2385,916.3929814752777) translate(9.845679012345684 30.277777777777775)"/><path d="M1460 107.67a6 6 0 0 1 6-6h48a6 6 0 0 1 6 6v48a6 6 0 0 1-6 6h-48a6 6 0 0 1-6-6z" stroke="#000" stroke-opacity="0" fill="#fff" fill-opacity="0"/><use xlink:href="#A" transform="matrix(1,0,0,1,1465.0000500000315,106.66666666666666) translate(17.006172839506174 30.277777777777775)"/><path d="M1111.73 437.1H1041v-2h70.73zm329.77 0h-276.74v-2h276.74z" stroke="#e81313" stroke-width=".05" fill="#e81313"/><path d="M1041.03 437.1H1040v-2h1.03z" fill="#e81313"/><path d="M1041.05 437.14h-1.08v-2.05h1.08zm-1.02-2v1.95h.97v-1.96z" stroke="#e81313" stroke-width=".05" fill="#e81313"/><path d="M1456.76 436.1l-14.26 4.65v-9.27z" fill="#e81313"/><path d="M1460 436.1l-18.5 6.03V430.1zm-16.5 3.27l10.03-3.26-10.03-3.25z" stroke="#e81313" stroke-width=".05" fill="#e81313"/><use xlink:href="#W" transform="matrix(1,0,0,1,1111.7311326562183,422.78058141958246) translate(0 17.77777777777778)"/><use xlink:href="#z" transform="matrix(1,0,0,1,1111.7311326562183,422.78058141958246) translate(18.51851851851852 17.77777777777778)"/><path d="M1111.27 497.1H1041v-2h70.27zm330.23 0h-277.2v-2h277.2z" stroke="#e81313" stroke-width=".05" fill="#e81313"/><path d="M1041.03 497.1H1040v-2h1.03z" fill="#e81313"/><path d="M1041.05 497.14h-1.08v-2.05h1.08zm-1.02-2v1.95h.97v-1.96z" stroke="#e81313" stroke-width=".05" fill="#e81313"/><path d="M1456.76 496.1l-14.26 4.65v-9.27z" fill="#e81313"/><path d="M1460 496.1l-18.5 6.03V490.1zm-16.5 3.27l10.03-3.26-10.03-3.25z" stroke="#e81313" stroke-width=".05" fill="#e81313"/><use xlink:href="#W" transform="matrix(1,0,0,1,1111.2726953082627,482.78058141958246) translate(0 17.77777777777778)"/><use xlink:href="#z" transform="matrix(1,0,0,1,1111.2726953082627,482.78058141958246) translate(18.51851851851852 17.77777777777778)"/><path d="M1040.5 378.6h255.88a.13.13 0 0 1 .13.14.13.13 0 0 0 .14.14h146.98" stroke="#e81313" fill="none"/><path d="M1040.5 379.1h-.5v-1h.5z" stroke="#e81313" stroke-width=".05" fill="#e81313"/><path d="M1458.38 378.88l-14.26 4.63v-9.26z" stroke="#e81313" fill="#e81313"/><path d="M1040.5 556.1h403.12" stroke="#e81313" fill="none"/><path d="M1040.5 556.6h-.5v-1h.5z" stroke="#e81313" stroke-width=".05" fill="#e81313"/><path d="M1458.38 556.1l-14.26 4.65v-9.27z" stroke="#e81313" fill="#e81313"/><path d="M1223.5 912H1042v-4h181.5zm213.76 0H1276.5v-4h160.76z" stroke="#e81313" stroke-width=".05" fill="#e81313"/><path d="M1042.05 912H1040v-4h2.05z" fill="#e81313"/><path d="M1042.08 912.02h-2.1V908h2.1zm-2.05-4V912h2V908z" stroke="#e81313" stroke-width=".05" fill="#e81313"/><path d="M1453.53 910l-14.27 4.63v-9.26z" fill="#e81313"/><path d="M1460 910l-22.74 7.4v-14.8zm-18.74 1.88l5.8-1.88-5.8-1.88z" stroke="#e81313" stroke-width=".05" fill="#e81313"/><use xlink:href="#X" transform="matrix(1,0,0,1,1223.4866809890393,896.666666290455) translate(0 17.777777777777775)"/><use xlink:href="#Y" transform="matrix(1,0,0,1,1223.4866809890393,896.666666290455) translate(18.518518518518515 17.777777777777775)"/><path d="M1040.5 850h403.12" stroke="#e81313" fill="none"/><path d="M1040.5 850.5h-.5v-1h.5z" stroke="#e81313" stroke-width=".05" fill="#e81313"/><path d="M1458.38 850l-14.27 4.63.02-9.26z" stroke="#e81313" fill="#e81313"/><path d="M1040.5 791.45h403.12" stroke="#e81313" fill="none"/><path d="M1040.5 791.95h-.5v-1h.5z" stroke="#e81313" stroke-width=".05" fill="#e81313"/><path d="M1458.38 791.45l-14.26 4.64v-9.28z" stroke="#e81313" fill="#e81313"/><path d="M1040.5 732.9h403.12" stroke="#e81313" fill="none"/><path d="M1040.5 733.4h-.5v-1h.5z" stroke="#e81313" stroke-width=".05" fill="#e81313"/><path d="M1458.38 732.9l-14.27 4.64.02-9.27z" stroke="#e81313" fill="#e81313"/><path d="M-80 106a6 6 0 0 1 6-6h468a6 6 0 0 1 6 6v307.6a6 6 0 0 1-6 6H-74a6 6 0 0 1-6-6z" stroke="#3a414a" fill="#fff"/><use xlink:href="#Z" transform="matrix(1,0,0,1,-68,112) translate(193.4320987654321 135.88888888888889)"/><use xlink:href="#aa" transform="matrix(1,0,0,1,-68,112) translate(190.88271604938274 173.2222222222222)"/><path d="M143.62 733.4h-57.6l-.88.08-.84.2-.8.33-.73.46-.66.56-.55.66-.45.73-.33.8-.2.85-.07.88v495.05l.07.88.2.84.33.8.45.73.56.66.67.55.73.45.8.33.84.2.88.07h1027.96l.88-.07.84-.2.8-.33.73-.45.66-.56.55-.67.45-.73.33-.8.2-.84.07-.88v-197.96l-.07-.88-.2-.84-.33-.8-.45-.73-.56-.66-.67-.55-.73-.45-.8-.33-.84-.2-.88-.07h-73.48v-1h73.52l1 .08 1 .24.93.4.87.52.78.66.66.78.53.87.38.94.24.98.08 1v198.04l-.08 1-.24 1-.4.93-.52.87-.66.78-.78.66-.87.53-.94.38-.98.24-1 .08H85.98l-1-.08-1-.24-.93-.4-.87-.52-.78-.66-.66-.78-.53-.87-.38-.94-.24-.98-.08-1V738.9l.08-1 .24-1 .4-.94.52-.87.66-.8.78-.65.87-.53.94-.4.98-.23 1-.1h57.64z" stroke="#000" stroke-width=".05"/><path d="M1040.5 1030.5h-.5v-1h.5z"/><path d="M1040.54 1030.53h-.57v-1.06h.57zm-.5-1v.94h.45v-.94z" stroke="#000" stroke-width=".05"/><path d="M158.38 732.9l-14.26 4.64v-9.27z"/><path d="M160 732.9l-16.38 5.33V727.6zm-15.38 3.96l12.14-3.95-12.14-3.94z" stroke="#000" stroke-width=".05"/><path d="M1820 319.06a6 6 0 0 1 6-6h88a6 6 0 0 1 6 6v48a6 6 0 0 1-6 6h-88a6 6 0 0 1-6-6z" stroke="#000" stroke-opacity="0" fill="#fff" fill-opacity="0"/><use xlink:href="#ab" transform="matrix(1,0,0,1,1825.00005,318.0569573764579) translate(30.185185185185187 30.277777777777775)"/><path d="M1820 500.44a6 6 0 0 1 6-6h88a6 6 0 0 1 6 6v48a6 6 0 0 1-6 6h-88a6 6 0 0 1-6-6z" stroke="#000" stroke-opacity="0" fill="#fff" fill-opacity="0"/><use xlink:href="#ac" transform="matrix(1,0,0,1,1825.00005,499.43883716083496) translate(30.185185185185187 30.277777777777775)"/><path d="M1820 767.45a6 6 0 0 1 6-6h88a6 6 0 0 1 6 6v48a6 6 0 0 1-6 6h-88a6 6 0 0 1-6-6z" stroke="#000" stroke-opacity="0" fill="#fff" fill-opacity="0"/><use xlink:href="#ad" transform="matrix(1,0,0,1,1825,766.4541443145135) translate(22.19135802469136 30.277777777777775)"/><path d="M2035 943.8l.03.35.03.15.06.15.08.13.1.12.12.1.13.08.15.06.15.03.35.03h68.35v10h-68.75l-1.52-.12-1.68-.4-1.6-.66-1.47-.9-1.32-1.13-1.1-1.32-.9-1.48-.68-1.6-.4-1.68-.12-1.52V751.9h10zm-9.28-424.24l1.68.4 1.6.66 1.47.9 1.32 1.13 1.1 1.3.9 1.5.68 1.58.4 1.7.12 1.5v192.32h-10v-191.9l-.03-.37-.03-.14-.06-.15-.08-.14-.1-.12-.12-.1-.13-.08-.15-.06-.15-.03-.35-.03H1925v-10h99.2z" stroke="#6db1ff" stroke-width=".05" fill="#6db1ff"/><path d="M1925.13 529.44H1920v-10h5.13z" fill="#6db1ff"/><path d="M1925.15 529.46h-5.18V519.4h5.18zm-5.13-10v9.95h5.08v-9.94z" stroke="#6db1ff" stroke-width=".05" fill="#6db1ff"/><path d="M2123.82 950l-14.27 4.63v-9.26z" fill="#6db1ff"/><path d="M2140 950l-35.45 11.52v-23.04z" stroke="#6db1ff" stroke-width=".05" fill="#6db1ff"/><use xlink:href="#ae" transform="matrix(1,0,0,1,2016.41982808642,722.552751913751) translate(0 19.555555555555557)"/><path d="M1970 806.45v207.3a6 6 0 0 0 6 6h78.87a.13.13 0 0 1 .13.12.13.13 0 0 0 .13.13h49.42" stroke="#1071e5" stroke-width="10" fill="none"/><path d="M1966.84 800.94l3.16.5 3.16-.5 1.84-.95v6.58h-10v-6.6z" stroke="#1071e5" stroke-width=".05" fill="#1071e5"/><path d="M2123.82 1020l-14.27 4.63v-9.27z" stroke="#1071e5" stroke-width="10" fill="#1071e5"/><path d="M549.95 1014.76c0 2.75-2.22 4.98-4.97 4.98-2.75 0-4.98-2.23-4.98-4.98 0-2.75 2.23-4.98 4.98-4.98 2.75 0 4.97 2.23 4.97 4.98z" stroke="#000" stroke-opacity="0"/><path d="M2380 846a6 6 0 0 1 6-6h88a6 6 0 0 1 6 6v48a6 6 0 0 1-6 6h-88a6 6 0 0 1-6-6z" stroke="#000" stroke-opacity="0" fill="#fff" fill-opacity="0"/><use xlink:href="#af" transform="matrix(1,0,0,1,2385,845) translate(12.345679012345684 30.277777777777775)"/><use xlink:href="#ag" transform="matrix(1,0,0,1,2385,845) translate(61.66666666666666 30.277777777777775)"/><path d="M2480.5 870h83.12" stroke="#3a414a" fill="none"/><path d="M2480.5 870.5h-.5v-1h.5z" stroke="#3a414a" stroke-width=".05" fill="#3a414a"/><path d="M2578.38 870l-14.26 4.63v-9.26z" stroke="#3a414a" fill="#3a414a"/><path d="M2511.3 946.4H2485v-10h26.32zm33.25 0H2536v-10h8.55z" stroke="#3a414a" stroke-width=".05" fill="#3a414a"/><path d="M2485.13 946.4H2480v-10h5.13z" fill="#3a414a"/><path d="M2485.15 946.42h-5.18v-10.05h5.18zm-5.13-10v9.95h5.08v-9.95z" stroke="#3a414a" stroke-width=".05" fill="#3a414a"/><path d="M2563.82 941.4l-14.27 4.63v-9.27z" fill="#3a414a"/><path d="M2580 941.4l-35.45 11.5V929.9z" stroke="#3a414a" stroke-width=".05" fill="#3a414a"/><use xlink:href="#ah" transform="matrix(1,0,0,1,2511.3150478573248,928.0596481419443) translate(0 17.77777777777778)"/><path d="M2516.77 1017.2h-33.27v-7h33.27zm34.14 0h-21.8v-7h21.8z" stroke="#3a414a" stroke-width=".05" fill="#3a414a"/><path d="M2483.6 1017.2h-3.6v-7h3.6z" fill="#3a414a"/><path d="M2483.6 1017.24h-3.63v-7.06h3.64zm-3.57-7v6.94h3.53v-6.94z" stroke="#3a414a" stroke-width=".05" fill="#3a414a"/><path d="M2568.67 1013.7l-14.26 4.64v-9.26z" fill="#3a414a"/><path d="M2580 1013.7l-29.1 9.46v-18.9z" stroke="#3a414a" stroke-width=".05" fill="#3a414a"/><use xlink:href="#ai" transform="matrix(1,0,0,1,2516.769698979761,1000.3765347198885) translate(0 17.77777777777778)"/><path d="M2517.23 1089.53h-33.73v-7h33.73zm33.68 0h-21.33v-7h21.34z" stroke="#3a414a" stroke-width=".05" fill="#3a414a"/><path d="M2483.6 1089.53h-3.6v-7h3.6z" fill="#3a414a"/><path d="M2483.6 1089.55h-3.63v-7.05h3.64zm-3.57-7v6.95h3.53v-6.95z" stroke="#3a414a" stroke-width=".05" fill="#3a414a"/><path d="M2568.67 1086.03l-14.26 4.63v-9.27z" fill="#3a414a"/><path d="M2580 1086.03l-29.1 9.45v-18.9z" stroke="#3a414a" stroke-width=".05" fill="#3a414a"/><use xlink:href="#ai" transform="matrix(1,0,0,1,2517.228136327717,1072.6934212978329) translate(0 17.77777777777778)"/><path d="M2515.85 1165.55h-32.35v-7h32.35zm35.06 0h-22.7v-7h22.7z" stroke="#3a414a" stroke-width=".05" fill="#3a414a"/><path d="M2483.6 1165.55h-3.6v-7h3.6z" fill="#3a414a"/><path d="M2483.6 1165.58h-3.63v-7.05h3.64zm-3.57-7v6.95h3.53v-6.95z" stroke="#3a414a" stroke-width=".05" fill="#3a414a"/><path d="M2568.67 1162.05l-14.26 4.64v-9.28z" fill="#3a414a"/><path d="M2580 1162.05l-29.1 9.46v-18.9z" stroke="#3a414a" stroke-width=".05" fill="#3a414a"/><use xlink:href="#ai" transform="matrix(1,0,0,1,2515.8528242838497,1148.720175928999) translate(0 17.77777777777778)"/><path d="M2515.85 1237.6h-32.35v-7h32.35zm35.06 0h-22.7v-7h22.7z" stroke="#3a414a" stroke-width=".05" fill="#3a414a"/><path d="M2483.6 1237.6h-3.6v-7h3.6z" fill="#3a414a"/><path d="M2483.6 1237.63h-3.63v-7.05h3.64zm-3.57-7v6.95h3.53v-6.95z" stroke="#3a414a" stroke-width=".05" fill="#3a414a"/><path d="M2568.67 1234.1l-14.26 4.64v-9.27z" fill="#3a414a"/><path d="M2580 1234.1l-29.1 9.46v-18.9z" stroke="#3a414a" stroke-width=".05" fill="#3a414a"/><use xlink:href="#ai" transform="matrix(1,0,0,1,2515.8528242838497,1220.773685191331) translate(0 17.77777777777778)"/><path d="M2 1293.98l.07.88.2.84.33.8.45.73.56.66.67.55.73.45.8.33.84.2.88.07h1166.46l.88-.07.84-.2.8-.33.73-.45.66-.56.55-.67.45-.73.33-.8.2-.84.07-.88V976.02l-.07-.88-.2-.84-.33-.8-.45-.73-.56-.66-.67-.55-.73-.45-.8-.33-.84-.2-.88-.07H1040.5v-1h133.52l1 .08 1 .24.93.4.87.52.78.66.66.78.53.87.38.94.24.98.08 1v318.04l-.08 1-.24 1-.4.93-.52.87-.66.78-.78.66-.87.53-.94.38-.98.24-1 .08H7.48l-1-.08-1-.24-.93-.4-.87-.52-.78-.66-.66-.78-.53-.87-.38-.94-.24-.98-.08-1V436h1z" stroke="#e81313" stroke-width=".05" fill="#e81313"/><path d="M1040.5 970.5h-.5v-1h.5z" fill="#e81313"/><path d="M1040.54 970.52h-.57v-1.04h.57zm-.5-1v.96h.45v-.96z" stroke="#e81313" stroke-width=".05" fill="#e81313"/><path d="M6.13 435.5h-9.27l4.64-14.27z" fill="#e81313"/><path d="M6.82 436H-3.82l5.32-16.4zm-9.27-1h7.9L1.5 422.85z" stroke="#e81313" stroke-width=".05" fill="#e81313"/><path d="M1080.02 1095.48L1080 1194a6 6 0 0 1-6 6H126a6 6 0 0 1-6-6v-119.74a6 6 0 0 1 6-6h17.62" stroke="#000" fill="none"/><path d="M1080.02 1094.98l.5-.08v.6h-1v-.7z" stroke="#000" stroke-width=".05"/><path d="M158.38 1068.26l-14.26 4.63v-9.28z" stroke="#000"/><path d="M539.03 1013.94v2l-31.98-.04v-2zM401 1015.76v-2h53.03v2z" stroke="#000" stroke-width=".05"/><path d="M401.03 1015.76H400v-2h1.03z"/><path d="M401.05 1015.8h-1.07v-2.06h1.07zm-1.03-2v1.94h.98v-1.96z" stroke="#000" stroke-width=".05"/><path d="M540 1014.76l.2 1.18H539v-2h1.27z"/><path d="M540.03 1014.76l.2 1.2h-1.25v-2.05h1.32zm-1-.8v1.95h1.13l-.2-1.14.27-.8z" stroke="#000" stroke-width=".05"/><use xlink:href="#W" transform="matrix(1,0,0,1,454.0282296786208,1001.604583109945) translate(0 17.77777777777778)"/><use xlink:href="#z" transform="matrix(1,0,0,1,454.0282296786208,1001.604583109945) translate(18.51851851851852 17.77777777777778)"/><path d="M550.95 1014.76H605" stroke="#000" stroke-width="2" fill="none"/><path d="M550.98 1015.76h-1.35l.32-1-.15-1h1.18z" stroke="#000" stroke-width=".05"/><path d="M612.04 1014.76l-12.92 7.64v-15.27z" stroke="#000" stroke-width="2"/><path d="M544.98 1020.74V1154a6 6 0 0 0 6 6H2121.5" stroke="#1071e5" stroke-width="2" fill="none"/><path d="M544.98 1019.74l1-.16v1.18h-2v-1.35z" stroke="#1071e5" stroke-width=".05" fill="#1071e5"/><path d="M2136.76 1160l-14.26 4.63v-9.27z" stroke="#1071e5" stroke-width="2" fill="#1071e5"/><path d="M45 807.75c0 2.75-2.23 4.98-4.98 4.98-2.75 0-4.97-2.23-4.97-4.98 0-2.75 2.22-4.98 4.97-4.98 2.75 0 4.98 2.23 4.98 4.98z" stroke="#000" stroke-opacity="0" fill="#fc9432"/><path d="M1460 227a6 6 0 0 1 6-6h88a6 6 0 0 1 6 6v51.33a6 6 0 0 1-6 6h-88a6 6 0 0 1-6-6z" stroke="#000" stroke-opacity="0" fill="#fff" fill-opacity="0"/><use xlink:href="#aj" transform="matrix(1,0,0,1,1465.00005,226) translate(15.432098765432105 31.277777777777775)"/><path d="M1925 343.06h39a6 6 0 0 1 6 6v255.9" stroke="#54c45e" stroke-width="10" fill="none"/><path d="M1925.13 348.06H1920v-10h5.13zM1975 611.3l-2.4-1-2.6-.34-2.6.34-2.4 1v-6.47h10z" stroke="#54c45e" stroke-width=".05" fill="#54c45e"/><path d="M540 131.67c0 5.52-4.48 10-10 10s-10-4.48-10-10c0-5.53 4.48-10 10-10s10 4.47 10 10z" stroke="#000" stroke-opacity="0" fill="#54c45e"/><path d="M535 574.2l-.12 1.52-.4 1.68-.66 1.6-.9 1.48-1.13 1.3-1.32 1.13-1.48.92-1.6.66-1.68.4-1.52.12h-408l-.35.03-.15.03-.15.06-.13.08-.12.1-.1.12-.08.13-.06.15-.03.15-.03.35v67.56l.03.35.03.16.06.15.08.14.1.12.12.1.13.08.15.06.15.03.35.03H155v10h-39.2l-1.52-.12-1.68-.4-1.6-.67-1.47-.9-1.32-1.12-1.1-1.32-.9-1.47-.68-1.6-.4-1.68-.12-1.52V585.8l.12-1.52.4-1.68.67-1.6.9-1.48 1.1-1.3 1.33-1.13 1.47-.92 1.6-.66 1.68-.4 1.52-.12h408l.35-.03.15-.03.15-.06.13-.08.12-.1.1-.12.08-.13.06-.15.03-.15.03-.35V146.67h10z" stroke="#54c45e" stroke-width=".05" fill="#54c45e"/><path d="M535 146.8h-10v-6.6l1.84.96 3.16.5 3.16-.5 1.84-.95z" fill="#54c45e"/><path d="M535.02 146.82H525v-6.66l1.87.97 3.15.5 3.15-.5 1.88-.97zm-1.85-5.64l-3.17.5-3.17-.5-1.8-.93v6.52h9.95v-6.52z" stroke="#54c45e" stroke-width=".05" fill="#54c45e"/><path d="M160 664.96h-5.13v-10H160z" fill="#54c45e"/><path d="M160.03 665h-5.18V654.9h5.18zm-5.13-10v9.93h5.07V655z" stroke="#54c45e" stroke-width=".05" fill="#54c45e"/><path d="M1260 131.67c0 5.52-4.48 10-10 10s-10-4.48-10-10c0-5.53 4.48-10 10-10s10 4.47 10 10z" stroke="#000" stroke-opacity="0" fill="#54c45e"/><path d="M1250 146.67v166.66" stroke="#54c45e" stroke-width="10" fill="none"/><path d="M1246.84 141.16l3.16.5 3.16-.5 1.84-.95v6.6h-10v-6.6zM1255 319.67l-2.4-1-2.6-.34-2.6.34-2.4 1v-6.47h10z" stroke="#54c45e" stroke-width=".05" fill="#54c45e"/><path d="M1265 131.67h190" stroke="#54c45e" stroke-width="10" fill="none"/><path d="M1265.13 136.67h-6.6l.96-1.84.5-3.16-.34-2.6-1-2.4h6.47zM1460 136.67h-5.13v-10h5.13z" stroke="#54c45e" stroke-width=".05" fill="#54c45e"/><path d="M545 131.67h690" stroke="#54c45e" stroke-width="10" fill="none"/><path d="M545.13 136.67h-6.6l.96-1.84.5-3.16-.34-2.6-1-2.4h6.47zM1241.33 126.67l-1 2.4-.33 2.6.5 3.16.96 1.84h-6.6v-10h6.48z" stroke="#54c45e" stroke-width=".05" fill="#54c45e"/><path d="M1085 1090c0 2.75-2.23 4.98-4.98 4.98-2.75 0-4.97-2.23-4.97-4.98 0-2.75 2.22-4.98 4.97-4.98 2.75 0 4.98 2.23 4.98 4.98z" stroke="#000" stroke-opacity="0"/><path d="M1040.5 1090h34.05" stroke="#000" fill="none"/><path d="M1040.5 1090.5h-.5v-1h.5zM1075.05 1090l.08.5h-.6v-1h.68z" stroke="#000" stroke-width=".05"/><path d="M1085.5 1090h1038.1" stroke="#3a414a" fill="none"/><path d="M1085.5 1090.5h-.66l.16-.5-.08-.5h.6z" stroke="#3a414a" stroke-width=".05" fill="#3a414a"/><path d="M2138.38 1090l-14.27 4.63v-9.27z" stroke="#3a414a" fill="#3a414a"/><path d="M1980 619.96c0 5.52-4.48 10-10 10s-10-4.48-10-10 4.48-10 10-10 10 4.48 10 10z" stroke="#000" stroke-opacity="0" fill="#54c45e"/><path d="M1970 634.96v141.5" stroke="#54c45e" stroke-width="10" fill="none"/><path d="M1966.84 629.45l3.16.5 3.16-.5 1.84-.95v6.6h-10v-6.6zM1975 782.8l-2.4-1-2.6-.35-2.6.34-2.4 1v-6.47h10z" stroke="#54c45e" stroke-width=".05" fill="#54c45e"/><path d="M1980 791.45c0 5.53-4.48 10-10 10s-10-4.47-10-10c0-5.52 4.48-10 10-10s10 4.48 10 10z" stroke="#000" stroke-opacity="0" fill="#54c45e"/><path d="M1925 791.45h30" stroke="#54c45e" stroke-width="10" fill="none"/><path d="M1925.13 796.45H1920v-10h5.13zM1961.33 786.46l-1 2.4-.33 2.6.5 3.15.96 1.85h-6.6v-10h6.48z" stroke="#54c45e" stroke-width=".05" fill="#54c45e"/><path d="M1955 619.96h-690" stroke="#54c45e" stroke-width="10" fill="none"/><path d="M1961.33 614.97l-1 2.4-.33 2.6.5 3.15.96 1.84h-6.6v-10h6.48zM1265.13 624.96h-6.6l.96-1.84.5-3.16-.34-2.6-1-2.4h6.47z" stroke="#54c45e" stroke-width=".05" fill="#54c45e"/><path d="M-80 302.67a6 6 0 0 1 6-6H34a6 6 0 0 1 6 6v48a6 6 0 0 1-6 6H-74a6 6 0 0 1-6-6z" stroke="#000" stroke-opacity="0" fill="#fff" fill-opacity="0"/><use xlink:href="#ak" transform="matrix(1,0,0,1,-75,301.6666666666667) translate(18.827160493827193 30.277777777777775)"/><path d="M-77 362.28a6 6 0 0 1 6-6H74a6 6 0 0 1 6 6v51.33a6 6 0 0 1-6 6H-71a6 6 0 0 1-6-6z" stroke="#000" stroke-opacity="0" fill="#fff" fill-opacity="0"/><use xlink:href="#al" transform="matrix(1,0,0,1,-72,361.27907494233654) translate(13.790123456790155 31.277777777777775)"/><path d="M73 297.7a3.7 3.7 0 0 0-5.37 3.3v51.33a3.7 3.7 0 0 0 5.36 3.3l52.17-26.27a3.02 3.02 0 0 0 0-5.4z" stroke="#979ea8" fill="#fff"/><path d="M-80 244.33a6 6 0 0 1 6-6H45.03a6 6 0 0 1 6 6v48a6 6 0 0 1-6 6H-74a6 6 0 0 1-6-6z" stroke="#000" stroke-opacity="0" fill="#fff" fill-opacity="0"/><use xlink:href="#am" transform="matrix(1,0,0,1,-75,243.33333333333337) translate(17.265432098765444 30.277777777777775)"/><path d="M293.75 169.33a6 6 0 0 1 6-6H394a6 6 0 0 1 6 6v48a6 6 0 0 1-6 6h-94.25a6 6 0 0 1-6-6z" stroke="#000" stroke-opacity="0" fill="#fff" fill-opacity="0"/><use xlink:href="#an" transform="matrix(1,0,0,1,298.7531204386727,168.3333333333333) translate(0 30.277777777777775)"/><path d="M892.96 193.83H400.5v-1h492.46zm550.65 0H967.06v-1h476.58z" stroke="#000" stroke-width=".05"/><path d="M400.5 193.83h-.5v-1h.5z"/><path d="M400.54 193.86h-.56v-1.05h.56zm-.52-1v.95h.47v-.94z" stroke="#000" stroke-width=".05"/><path d="M1458.38 193.33l-14.27 4.64.02-9.27z"/><path d="M1460 193.33l-16.38 5.33V188zm-15.38 3.95l12.14-3.95-12.14-3.94z" stroke="#000" stroke-width=".05"/><use xlink:href="#ao" transform="matrix(1,0,0,1,892.9629881822995,179.99999999999994) translate(0 17.77777777777778)"/><path d="M280 338a6 6 0 0 1 6-6h108a6 6 0 0 1 6 6v48a6 6 0 0 1-6 6H286a6 6 0 0 1-6-6z" stroke="#000" stroke-opacity="0" fill="#fff" fill-opacity="0"/><use xlink:href="#ap" transform="matrix(1,0,0,1,285,337) translate(23.518518518518526 30.277777777777775)"/><path d="M280 284.33a6 6 0 0 1 6-6h108a6 6 0 0 1 6 6v48a6 6 0 0 1-6 6H286a6 6 0 0 1-6-6z" stroke="#000" stroke-opacity="0" fill="#fff" fill-opacity="0"/><use xlink:href="#aq" transform="matrix(1,0,0,1,284.9999499999749,283.33333333333337) translate(27.253086419753092 30.277777777777775)"/><path d="M300 228.67a6 6 0 0 1 6-6h88a6 6 0 0 1 6 6v48a6 6 0 0 1-6 6h-88a6 6 0 0 1-6-6z" stroke="#000" stroke-opacity="0" fill="#fff" fill-opacity="0"/><use xlink:href="#aj" transform="matrix(1,0,0,1,305,227.66666666666666) translate(15.432098765432105 30.277777777777775)"/><path d="M-80 121.13a6 6 0 0 1 6-6H68.23a6 6 0 0 1 6 6v48a6 6 0 0 1-6 6H-74a6 6 0 0 1-6-6z" stroke="#000" stroke-opacity="0" fill="#fff" fill-opacity="0"/><use xlink:href="#ar" transform="matrix(1,0,0,1,-75.00000000000001,120.13186574405086) translate(17.62345679012347 30.277777777777775)"/><path d="M909.38 253.17H400.5v-1h508.88zm534.24 0h-493v-1h493z" stroke="#000" stroke-width=".05"/><path d="M400.5 253.17h-.5v-1h.5z"/><path d="M400.54 253.2h-.56v-1.06h.56zm-.52-1v.94h.47v-.95z" stroke="#000" stroke-width=".05"/><path d="M1458.38 252.67l-14.26 4.63v-9.27z"/><path d="M1460 252.67l-16.38 5.32v-10.66zm-15.38 3.94l12.14-3.93-12.14-3.95z" stroke="#000" stroke-width=".05"/><use xlink:href="#as" transform="matrix(1,0,0,1,909.3827410493828,239.33333333333331) translate(0 17.77777777777778)"/><path d="M1260 328.33c0 5.53-4.48 10-10 10s-10-4.47-10-10c0-5.52 4.48-10 10-10s10 4.48 10 10z" stroke="#000" stroke-opacity="0" fill="#54c45e"/><path d="M1045 328.33h190" stroke="#54c45e" stroke-width="10" fill="none"/><path d="M1045.13 333.33H1040v-10h5.13zM1241.33 323.34l-1 2.4-.33 2.6.5 3.15.96 1.83h-6.6v-10h6.48z" stroke="#54c45e" stroke-width=".05" fill="#54c45e"/><path d="M1260 619.96c0 5.52-4.48 10-10 10s-10-4.48-10-10 4.48-10 10-10 10 4.48 10 10z" stroke="#000" stroke-opacity="0" fill="#54c45e"/><path d="M1250 634.96v42.63a6 6 0 0 0 6 6h199" stroke="#54c45e" stroke-width="10" fill="none"/><path d="M1246.84 629.45l3.16.5 3.16-.5 1.84-.95v6.6h-10v-6.6zM1460 688.6h-5.13v-10h5.13z" stroke="#54c45e" stroke-width=".05" fill="#54c45e"/><path d="M1250 343.33v261.62" stroke="#54c45e" stroke-width="10" fill="none"/><path d="M1255 343.46h-10v-6.6l1.84.96 3.16.5 3.16-.5 1.84-.95zM1255 611.3l-2.4-1-2.6-.34-2.6.34-2.4 1v-6.47h10z" stroke="#54c45e" stroke-width=".05" fill="#54c45e"/><path d="M327.5 107.67a6 6 0 0 1 6-6H394a6 6 0 0 1 6 6v48a6 6 0 0 1-6 6h-60.5a6 6 0 0 1-6-6z" stroke="#000" stroke-opacity="0" fill="#fff" fill-opacity="0"/><use xlink:href="#at" transform="matrix(1,0,0,1,332.50624087734525,106.66666666666666) translate(0 30.277777777777775)"/><path d="M405 131.67h110" stroke="#54c45e" stroke-width="10" fill="none"/><path d="M405.13 136.67H400v-10h5.13zM521.33 126.67l-1 2.4-.33 2.6.5 3.16.96 1.84h-6.6v-10h6.48z" stroke="#54c45e" stroke-width=".05" fill="#54c45e"/><path d="M1374.95 1014.76c0 2.75-2.22 4.98-4.97 4.98-2.75 0-4.98-2.23-4.98-4.98 0-2.75 2.23-4.98 4.98-4.98 2.75 0 4.97 2.23 4.97 4.98z" stroke="#000" stroke-opacity="0" fill="#fc9432"/><path d="M40.52 1333.98l.07.88.2.84.32.8.46.73.55.66.66.55.73.45.8.33.83.2.88.07h1317.92l.88-.07.84-.2.8-.33.73-.45.66-.56.57-.67.45-.73.33-.8.2-.84.08-.88v-313.74h1v313.78l-.08 1-.24 1-.4.93-.52.87-.67.78-.77.66-.87.53-.94.38-1 .24-1 .08H46l-1-.08-1-.24-.93-.4-.87-.52-.77-.66-.67-.78-.53-.87-.4-.94-.23-.98-.08-1V951.3h1z" stroke="#fc9432" stroke-width=".05" fill="#fc9432"/><path d="M1369.98 1019.74l.5-.08v.6h-1v-.7z" fill="#fc9432"/><path d="M1369.98 1019.7l.52-.07v.64h-1.05v-.73zm-.48.52h.95v-.53l-.48.06-.47-.15z" stroke="#fc9432" stroke-width=".05" fill="#fc9432"/><path d="M40.02 950.8l.5-.07v.6h-1v-.7z" fill="#fc9432"/><path d="M40.02 950.78l.53-.08v.64H39.5v-.74zm-.47.5h.95v-.53l-.48.08-.47-.16z" stroke="#fc9432" stroke-width=".05" fill="#fc9432"/><path d="M435.02 361.58l1 .24.93.4.87.52.78.66.66.78.53.87.38.94.24.98.08 1v106.2l-.08 1-.24 1-.4.93-.52.88-.66.77-.78.67-.87.53-.94.4-.98.23-1 .08H-55.05l-.88.07-.84.2-.8.33-.73.45-.66.57-.55.66-.47.73-.33.8-.2.84-.07.88v927.8l.07.88.2.84.33.8.45.73.57.66.65.55.74.45.8.33.83.2.88.07h2149.03l.88-.07.84-.2.8-.33.73-.45.66-.56.55-.67.45-.73.33-.8.2-.84.07-.88v-178l.08-1 .24-1 .4-.93.52-.87.66-.78.78-.66.87-.53.94-.38.98-.24 1-.08h17.64v1h-17.6l-.88.07-.84.2-.8.33-.73.45-.66.56-.55.67-.45.73-.33.8-.2.84-.07.88v178l-.08 1-.24 1-.4.93-.52.87-.66.78-.78.66-.87.53-.94.38-.98.24-1 .08H-55.08l-1-.08-1-.24-.94-.4-.87-.52-.76-.66-.67-.78-.53-.87-.4-.94-.23-.98-.07-1V486.14l.08-1 .25-1 .4-.94.52-.87.67-.77.77-.66.88-.54.94-.4 1-.22 1-.08h489.06l.88-.07.84-.2.8-.34.73-.45.66-.56.55-.65.45-.75.33-.8.2-.83.07-.88V368.02l-.07-.88-.2-.84-.33-.8-.45-.73-.56-.66-.67-.55-.73-.45-.8-.33-.84-.2-.88-.07H400.5v-1h33.52z" stroke="#000" stroke-width=".05"/><path d="M400.5 362.5h-.5v-1h.5z"/><path d="M400.54 362.52h-.56v-1.04h.56zm-.52-1v.96h.47v-.96z" stroke="#000" stroke-width=".05"/><path d="M2138.38 1230l-14.26 4.63v-9.27z"/><path d="M2140 1230l-16.38 5.32v-10.64zm-15.38 3.95l12.14-3.95-12.14-3.95z" stroke="#000" stroke-width=".05"/><path d="M1465 294.96a3.22 3.22 0 0 0-5 2.68v43.5a3.22 3.22 0 0 0 5 2.68l31.74-21.1a4 4 0 0 0 0-6.65zM1446.36 305.75c7.53 0 13.64 6.1 13.64 13.64 0 7.53-6.1 13.63-13.64 13.63-7.54 0-13.65-6.1-13.65-13.64 0-7.54 6.12-13.65 13.66-13.65z" stroke="#000" fill="#fff"/><path d="M1431.7 319.4H1376a6 6 0 0 0-6 6l-.02 683.88" stroke="#fc9432" fill="none"/><path d="M1432.2 319.4l.08.5h-.58v-1h.58zM1370.48 1009.27v.68l-.5-.17-.5.08v-.6zM475.02 307.9l1 .25.93.4.87.52.78.67.66.77.53.88.38.94.24 1 .08 1v207.27l-.08.98-.24 1-.4.94-.52.87-.66.76-.78.67-.87.53-.94.4-.98.23-1 .07H46.04l-.88.07-.84.2-.8.33-.73.45-.66.56-.56.66-.46.73-.33.8-.2.84-.08.9v268.67h-1V533.55l.08-1 .24-1 .4-.93.52-.88.67-.77.77-.66.87-.53.94-.4 1-.23 1-.07h427.98l.88-.07.84-.2.8-.33.73-.46.66-.54.55-.66.45-.74.33-.8.2-.83.07-.88v-207.2l-.07-.88-.2-.84-.33-.8-.45-.73-.56-.66-.67-.56-.73-.45-.8-.33-.84-.2-.88-.07H400.5v-1h73.52z" stroke="#fc9432" stroke-width=".05" fill="#fc9432"/><path d="M400.5 308.83h-.5v-1h.5z" fill="#fc9432"/><path d="M400.54 308.86h-.56v-1.05h.56zm-.52-1v.95h.47v-.94z" stroke="#fc9432" stroke-width=".05" fill="#fc9432"/><path d="M40.52 802.94l-.5-.17-.5.08v-.6h1z" fill="#fc9432"/><path d="M40.55 802.97l-.53-.17-.52.08v-.64h1.05zm-1-.7v.55l.48-.07.47.15v-.62z" stroke="#fc9432" stroke-width=".05" fill="#fc9432"/><path d="M1673.64 968.3v40.46a6 6 0 0 1-6 6h-292.2" stroke="#fc9432" fill="none"/><path d="M1673.64 967.8l.5-.07v.57h-1v-.57zM1375.47 1015.26h-.68l.15-.5-.08-.5h.6z" stroke="#fc9432" stroke-width=".05" fill="#fc9432"/><path d="M45.5 807.75h70.33" stroke="#fc9432" fill="none"/><path d="M45.5 808.25h-.66l.16-.5-.08-.5h.6z" stroke="#fc9432" stroke-width=".05" fill="#fc9432"/><path d="M130.6 807.75l-14.27 4.63v-9.26z" stroke="#fc9432" fill="#fc9432"/><path d="M45.5 945.83h70.33" stroke="#fc9432" fill="none"/><path d="M45.5 946.33h-.66l.16-.5-.08-.5h.6z" stroke="#fc9432" stroke-width=".05" fill="#fc9432"/><path d="M130.6 945.83l-14.27 4.63v-9.27z" stroke="#fc9432" fill="#fc9432"/><path d="M45 945.83c0 2.75-2.23 4.97-4.98 4.97-2.75 0-4.97-2.22-4.97-4.97 0-2.75 2.22-4.98 4.97-4.98 2.75 0 4.98 2.23 4.98 4.98z" stroke="#000" stroke-opacity="0" fill="#fc9432"/><path d="M40.02 813.23v127.11" stroke="#fc9432" fill="none"/><path d="M40.02 812.73l.5-.08v.6h-1v-.7zM40.52 941l-.5-.15-.5.08v-.6h1z" stroke="#fc9432" stroke-width=".05" fill="#fc9432"/><path d="M45 326.67h17.13" stroke="#dfe3e8" stroke-width="10" fill="none"/><path d="M45.13 331.67H40v-10h5.13zM67.13 331.67H62v-10h5.13z" stroke="#dfe3e8" stroke-width=".05" fill="#dfe3e8"/><path d="M80.5 387.95h12.58a6 6 0 0 0 6-6v-22.5" stroke="#ffd9d9" fill="none"/><path d="M80.5 388.45H80v-1h.5z" stroke="#ffd9d9" stroke-width=".05" fill="#ffd9d9"/><path d="M99.08 344.68l4.64 14.26h-9.27z" stroke="#ffd9d9" fill="#ffd9d9"/><path d="M-80 175.17a6 6 0 0 1 6-6H39a6 6 0 0 1 6 6v48a6 6 0 0 1-6 6H-74a6 6 0 0 1-6-6z" stroke="#000" stroke-opacity="0" fill="#fff" fill-opacity="0"/><use xlink:href="#au" transform="matrix(1,0,0,1,-75,174.16666666666669) translate(17.46913580246914 30.277777777777775)"/><path d="M292.06 136.67h-5.86l-.35.02-.15.03-.15.06-.13.07-.12.1-.1.12-.08.12-.06.14-.03.15-.03.36v183l-.12 1.53-.4 1.67-.67 1.6-.9 1.47-1.1 1.32-1.32 1.12-1.48.9-1.6.66-1.68.4-1.52.13H132.34v-10H273.8l.35-.03.15-.04.15-.06.13-.08.12-.1.1-.12.08-.13.06-.13.03-.15.03-.35v-183l.12-1.53.4-1.68.67-1.6.9-1.47 1.1-1.32 1.32-1.13 1.48-.9 1.6-.66 1.68-.4 1.52-.13h6.26z" stroke="#dfe3e8" stroke-width=".05" fill="#dfe3e8"/><path d="M132.47 331.67h-8.13v-1.32l1.08-.55.63-.4.54-.57.4-.66.25-.73.1-.77-.1-.78-.25-.74-.4-.66-.55-.56-.63-.4-1.08-.55v-1.33h8.13z" fill="#dfe3e8"/><path d="M132.5 331.7h-8.2v-1.37l1.1-.55.63-.4.54-.56.4-.66.26-.73.08-.76-.07-.77-.25-.73-.4-.66-.55-.54-.62-.4-1.1-.56v-1.36h8.2zm-8.14-10v1.27l1.07.54.63.42.55.56.42.67.26.74.08.77-.08.77-.26.74-.4.67-.56.56-.63.42-1.07.54v1.28h8.08v-9.95z" stroke="#dfe3e8" stroke-width=".05" fill="#dfe3e8"/><path d="M311.33 131.67l-14.27 4.63v-9.27z" fill="#dfe3e8"/><path d="M327.5 131.67l-35.44 11.5v-23.02z" stroke="#dfe3e8" stroke-width=".05" fill="#dfe3e8"/><path d="M100.74 193.83h-54.7l-.88.07-.84.2-.8.33-.73.45-.66.56-.57.66-.45.74-.33.8-.2.83-.08.88-.02 126.82h-1l.02-126.86.08-.98.24-1 .4-.94.52-.87.66-.76.78-.67.87-.53.94-.4 1-.23 1-.07h54.74zm176.63 0H203.3v-1h74.07z" stroke="#ced4db" stroke-width=".05" fill="#ced4db"/><path d="M40.5 326.15v3.52H40v-3.52z" fill="#ced4db"/><path d="M40.52 326.13v3.56h-.55v-3.57zm-.5 3.5h.45v-3.45h-.45z" stroke="#ced4db" stroke-width=".05" fill="#ced4db"/><path d="M292.13 193.33l-14.26 4.64v-9.27z" fill="#ced4db"/><path d="M293.75 193.33l-16.38 5.33V188zm-15.38 3.95l12.15-3.95-12.15-3.94z" stroke="#ced4db" stroke-width=".05" fill="#ced4db"/><use xlink:href="#av" transform="matrix(1,0,0,1,100.73687998708733,182.66666666666663) translate(0 14.222222222222223)"/><use xlink:href="#aw" transform="matrix(1,0,0,1,100.73687998708733,182.66666666666663) translate(77.87654320987656 14.222222222222223)"/><path d="M-107.4 326.67c0-4.24 3.42-7.67 7.65-7.67 4.24 0 7.67 3.43 7.67 7.67 0 4.23-3.43 7.66-7.67 7.66-4.23 0-7.66-3.43-7.66-7.66z" stroke="#000" stroke-opacity="0" fill="#4c535d"/><path d="M-85 326.67h-2.08" stroke="#4c535d" stroke-width="10" fill="none"/><path d="M-80 331.67h-5.13v-10H-80zM-86.95 331.67h-7.13l1.34-1.9.66-3.1-.46-2.62-1.46-2.38h7.05z" stroke="#4c535d" stroke-width=".05" fill="#4c535d"/><path d="M-104.67 383.06c0-2.23 1.8-4.04 4.04-4.04 2.23 0 4.03 1.8 4.03 4.04 0 2.23-1.8 4.03-4.03 4.03-2.23 0-4.04-1.8-4.04-4.04z" stroke="#000" stroke-opacity="0"/><path d="M-80.5 383.06h-15.6M-80.5 383.06h.5" stroke="#000" fill="none"/><path d="M-96.08 383.56h-.74l.22-.56-.2-.44h.72z" stroke="#000" stroke-width=".05"/><path d="M-104.67 268.33c0-2.23 1.8-4.03 4.04-4.03 2.23 0 4.03 1.8 4.03 4.03 0 2.23-1.8 4.04-4.03 4.04-2.23 0-4.04-1.8-4.04-4.04z" stroke="#000" stroke-opacity="0"/><path d="M-80.5 268.33h-15.6M-80.5 268.33h.5" stroke="#000" fill="none"/><path d="M-96.08 268.83h-.74l.22-.56-.2-.44h.72z" stroke="#000" stroke-width=".05"/><g><path d="M-104.67 199.17c0-2.23 1.8-4.04 4.04-4.04 2.23 0 4.03 1.8 4.03 4.04 0 2.23-1.8 4.03-4.03 4.03-2.23 0-4.04-1.8-4.04-4.03z" stroke="#000" stroke-opacity="0"/></g><path d="M-80.5 199.17h-15.6M-80.5 199.17h.5" stroke="#000" fill="none"/><path d="M-96.08 199.67h-.74l.22-.56-.2-.43h.72z" stroke="#000" stroke-width=".05"/><g><path d="M-104.67 146.8c0-2.23 1.8-4.04 4.04-4.04 2.23 0 4.03 1.8 4.03 4.04 0 2.23-1.8 4.04-4.03 4.04-2.23 0-4.04-1.8-4.04-4.04z" stroke="#000" stroke-opacity="0"/></g><path d="M-80.5 146.8h-15.6M-80.5 146.8h.5" stroke="#000" fill="none"/><path d="M-96.08 147.3h-.74l.22-.56-.2-.44h.72z" stroke="#000" stroke-width=".05"/><defs><path d="M240 0l2-218c-23 76-54 145-80 218h-23L58-218 59 0H30v-248h44l77 211c21-75 51-140 76-211h43V0h-30" id="ax"/><path d="M84 4C-5 8 30-112 23-190h32v120c0 31 7 50 39 49 72-2 45-101 50-169h31l1 190h-30c-1-10 1-25-2-33-11 22-28 36-60 37" id="ay"/><path d="M24 0v-261h32V0H24" id="az"/><path d="M59-47c-2 24 18 29 38 22v24C64 9 27 4 27-40v-127H5v-23h24l9-43h21v43h35v23H59v120" id="aA"/><path d="M24-231v-30h32v30H24zM24 0v-190h32V0H24" id="aB"/><path d="M16-82v-28h88v28H16" id="aC"/><path d="M135-143c-3-34-86-38-87 0 15 53 115 12 119 90S17 21 10-45l28-5c4 36 97 45 98 0-10-56-113-15-118-90-4-57 82-63 122-42 12 7 21 19 24 35" id="aD"/><path d="M141-36C126-15 110 5 73 4 37 3 15-17 15-53c-1-64 63-63 125-63 3-35-9-54-41-54-24 1-41 7-42 31l-33-3c5-37 33-52 76-52 45 0 72 20 72 64v82c-1 20 7 32 28 27v20c-31 9-61-2-59-35zM48-53c0 20 12 33 32 33 41-3 63-29 60-74-43 2-92-5-92 41" id="aE"/><path d="M177-190C167-65 218 103 67 71c-23-6-38-20-44-43l32-5c15 47 100 32 89-28v-30C133-14 115 1 83 1 29 1 15-40 15-95c0-56 16-97 71-98 29-1 48 16 59 35 1-10 0-23 2-32h30zM94-22c36 0 50-32 50-73 0-42-14-75-50-75-39 0-46 34-46 75s6 73 46 73" id="aF"/><path d="M100-194c63 0 86 42 84 106H49c0 40 14 67 53 68 26 1 43-12 49-29l28 8c-11 28-37 45-77 45C44 4 14-33 15-96c1-61 26-98 85-98zm52 81c6-60-76-77-97-28-3 7-6 17-6 28h103" id="aG"/><g id="a"><use transform="matrix(0.08641975308641973,0,0,0.08641975308641973,0,0)" xlink:href="#ax"/><use transform="matrix(0.08641975308641973,0,0,0.08641975308641973,25.8395061728395,0)" xlink:href="#ay"/><use transform="matrix(0.08641975308641973,0,0,0.08641975308641973,43.12345679012344,0)" xlink:href="#az"/><use transform="matrix(0.08641975308641973,0,0,0.08641975308641973,49.9506172839506,0)" xlink:href="#aA"/><use transform="matrix(0.08641975308641973,0,0,0.08641975308641973,58.59259259259257,0)" xlink:href="#aB"/><use transform="matrix(0.08641975308641973,0,0,0.08641975308641973,65.41975308641973,0)" xlink:href="#aC"/><use transform="matrix(0.08641975308641973,0,0,0.08641975308641973,75.70370370370368,0)" xlink:href="#aD"/><use transform="matrix(0.08641975308641973,0,0,0.08641975308641973,91.25925925925924,0)" xlink:href="#aA"/><use transform="matrix(0.08641975308641973,0,0,0.08641975308641973,99.90123456790121,0)" xlink:href="#aE"/><use transform="matrix(0.08641975308641973,0,0,0.08641975308641973,117.18518518518516,0)" xlink:href="#aF"/><use transform="matrix(0.08641975308641973,0,0,0.08641975308641973,134.4691358024691,0)" xlink:href="#aG"/></g><path d="M205 0l-28-72H64L36 0H1l101-248h38L239 0h-34zm-38-99l-47-123c-12 45-31 82-46 123h93" id="aH"/><path d="M30 0v-248h33v221h125V0H30" id="aI"/><path d="M232-93c-1 65-40 97-104 97C67 4 28-28 28-90v-158h33c8 89-33 224 67 224 102 0 64-133 71-224h33v155" id="aJ"/><g id="b"><use transform="matrix(0.08641975308641973,0,0,0.08641975308641973,0,0)" xlink:href="#aH"/><use transform="matrix(0.08641975308641973,0,0,0.08641975308641973,20.740740740740737,0)" xlink:href="#aI"/><use transform="matrix(0.08641975308641973,0,0,0.08641975308641973,38.02469135802468,0)" xlink:href="#aJ"/></g><path d="M212-179c-10-28-35-45-73-45-59 0-87 40-87 99 0 60 29 101 89 101 43 0 62-24 78-52l27 14C228-24 195 4 139 4 59 4 22-46 18-125c-6-104 99-153 187-111 19 9 31 26 39 46" id="aK"/><path d="M100-194c62-1 85 37 85 99 1 63-27 99-86 99S16-35 15-95c0-66 28-99 85-99zM99-20c44 1 53-31 53-75 0-43-8-75-51-75s-53 32-53 75 10 74 51 75" id="aL"/><path d="M117-194c89-4 53 116 60 194h-32v-121c0-31-8-49-39-48C34-167 62-67 57 0H25l-1-190h30c1 10-1 24 2 32 11-22 29-35 61-36" id="aM"/><path d="M114-163C36-179 61-72 57 0H25l-1-190h30c1 12-1 29 2 39 6-27 23-49 58-41v29" id="aN"/><g id="c"><use transform="matrix(0.0864197530864197,0,0,0.0864197530864197,0,0)" xlink:href="#aK"/><use transform="matrix(0.0864197530864197,0,0,0.0864197530864197,22.382716049382704,0)" xlink:href="#aL"/><use transform="matrix(0.0864197530864197,0,0,0.0864197530864197,39.66666666666664,0)" xlink:href="#aM"/><use transform="matrix(0.0864197530864197,0,0,0.0864197530864197,56.950617283950585,0)" xlink:href="#aA"/><use transform="matrix(0.0864197530864197,0,0,0.0864197530864197,65.59259259259255,0)" xlink:href="#aN"/><use transform="matrix(0.0864197530864197,0,0,0.0864197530864197,75.8765432098765,0)" xlink:href="#aL"/><use transform="matrix(0.0864197530864197,0,0,0.0864197530864197,93.16049382716044,0)" xlink:href="#az"/><use transform="matrix(0.0864197530864197,0,0,0.0864197530864197,99.9876543209876,0)" xlink:href="#az"/><use transform="matrix(0.0864197530864197,0,0,0.0864197530864197,106.81481481481475,0)" xlink:href="#aG"/><use transform="matrix(0.0864197530864197,0,0,0.0864197530864197,124.0987654320987,0)" xlink:href="#aN"/></g><g id="d"><use transform="matrix(0.061728395061728385,0,0,0.061728395061728385,0,0)" xlink:href="#aK"/><use transform="matrix(0.061728395061728385,0,0,0.061728395061728385,15.987654320987652,0)" xlink:href="#az"/><use transform="matrix(0.061728395061728385,0,0,0.061728395061728385,20.864197530864196,0)" xlink:href="#aN"/></g><path d="M233-177c-1 41-23 64-60 70L243 0h-38l-65-103H63V0H30v-248c88 3 205-21 203 71zM63-129c60-2 137 13 137-47 0-61-80-42-137-45v92" id="aO"/><g id="e"><use transform="matrix(0.08641975308641973,0,0,0.08641975308641973,0,0)" xlink:href="#aO"/><use transform="matrix(0.08641975308641973,0,0,0.08641975308641973,22.38271604938271,0)" xlink:href="#aG"/><use transform="matrix(0.08641975308641973,0,0,0.08641975308641973,39.66666666666666,0)" xlink:href="#aF"/><use transform="matrix(0.08641975308641973,0,0,0.08641975308641973,56.950617283950606,0)" xlink:href="#aB"/><use transform="matrix(0.08641975308641973,0,0,0.08641975308641973,63.777777777777764,0)" xlink:href="#aD"/><use transform="matrix(0.08641975308641973,0,0,0.08641975308641973,79.33333333333331,0)" xlink:href="#aA"/><use transform="matrix(0.08641975308641973,0,0,0.08641975308641973,87.97530864197529,0)" xlink:href="#aG"/><use transform="matrix(0.08641975308641973,0,0,0.08641975308641973,105.25925925925924,0)" xlink:href="#aN"/></g><path d="M63-220v92h138v28H63V0H30v-248h175v28H63" id="aP"/><g id="f"><use transform="matrix(0.08641975308641973,0,0,0.08641975308641973,0,0)" xlink:href="#aP"/><use transform="matrix(0.08641975308641973,0,0,0.08641975308641973,18.92592592592592,0)" xlink:href="#aB"/><use transform="matrix(0.08641975308641973,0,0,0.08641975308641973,25.753086419753075,0)" xlink:href="#az"/><use transform="matrix(0.08641975308641973,0,0,0.08641975308641973,32.58024691358024,0)" xlink:href="#aG"/></g><path d="M140-251c81 0 123 46 123 126C263-46 219 4 140 4 59 4 17-45 17-125s42-126 123-126zm0 227c63 0 89-41 89-101s-29-99-89-99c-61 0-89 39-89 99S79-25 140-24" id="aQ"/><path d="M115-194c55 1 70 41 70 98S169 2 115 4C84 4 66-9 55-30l1 105H24l-1-265h31l2 30c10-21 28-34 59-34zm-8 174c40 0 45-34 45-75s-6-73-45-74c-42 0-51 32-51 76 0 43 10 73 51 73" id="aR"/><g id="g"><use transform="matrix(0.08641975308641973,0,0,0.08641975308641973,0,0)" xlink:href="#aQ"/><use transform="matrix(0.08641975308641973,0,0,0.08641975308641973,24.197530864197525,0)" xlink:href="#ay"/><use transform="matrix(0.08641975308641973,0,0,0.08641975308641973,41.48148148148147,0)" xlink:href="#aA"/><use transform="matrix(0.08641975308641973,0,0,0.08641975308641973,50.12345679012345,0)" xlink:href="#aR"/><use transform="matrix(0.08641975308641973,0,0,0.08641975308641973,67.40740740740739,0)" xlink:href="#ay"/><use transform="matrix(0.08641975308641973,0,0,0.08641975308641973,84.69135802469134,0)" xlink:href="#aA"/></g><path d="M96-169c-40 0-48 33-48 73s9 75 48 75c24 0 41-14 43-38l32 2c-6 37-31 61-74 61-59 0-76-41-82-99-10-93 101-131 147-64 4 7 5 14 7 22l-32 3c-4-21-16-35-41-35" id="aS"/><g id="h"><use transform="matrix(0.08641975308641973,0,0,0.08641975308641973,0,0)" xlink:href="#aI"/><use transform="matrix(0.08641975308641973,0,0,0.08641975308641973,17.283950617283946,0)" xlink:href="#aL"/><use transform="matrix(0.08641975308641973,0,0,0.08641975308641973,34.56790123456789,0)" xlink:href="#aF"/><use transform="matrix(0.08641975308641973,0,0,0.08641975308641973,51.85185185185183,0)" xlink:href="#aB"/><use transform="matrix(0.08641975308641973,0,0,0.08641975308641973,58.67901234567899,0)" xlink:href="#aS"/></g><path d="M33 0v-248h34V0H33" id="aT"/><g id="i"><use transform="matrix(0.061728395061728385,0,0,0.061728395061728385,0,0)" xlink:href="#aT"/><use transform="matrix(0.061728395061728385,0,0,0.061728395061728385,6.1728395061728385,0)" xlink:href="#aO"/><use transform="matrix(0.061728395061728385,0,0,0.061728395061728385,22.16049382716049,0)" xlink:href="#aB"/><use transform="matrix(0.061728395061728385,0,0,0.061728395061728385,27.03703703703703,0)" xlink:href="#aM"/></g><path d="M30 0v-248h187v28H63v79h144v27H63v87h162V0H30" id="aU"/><path d="M141 0L90-78 38 0H4l68-98-65-92h35l48 74 47-74h35l-64 92 68 98h-35" id="aV"/><g id="j"><use transform="matrix(0.061728395061728385,0,0,0.061728395061728385,0,0)" xlink:href="#aU"/><use transform="matrix(0.061728395061728385,0,0,0.061728395061728385,14.814814814814813,0)" xlink:href="#aV"/><use transform="matrix(0.061728395061728385,0,0,0.061728395061728385,25.925925925925924,0)" xlink:href="#aA"/></g><g id="k"><use transform="matrix(0.061728395061728385,0,0,0.061728395061728385,0,0)" xlink:href="#aH"/><use transform="matrix(0.061728395061728385,0,0,0.061728395061728385,14.814814814814813,0)" xlink:href="#aI"/><use transform="matrix(0.061728395061728385,0,0,0.061728395061728385,27.16049382716049,0)" xlink:href="#aJ"/><use transform="matrix(0.061728395061728385,0,0,0.061728395061728385,43.14814814814814,0)" xlink:href="#aS"/><use transform="matrix(0.061728395061728385,0,0,0.061728395061728385,54.259259259259245,0)" xlink:href="#aL"/><use transform="matrix(0.061728395061728385,0,0,0.061728395061728385,66.60493827160492,0)" xlink:href="#aM"/><use transform="matrix(0.061728395061728385,0,0,0.061728395061728385,78.9506172839506,0)" xlink:href="#aA"/></g><path d="M143 4C61 4 22-44 18-125c-5-107 100-154 193-111 17 8 29 25 37 43l-32 9c-13-25-37-40-76-40-61 0-88 39-88 99 0 61 29 100 91 101 35 0 62-11 79-27v-45h-74v-28h105v86C228-13 192 4 143 4" id="aW"/><g id="l"><use transform="matrix(0.061728395061728385,0,0,0.061728395061728385,0,0)" xlink:href="#aW"/><use transform="matrix(0.061728395061728385,0,0,0.061728395061728385,17.28395061728395,0)" xlink:href="#aL"/><use transform="matrix(0.061728395061728385,0,0,0.061728395061728385,29.629629629629626,0)" xlink:href="#ay"/><use transform="matrix(0.061728395061728385,0,0,0.061728395061728385,41.9753086419753,0)" xlink:href="#aA"/></g><g id="m"><use transform="matrix(0.061728395061728385,0,0,0.061728395061728385,0,0)" xlink:href="#aW"/><use transform="matrix(0.061728395061728385,0,0,0.061728395061728385,17.28395061728395,0)" xlink:href="#aB"/><use transform="matrix(0.061728395061728385,0,0,0.061728395061728385,22.160493827160494,0)" xlink:href="#aM"/></g><g id="n"><use transform="matrix(0.061728395061728385,0,0,0.061728395061728385,0,0)" xlink:href="#aH"/><use transform="matrix(0.061728395061728385,0,0,0.061728395061728385,14.814814814814813,0)" xlink:href="#aB"/><use transform="matrix(0.061728395061728385,0,0,0.061728395061728385,19.691358024691354,0)" xlink:href="#aM"/></g><path d="M190 0L58-211 59 0H30v-248h39L202-35l-2-213h31V0h-41" id="aX"/><g id="o"><use transform="matrix(0.061728395061728385,0,0,0.061728395061728385,0,0)" xlink:href="#aU"/><use transform="matrix(0.061728395061728385,0,0,0.061728395061728385,14.814814814814813,0)" xlink:href="#aX"/><use transform="matrix(0.061728395061728385,0,0,0.061728395061728385,30.802469135802465,0)" xlink:href="#aO"/></g><path d="M266 0h-40l-56-210L115 0H75L2-248h35L96-30l15-64 43-154h32l59 218 59-218h35" id="aY"/><g id="p"><use transform="matrix(0.061728395061728385,0,0,0.061728395061728385,0,0)" xlink:href="#aU"/><use transform="matrix(0.061728395061728385,0,0,0.061728395061728385,14.814814814814813,0)" xlink:href="#aX"/><use transform="matrix(0.061728395061728385,0,0,0.061728395061728385,30.802469135802465,0)" xlink:href="#aY"/></g><g id="q"><use transform="matrix(0.061728395061728385,0,0,0.061728395061728385,0,0)" xlink:href="#aO"/><use transform="matrix(0.061728395061728385,0,0,0.061728395061728385,15.987654320987652,0)" xlink:href="#aL"/><use transform="matrix(0.061728395061728385,0,0,0.061728395061728385,28.33333333333333,0)" xlink:href="#ay"/><use transform="matrix(0.061728395061728385,0,0,0.061728395061728385,40.679012345679006,0)" xlink:href="#aA"/></g><g id="r"><use transform="matrix(0.061728395061728385,0,0,0.061728395061728385,0,0)" xlink:href="#aO"/><use transform="matrix(0.061728395061728385,0,0,0.061728395061728385,15.987654320987652,0)" xlink:href="#aB"/><use transform="matrix(0.061728395061728385,0,0,0.061728395061728385,20.864197530864196,0)" xlink:href="#aM"/></g><g id="s"><use transform="matrix(0.061728395061728385,0,0,0.061728395061728385,0,0)" xlink:href="#aT"/><use transform="matrix(0.061728395061728385,0,0,0.061728395061728385,6.1728395061728385,0)" xlink:href="#ax"/><use transform="matrix(0.061728395061728385,0,0,0.061728395061728385,24.629629629629626,0)" xlink:href="#ax"/></g><path d="M185-189c-5-48-123-54-124 2 14 75 158 14 163 119 3 78-121 87-175 55-17-10-28-26-33-46l33-7c5 56 141 63 141-1 0-78-155-14-162-118-5-82 145-84 179-34 5 7 8 16 11 25" id="aZ"/><path d="M127-220V0H93v-220H8v-28h204v28h-85" id="ba"/><g id="t"><use transform="matrix(0.061728395061728385,0,0,0.061728395061728385,0,0)" xlink:href="#aT"/><use transform="matrix(0.061728395061728385,0,0,0.061728395061728385,6.1728395061728385,0)" xlink:href="#aX"/><use transform="matrix(0.061728395061728385,0,0,0.061728395061728385,22.16049382716049,0)" xlink:href="#aZ"/><use transform="matrix(0.061728395061728385,0,0,0.061728395061728385,36.9753086419753,0)" xlink:href="#ba"/><use transform="matrix(0.061728395061728385,0,0,0.061728395061728385,50.49382716049382,0)" xlink:href="#aO"/></g><use transform="matrix(0.061728395061728385,0,0,0.061728395061728385,0,0)" xlink:href="#ba" id="u"/><g id="v"><use transform="matrix(0.07407407407407404,0,0,0.07407407407407404,0,0)" xlink:href="#aT"/><use transform="matrix(0.07407407407407404,0,0,0.07407407407407404,7.407407407407404,0)" xlink:href="#aM"/><use transform="matrix(0.07407407407407404,0,0,0.07407407407407404,22.222222222222214,0)" xlink:href="#aD"/><use transform="matrix(0.07407407407407404,0,0,0.07407407407407404,35.555555555555536,0)" xlink:href="#aA"/><use transform="matrix(0.07407407407407404,0,0,0.07407407407407404,42.96296296296295,0)" xlink:href="#aN"/><use transform="matrix(0.07407407407407404,0,0,0.07407407407407404,51.77777777777775,0)" xlink:href="#ay"/><use transform="matrix(0.07407407407407404,0,0,0.07407407407407404,66.59259259259255,0)" xlink:href="#aS"/><use transform="matrix(0.07407407407407404,0,0,0.07407407407407404,79.92592592592588,0)" xlink:href="#aA"/><use transform="matrix(0.07407407407407404,0,0,0.07407407407407404,87.33333333333329,0)" xlink:href="#aB"/><use transform="matrix(0.07407407407407404,0,0,0.07407407407407404,93.18518518518513,0)" xlink:href="#aL"/><use transform="matrix(0.07407407407407404,0,0,0.07407407407407404,107.99999999999994,0)" xlink:href="#aM"/></g><g id="w"><use transform="matrix(0.07407407407407404,0,0,0.07407407407407404,0,0)" xlink:href="#aO"/><use transform="matrix(0.07407407407407404,0,0,0.07407407407407404,19.185185185185176,0)" xlink:href="#aG"/><use transform="matrix(0.07407407407407404,0,0,0.07407407407407404,33.999999999999986,0)" xlink:href="#aF"/><use transform="matrix(0.07407407407407404,0,0,0.07407407407407404,48.814814814814795,0)" xlink:href="#aB"/><use transform="matrix(0.07407407407407404,0,0,0.07407407407407404,54.66666666666664,0)" xlink:href="#aD"/><use transform="matrix(0.07407407407407404,0,0,0.07407407407407404,67.99999999999997,0)" xlink:href="#aA"/><use transform="matrix(0.07407407407407404,0,0,0.07407407407407404,75.40740740740738,0)" xlink:href="#aG"/><use transform="matrix(0.07407407407407404,0,0,0.07407407407407404,90.22222222222219,0)" xlink:href="#aN"/></g><path d="M140-251c81 0 123 46 123 126C263-53 228-8 163 1c7 30 30 48 69 40v23c-55 16-95-15-103-61C56-3 17-48 17-125c0-80 42-126 123-126zm0 227c63 0 89-41 89-101s-29-99-89-99c-61 0-89 39-89 99S79-25 140-24" id="bb"/><use transform="matrix(0.061728395061728385,0,0,0.061728395061728385,0,0)" xlink:href="#bb" id="x"/><path d="M27 0v-27h64v-190l-56 39v-29l58-41h29v221h61V0H27" id="bc"/><path d="M101-251c68 0 85 55 85 127S166 4 100 4C33 4 14-52 14-124c0-73 17-127 87-127zm-1 229c47 0 54-49 54-102s-4-102-53-102c-51 0-55 48-55 102 0 53 5 102 54 102" id="bd"/><g id="y"><use transform="matrix(0.06172839506172839,0,0,0.06172839506172839,0,0)" xlink:href="#bc"/><use transform="matrix(0.06172839506172839,0,0,0.06172839506172839,12.345679012345679,0)" xlink:href="#bd"/></g><path d="M115-194c53 0 69 39 70 98 0 66-23 100-70 100C84 3 66-7 56-30L54 0H23l1-261h32v101c10-23 28-34 59-34zm-8 174c40 0 45-34 45-75 0-40-5-75-45-74-42 0-51 32-51 76 0 43 10 73 51 73" id="be"/><g id="z"><use transform="matrix(0.06172839506172839,0,0,0.06172839506172839,0,0)" xlink:href="#be"/><use transform="matrix(0.06172839506172839,0,0,0.06172839506172839,12.345679012345679,0)" xlink:href="#aB"/><use transform="matrix(0.06172839506172839,0,0,0.06172839506172839,17.22222222222222,0)" xlink:href="#aA"/><use transform="matrix(0.06172839506172839,0,0,0.06172839506172839,23.39506172839506,0)" xlink:href="#aD"/></g><path d="M30-248c118-7 216 8 213 122C240-48 200 0 122 0H30v-248zM63-27c89 8 146-16 146-99s-60-101-146-95v194" id="bf"/><use transform="matrix(0.061728395061728385,0,0,0.061728395061728385,0,0)" xlink:href="#bf" id="A"/><g id="B"><use transform="matrix(0.061728395061728385,0,0,0.061728395061728385,0,0)" xlink:href="#aU"/><use transform="matrix(0.061728395061728385,0,0,0.061728395061728385,14.814814814814813,0)" xlink:href="#aX"/></g><g id="C"><use transform="matrix(0.07407407407407404,0,0,0.07407407407407404,0,0)" xlink:href="#aK"/><use transform="matrix(0.07407407407407404,0,0,0.07407407407407404,19.185185185185176,0)" xlink:href="#aL"/><use transform="matrix(0.07407407407407404,0,0,0.07407407407407404,33.999999999999986,0)" xlink:href="#ay"/><use transform="matrix(0.07407407407407404,0,0,0.07407407407407404,48.814814814814795,0)" xlink:href="#aM"/><use transform="matrix(0.07407407407407404,0,0,0.07407407407407404,63.629629629629605,0)" xlink:href="#aA"/><use transform="matrix(0.07407407407407404,0,0,0.07407407407407404,71.03703703703701,0)" xlink:href="#aG"/><use transform="matrix(0.07407407407407404,0,0,0.07407407407407404,85.85185185185182,0)" xlink:href="#aN"/></g><g id="D"><use transform="matrix(0.061728395061728385,0,0,0.061728395061728385,0,0)" xlink:href="#aK"/><use transform="matrix(0.061728395061728385,0,0,0.061728395061728385,15.987654320987652,0)" xlink:href="#aX"/><use transform="matrix(0.061728395061728385,0,0,0.061728395061728385,31.975308641975303,0)" xlink:href="#ba"/></g><g id="E"><use transform="matrix(0.061728395061728385,0,0,0.061728395061728385,0,0)" xlink:href="#aK"/><use transform="matrix(0.061728395061728385,0,0,0.061728395061728385,15.987654320987652,0)" xlink:href="#aI"/><use transform="matrix(0.061728395061728385,0,0,0.061728395061728385,28.33333333333333,0)" xlink:href="#aO"/></g><g id="F"><use transform="matrix(0.061728395061728385,0,0,0.061728395061728385,0,0)" xlink:href="#bf"/><use transform="matrix(0.061728395061728385,0,0,0.061728395061728385,15.987654320987652,0)" xlink:href="#aQ"/><use transform="matrix(0.061728395061728385,0,0,0.061728395061728385,33.2716049382716,0)" xlink:href="#aX"/><use transform="matrix(0.061728395061728385,0,0,0.061728395061728385,49.25925925925925,0)" xlink:href="#aU"/></g><g id="G"><use transform="matrix(0.061728395061728385,0,0,0.061728395061728385,0,0)" xlink:href="#aO"/><use transform="matrix(0.061728395061728385,0,0,0.061728395061728385,15.987654320987652,0)" xlink:href="#bf"/><use transform="matrix(0.061728395061728385,0,0,0.061728395061728385,31.975308641975303,0)" xlink:href="#aH"/><use transform="matrix(0.061728395061728385,0,0,0.061728395061728385,46.79012345679011,0)" xlink:href="#bc"/></g><g id="H"><use transform="matrix(0.061728395061728385,0,0,0.061728395061728385,0,0)" xlink:href="#aU"/><use transform="matrix(0.061728395061728385,0,0,0.061728395061728385,14.814814814814813,0)" xlink:href="#aX"/><use transform="matrix(0.061728395061728385,0,0,0.061728395061728385,30.802469135802465,0)" xlink:href="#aO"/><use transform="matrix(0.061728395061728385,0,0,0.061728395061728385,46.79012345679011,0)" xlink:href="#bd"/></g><g id="I"><use transform="matrix(0.061728395061728385,0,0,0.061728395061728385,0,0)" xlink:href="#aO"/><use transform="matrix(0.061728395061728385,0,0,0.061728395061728385,15.987654320987652,0)" xlink:href="#bf"/><use transform="matrix(0.061728395061728385,0,0,0.061728395061728385,31.975308641975303,0)" xlink:href="#aH"/><use transform="matrix(0.061728395061728385,0,0,0.061728395061728385,46.79012345679011,0)" xlink:href="#bd"/></g><g id="J"><use transform="matrix(0.061728395061728385,0,0,0.061728395061728385,0,0)" xlink:href="#aY"/><use transform="matrix(0.061728395061728385,0,0,0.061728395061728385,20.925925925925924,0)" xlink:href="#aO"/><use transform="matrix(0.061728395061728385,0,0,0.061728395061728385,36.913580246913575,0)" xlink:href="#aH"/></g><g id="K"><use transform="matrix(0.061728395061728385,0,0,0.061728395061728385,0,0)" xlink:href="#aP"/><use transform="matrix(0.061728395061728385,0,0,0.061728395061728385,13.518518518518515,0)" xlink:href="#aX"/></g><path d="M106-169C34-169 62-67 57 0H25v-261h32l-1 103c12-21 28-36 61-36 89 0 53 116 60 194h-32v-121c2-32-8-49-39-48" id="bg"/><g id="L"><use transform="matrix(0.061728395061728385,0,0,0.061728395061728385,0,0)" xlink:href="#aH"/><use transform="matrix(0.061728395061728385,0,0,0.061728395061728385,14.814814814814813,0)" xlink:href="#bg"/></g><path d="M30-248c87 1 191-15 191 75 0 78-77 80-158 76V0H30v-248zm33 125c57 0 124 11 124-50 0-59-68-47-124-48v98" id="bh"/><g id="M"><use transform="matrix(0.061728395061728385,0,0,0.061728395061728385,0,0)" xlink:href="#aQ"/><use transform="matrix(0.061728395061728385,0,0,0.061728395061728385,17.28395061728395,0)" xlink:href="#bh"/></g><path d="M194 0L95-120 63-95V0H30v-248h33v124l119-124h40L117-140 236 0h-42" id="bi"/><g id="N"><use transform="matrix(0.061728395061728385,0,0,0.061728395061728385,0,0)" xlink:href="#bh"/><use transform="matrix(0.061728395061728385,0,0,0.061728395061728385,14.814814814814813,0)" xlink:href="#aU"/><use transform="matrix(0.061728395061728385,0,0,0.061728395061728385,29.629629629629626,0)" xlink:href="#aU"/><use transform="matrix(0.061728395061728385,0,0,0.061728395061728385,44.44444444444444,0)" xlink:href="#bi"/><use transform="matrix(0.061728395061728385,0,0,0.061728395061728385,59.25925925925925,0)" xlink:href="#be"/></g><g id="O"><use transform="matrix(0.061728395061728385,0,0,0.061728395061728385,0,0)" xlink:href="#ba"/><use transform="matrix(0.061728395061728385,0,0,0.061728395061728385,13.518518518518515,0)" xlink:href="#aT"/><use transform="matrix(0.061728395061728385,0,0,0.061728395061728385,19.691358024691354,0)" xlink:href="#ax"/><use transform="matrix(0.061728395061728385,0,0,0.061728395061728385,38.14814814814814,0)" xlink:href="#aU"/></g><g id="P"><use transform="matrix(0.061728395061728385,0,0,0.061728395061728385,0,0)" xlink:href="#aO"/><use transform="matrix(0.061728395061728385,0,0,0.061728395061728385,15.987654320987652,0)" xlink:href="#aU"/><use transform="matrix(0.061728395061728385,0,0,0.061728395061728385,30.802469135802465,0)" xlink:href="#aW"/></g><path d="M160-131c35 5 61 23 61 61C221 17 115-2 30 0v-248c76 3 177-17 177 60 0 33-19 50-47 57zm-97-11c50-1 110 9 110-42 0-47-63-36-110-37v79zm0 115c55-2 124 14 124-45 0-56-70-42-124-44v89" id="bj"/><g id="Q"><use transform="matrix(0.061728395061728385,0,0,0.061728395061728385,0,0)" xlink:href="#bj"/><use transform="matrix(0.061728395061728385,0,0,0.061728395061728385,14.814814814814813,0)" xlink:href="#aJ"/><use transform="matrix(0.061728395061728385,0,0,0.061728395061728385,30.802469135802465,0)" xlink:href="#aZ"/></g><path d="M197 0v-115H63V0H30v-248h33v105h134v-105h34V0h-34" id="bk"/><path d="M195 0l-74-108L45 0H8l94-129-87-119h37l69 98 67-98h37l-84 118L233 0h-38" id="bl"/><g id="R"><use transform="matrix(0.061728395061728385,0,0,0.061728395061728385,0,0)" xlink:href="#ba"/><use transform="matrix(0.061728395061728385,0,0,0.061728395061728385,13.518518518518515,0)" xlink:href="#bk"/><use transform="matrix(0.061728395061728385,0,0,0.061728395061728385,29.506172839506167,0)" xlink:href="#aU"/><use transform="matrix(0.061728395061728385,0,0,0.061728395061728385,44.32098765432098,0)" xlink:href="#bl"/></g><path d="M101-251c82-7 93 87 43 132L82-64C71-53 59-42 53-27h129V0H18c2-99 128-94 128-182 0-28-16-43-45-43s-46 15-49 41l-32-3c6-41 34-60 81-64" id="bm"/><g id="S"><use transform="matrix(0.061728395061728385,0,0,0.061728395061728385,0,0)" xlink:href="#bf"/><use transform="matrix(0.061728395061728385,0,0,0.061728395061728385,15.987654320987652,0)" xlink:href="#bk"/><use transform="matrix(0.061728395061728385,0,0,0.061728395061728385,31.975308641975303,0)" xlink:href="#aU"/><use transform="matrix(0.061728395061728385,0,0,0.061728395061728385,46.79012345679011,0)" xlink:href="#bl"/><use transform="matrix(0.061728395061728385,0,0,0.061728395061728385,61.60493827160492,0)" xlink:href="#bm"/></g><g id="T"><use transform="matrix(0.061728395061728385,0,0,0.061728395061728385,0,0)" xlink:href="#bf"/><use transform="matrix(0.061728395061728385,0,0,0.061728395061728385,15.987654320987652,0)" xlink:href="#bk"/><use transform="matrix(0.061728395061728385,0,0,0.061728395061728385,31.975308641975303,0)" xlink:href="#aU"/><use transform="matrix(0.061728395061728385,0,0,0.061728395061728385,46.79012345679011,0)" xlink:href="#bl"/><use transform="matrix(0.061728395061728385,0,0,0.061728395061728385,61.60493827160492,0)" xlink:href="#bc"/></g><g id="U"><use transform="matrix(0.061728395061728385,0,0,0.061728395061728385,0,0)" xlink:href="#bf"/><use transform="matrix(0.061728395061728385,0,0,0.061728395061728385,15.987654320987652,0)" xlink:href="#bk"/><use transform="matrix(0.061728395061728385,0,0,0.061728395061728385,31.975308641975303,0)" xlink:href="#aU"/><use transform="matrix(0.061728395061728385,0,0,0.061728395061728385,46.79012345679011,0)" xlink:href="#bl"/><use transform="matrix(0.061728395061728385,0,0,0.061728395061728385,61.60493827160492,0)" xlink:href="#bd"/></g><path d="M-5 72V49h209v23H-5" id="bn"/><g id="V"><use transform="matrix(0.061728395061728385,0,0,0.061728395061728385,0,0)" xlink:href="#aI"/><use transform="matrix(0.061728395061728385,0,0,0.061728395061728385,12.345679012345677,0)" xlink:href="#aU"/><use transform="matrix(0.061728395061728385,0,0,0.061728395061728385,27.16049382716049,0)" xlink:href="#bf"/><use transform="matrix(0.061728395061728385,0,0,0.061728395061728385,43.14814814814814,0)" xlink:href="#bn"/><use transform="matrix(0.061728395061728385,0,0,0.061728395061728385,55.493827160493815,0)" xlink:href="#bj"/></g><use transform="matrix(0.06172839506172839,0,0,0.06172839506172839,0,0)" xlink:href="#bm" id="W"/><path d="M155-56V0h-30v-56H8v-25l114-167h33v167h35v25h-35zm-30-156c-27 46-58 90-88 131h88v-131" id="bo"/><use transform="matrix(0.061728395061728385,0,0,0.061728395061728385,0,0)" xlink:href="#bo" id="X"/><g id="Y"><use transform="matrix(0.061728395061728385,0,0,0.061728395061728385,0,0)" xlink:href="#be"/><use transform="matrix(0.061728395061728385,0,0,0.061728395061728385,12.345679012345677,0)" xlink:href="#aB"/><use transform="matrix(0.061728395061728385,0,0,0.061728395061728385,17.22222222222222,0)" xlink:href="#aA"/><use transform="matrix(0.061728395061728385,0,0,0.061728395061728385,23.39506172839506,0)" xlink:href="#aD"/></g><g id="Z"><use transform="matrix(0.08641975308641972,0,0,0.08641975308641972,0,0)" xlink:href="#aT"/><use transform="matrix(0.08641975308641972,0,0,0.08641975308641972,8.641975308641973,0)" xlink:href="#aM"/><use transform="matrix(0.08641975308641972,0,0,0.08641975308641972,25.925925925925917,0)" xlink:href="#aR"/><use transform="matrix(0.08641975308641972,0,0,0.08641975308641972,43.20987654320986,0)" xlink:href="#ay"/><use transform="matrix(0.08641975308641972,0,0,0.08641975308641972,60.4938271604938,0)" xlink:href="#aA"/></g><g id="aa"><use transform="matrix(0.08641975308641972,0,0,0.08641975308641972,0,0)" xlink:href="#aI"/><use transform="matrix(0.08641975308641972,0,0,0.08641975308641972,17.283950617283946,0)" xlink:href="#aL"/><use transform="matrix(0.08641975308641972,0,0,0.08641975308641972,34.56790123456789,0)" xlink:href="#aF"/><use transform="matrix(0.08641975308641972,0,0,0.08641975308641972,51.85185185185183,0)" xlink:href="#aB"/><use transform="matrix(0.08641975308641972,0,0,0.08641975308641972,58.67901234567899,0)" xlink:href="#aS"/></g><g id="ab"><use transform="matrix(0.061728395061728385,0,0,0.061728395061728385,0,0)" xlink:href="#bb"/><use transform="matrix(0.061728395061728385,0,0,0.061728395061728385,17.28395061728395,0)" xlink:href="#bd"/></g><g id="ac"><use transform="matrix(0.061728395061728385,0,0,0.061728395061728385,0,0)" xlink:href="#bb"/><use transform="matrix(0.061728395061728385,0,0,0.061728395061728385,17.28395061728395,0)" xlink:href="#bc"/></g><g id="ad"><use transform="matrix(0.061728395061728385,0,0,0.061728395061728385,0,0)" xlink:href="#aO"/><use transform="matrix(0.061728395061728385,0,0,0.061728395061728385,15.987654320987652,0)" xlink:href="#aU"/><use transform="matrix(0.061728395061728385,0,0,0.061728395061728385,30.802469135802465,0)" xlink:href="#aZ"/></g><path d="M23 0v-37h61v-169l-59 37v-38l62-41h46v211h57V0H23" id="bp"/><path d="M101-251c68 0 84 54 84 127C185-50 166 4 99 4S15-52 14-124c-1-75 17-127 87-127zm-1 216c37-5 36-46 36-89s4-89-36-89c-39 0-36 45-36 89 0 43-3 85 36 89" id="bq"/><g id="ae"><use transform="matrix(0.06790123456790123,0,0,0.06790123456790123,0,0)" xlink:href="#bp"/><use transform="matrix(0.06790123456790123,0,0,0.06790123456790123,13.580246913580247,0)" xlink:href="#bq"/></g><g id="af"><use transform="matrix(0.061728395061728385,0,0,0.061728395061728385,0,0)" xlink:href="#aI"/><use transform="matrix(0.061728395061728385,0,0,0.061728395061728385,12.345679012345677,0)" xlink:href="#aU"/><use transform="matrix(0.061728395061728385,0,0,0.061728395061728385,27.16049382716049,0)" xlink:href="#bf"/></g><use transform="matrix(0.061728395061728385,0,0,0.061728395061728385,0,0)" xlink:href="#bf" id="ag"/><g id="ah"><use transform="matrix(0.06172839506172839,0,0,0.06172839506172839,0,0)" xlink:href="#bc"/><use transform="matrix(0.06172839506172839,0,0,0.06172839506172839,12.345679012345679,0)" xlink:href="#bd"/></g><path d="M64 0c3-98 48-159 88-221H18v-27h164v26C143-157 98-101 97 0H64" id="br"/><use transform="matrix(0.06172839506172839,0,0,0.06172839506172839,0,0)" xlink:href="#br" id="ai"/><g id="aj"><use transform="matrix(0.061728395061728385,0,0,0.061728395061728385,0,0)" xlink:href="#aU"/><use transform="matrix(0.061728395061728385,0,0,0.061728395061728385,14.814814814814813,0)" xlink:href="#aX"/><use transform="matrix(0.061728395061728385,0,0,0.061728395061728385,30.802469135802465,0)" xlink:href="#aO"/><use transform="matrix(0.061728395061728385,0,0,0.061728395061728385,46.79012345679011,0)" xlink:href="#bc"/></g><path d="M206 0h-36l-40-164L89 0H53L-1-190h32L70-26l43-164h34l41 164 42-164h31" id="bs"/><g id="ak"><use transform="matrix(0.061728395061728385,0,0,0.061728395061728385,0,0)" xlink:href="#aO"/><use transform="matrix(0.061728395061728385,0,0,0.061728395061728385,15.987654320987652,0)" xlink:href="#aE"/><use transform="matrix(0.061728395061728385,0,0,0.061728395061728385,28.33333333333333,0)" xlink:href="#bs"/><use transform="matrix(0.061728395061728385,0,0,0.061728395061728385,44.32098765432098,0)" xlink:href="#bf"/><use transform="matrix(0.061728395061728385,0,0,0.061728395061728385,60.30864197530863,0)" xlink:href="#aE"/><use transform="matrix(0.061728395061728385,0,0,0.061728395061728385,72.6543209876543,0)" xlink:href="#aA"/><use transform="matrix(0.061728395061728385,0,0,0.061728395061728385,78.82716049382714,0)" xlink:href="#aE"/></g><g id="al"><use transform="matrix(0.061728395061728385,0,0,0.061728395061728385,0,0)" xlink:href="#aU"/><use transform="matrix(0.061728395061728385,0,0,0.061728395061728385,14.814814814814813,0)" xlink:href="#aV"/><use transform="matrix(0.061728395061728385,0,0,0.061728395061728385,25.925925925925924,0)" xlink:href="#aA"/><use transform="matrix(0.061728395061728385,0,0,0.061728395061728385,32.09876543209876,0)" xlink:href="#aN"/><use transform="matrix(0.061728395061728385,0,0,0.061728395061728385,39.444444444444436,0)" xlink:href="#aM"/><use transform="matrix(0.061728395061728385,0,0,0.061728395061728385,51.79012345679011,0)" xlink:href="#bn"/><use transform="matrix(0.061728395061728385,0,0,0.061728395061728385,64.1358024691358,0)" xlink:href="#aU"/><use transform="matrix(0.061728395061728385,0,0,0.061728395061728385,78.9506172839506,0)" xlink:href="#aM"/><use transform="matrix(0.061728395061728385,0,0,0.061728395061728385,91.29629629629628,0)" xlink:href="#aE"/><use transform="matrix(0.061728395061728385,0,0,0.061728395061728385,103.64197530864195,0)" xlink:href="#be"/><use transform="matrix(0.061728395061728385,0,0,0.061728395061728385,115.98765432098762,0)" xlink:href="#az"/><use transform="matrix(0.061728395061728385,0,0,0.061728395061728385,120.86419753086416,0)" xlink:href="#aG"/></g><g id="am"><use transform="matrix(0.061728395061728385,0,0,0.061728395061728385,0,0)" xlink:href="#aO"/><use transform="matrix(0.061728395061728385,0,0,0.061728395061728385,15.987654320987652,0)" xlink:href="#aE"/><use transform="matrix(0.061728395061728385,0,0,0.061728395061728385,28.33333333333333,0)" xlink:href="#bs"/><use transform="matrix(0.061728395061728385,0,0,0.061728395061728385,44.32098765432098,0)" xlink:href="#aK"/><use transform="matrix(0.061728395061728385,0,0,0.061728395061728385,60.30864197530863,0)" xlink:href="#aI"/><use transform="matrix(0.061728395061728385,0,0,0.061728395061728385,72.6543209876543,0)" xlink:href="#bi"/></g><path d="M85-194c31 0 48 13 60 33l-1-100h32l1 261h-30c-2-10 0-23-3-31C134-8 116 4 85 4 32 4 16-35 15-94c0-66 23-100 70-100zm9 24c-40 0-46 34-46 75 0 40 6 74 45 74 42 0 51-32 51-76 0-42-9-74-50-73" id="bt"/><g id="an"><use transform="matrix(0.061728395061728385,0,0,0.061728395061728385,0,0)" xlink:href="#bt"/><use transform="matrix(0.061728395061728385,0,0,0.061728395061728385,12.345679012345677,0)" xlink:href="#aE"/><use transform="matrix(0.061728395061728385,0,0,0.061728395061728385,24.691358024691354,0)" xlink:href="#aA"/><use transform="matrix(0.061728395061728385,0,0,0.061728395061728385,30.864197530864192,0)" xlink:href="#aE"/><use transform="matrix(0.061728395061728385,0,0,0.061728395061728385,43.20987654320987,0)" xlink:href="#bm"/><use transform="matrix(0.061728395061728385,0,0,0.061728395061728385,55.55555555555555,0)" xlink:href="#be"/><use transform="matrix(0.061728395061728385,0,0,0.061728395061728385,67.90123456790123,0)" xlink:href="#aB"/><use transform="matrix(0.061728395061728385,0,0,0.061728395061728385,72.77777777777777,0)" xlink:href="#aA"/></g><path d="M33-154v-36h34v36H33zM33 0v-36h34V0H33" id="bu"/><g id="ao"><use transform="matrix(0.06172839506172839,0,0,0.06172839506172839,0,0)" xlink:href="#bt"/><use transform="matrix(0.06172839506172839,0,0,0.06172839506172839,12.345679012345679,0)" xlink:href="#aE"/><use transform="matrix(0.06172839506172839,0,0,0.06172839506172839,24.691358024691358,0)" xlink:href="#aA"/><use transform="matrix(0.06172839506172839,0,0,0.06172839506172839,30.864197530864196,0)" xlink:href="#aE"/><use transform="matrix(0.06172839506172839,0,0,0.06172839506172839,43.20987654320987,0)" xlink:href="#bc"/><use transform="matrix(0.06172839506172839,0,0,0.06172839506172839,55.55555555555555,0)" xlink:href="#bu"/><use transform="matrix(0.06172839506172839,0,0,0.06172839506172839,61.72839506172839,0)" xlink:href="#bd"/></g><path d="M143 0L79-87 56-68V0H24v-261h32v163l83-92h37l-77 82L181 0h-38" id="bv"/><g id="ap"><use transform="matrix(0.061728395061728385,0,0,0.061728395061728385,0,0)" xlink:href="#bh"/><use transform="matrix(0.061728395061728385,0,0,0.061728395061728385,14.814814814814813,0)" xlink:href="#aG"/><use transform="matrix(0.061728395061728385,0,0,0.061728395061728385,27.16049382716049,0)" xlink:href="#aG"/><use transform="matrix(0.061728395061728385,0,0,0.061728395061728385,39.50617283950616,0)" xlink:href="#bv"/><use transform="matrix(0.061728395061728385,0,0,0.061728395061728385,50.61728395061727,0)" xlink:href="#be"/></g><g id="aq"><use transform="matrix(0.061728395061728385,0,0,0.061728395061728385,0,0)" xlink:href="#aK"/><use transform="matrix(0.061728395061728385,0,0,0.061728395061728385,15.987654320987652,0)" xlink:href="#aI"/><use transform="matrix(0.061728395061728385,0,0,0.061728395061728385,28.33333333333333,0)" xlink:href="#bi"/><use transform="matrix(0.061728395061728385,0,0,0.061728395061728385,43.14814814814814,0)" xlink:href="#be"/></g><path d="M179-190L93 31C79 59 56 82 12 73V49c39 6 53-20 64-50L1-190h34L92-34l54-156h33" id="bw"/><g id="ar"><use transform="matrix(0.061728395061728385,0,0,0.061728395061728385,0,0)" xlink:href="#aU"/><use transform="matrix(0.061728395061728385,0,0,0.061728395061728385,14.814814814814813,0)" xlink:href="#aX"/><use transform="matrix(0.061728395061728385,0,0,0.061728395061728385,30.802469135802465,0)" xlink:href="#aO"/><use transform="matrix(0.061728395061728385,0,0,0.061728395061728385,46.79012345679011,0)" xlink:href="#bc"/><use transform="matrix(0.061728395061728385,0,0,0.061728395061728385,59.13580246913579,0)" xlink:href="#bn"/><use transform="matrix(0.061728395061728385,0,0,0.061728395061728385,71.48148148148147,0)" xlink:href="#bi"/><use transform="matrix(0.061728395061728385,0,0,0.061728395061728385,86.29629629629628,0)" xlink:href="#aG"/><use transform="matrix(0.061728395061728385,0,0,0.061728395061728385,98.64197530864195,0)" xlink:href="#bw"/></g><path d="M47-170H22l-4-78h33" id="bx"/><g id="as"><use transform="matrix(0.06172839506172839,0,0,0.06172839506172839,0,0)" xlink:href="#bc"/><use transform="matrix(0.06172839506172839,0,0,0.06172839506172839,12.345679012345679,0)" xlink:href="#bx"/><use transform="matrix(0.06172839506172839,0,0,0.06172839506172839,16.54320987654321,0)" xlink:href="#be"/><use transform="matrix(0.06172839506172839,0,0,0.06172839506172839,28.888888888888886,0)" xlink:href="#bc"/></g><g id="at"><use transform="matrix(0.061728395061728385,0,0,0.061728395061728385,0,0)" xlink:href="#bt"/><use transform="matrix(0.061728395061728385,0,0,0.061728395061728385,12.345679012345677,0)" xlink:href="#aE"/><use transform="matrix(0.061728395061728385,0,0,0.061728395061728385,24.691358024691354,0)" xlink:href="#aA"/><use transform="matrix(0.061728395061728385,0,0,0.061728395061728385,30.864197530864192,0)" xlink:href="#aE"/></g><g id="au"><use transform="matrix(0.061728395061728385,0,0,0.061728395061728385,0,0)" xlink:href="#bh"/><use transform="matrix(0.061728395061728385,0,0,0.061728395061728385,14.814814814814813,0)" xlink:href="#aG"/><use transform="matrix(0.061728395061728385,0,0,0.061728395061728385,27.16049382716049,0)" xlink:href="#aG"/><use transform="matrix(0.061728395061728385,0,0,0.061728395061728385,39.50617283950616,0)" xlink:href="#bv"/><use transform="matrix(0.061728395061728385,0,0,0.061728395061728385,50.61728395061727,0)" xlink:href="#bn"/><use transform="matrix(0.061728395061728385,0,0,0.061728395061728385,62.96296296296295,0)" xlink:href="#bv"/><use transform="matrix(0.061728395061728385,0,0,0.061728395061728385,74.07407407407406,0)" xlink:href="#aG"/><use transform="matrix(0.061728395061728385,0,0,0.061728395061728385,86.41975308641975,0)" xlink:href="#bw"/></g><path fill="#ced4db" d="M233-177c-1 41-23 64-60 70L243 0h-38l-65-103H63V0H30v-248c88 3 205-21 203 71zM63-129c60-2 137 13 137-47 0-61-80-42-137-45v92" id="by"/><path fill="#ced4db" d="M141-36C126-15 110 5 73 4 37 3 15-17 15-53c-1-64 63-63 125-63 3-35-9-54-41-54-24 1-41 7-42 31l-33-3c5-37 33-52 76-52 45 0 72 20 72 64v82c-1 20 7 32 28 27v20c-31 9-61-2-59-35zM48-53c0 20 12 33 32 33 41-3 63-29 60-74-43 2-92-5-92 41" id="bz"/><path fill="#ced4db" d="M206 0h-36l-40-164L89 0H53L-1-190h32L70-26l43-164h34l41 164 42-164h31" id="bA"/><path fill="#ced4db" d="M30-248c118-7 216 8 213 122C240-48 200 0 122 0H30v-248zM63-27c89 8 146-16 146-99s-60-101-146-95v194" id="bB"/><path fill="#ced4db" d="M59-47c-2 24 18 29 38 22v24C64 9 27 4 27-40v-127H5v-23h24l9-43h21v43h35v23H59v120" id="bC"/><g id="av"><use transform="matrix(0.04938271604938272,0,0,0.04938271604938272,0,0)" xlink:href="#by"/><use transform="matrix(0.04938271604938272,0,0,0.04938271604938272,12.790123456790125,0)" xlink:href="#bz"/><use transform="matrix(0.04938271604938272,0,0,0.04938271604938272,22.66666666666667,0)" xlink:href="#bA"/><use transform="matrix(0.04938271604938272,0,0,0.04938271604938272,35.4567901234568,0)" xlink:href="#bB"/><use transform="matrix(0.04938271604938272,0,0,0.04938271604938272,48.246913580246925,0)" xlink:href="#bz"/><use transform="matrix(0.04938271604938272,0,0,0.04938271604938272,58.12345679012347,0)" xlink:href="#bC"/><use transform="matrix(0.04938271604938272,0,0,0.04938271604938272,63.06172839506174,0)" xlink:href="#bz"/></g><path fill="#ced4db" d="M27 0v-27h64v-190l-56 39v-29l58-41h29v221h61V0H27" id="bD"/><path fill="#ced4db" d="M33-154v-36h34v36H33zM33 0v-36h34V0H33" id="bE"/><path fill="#ced4db" d="M101-251c68 0 85 55 85 127S166 4 100 4C33 4 14-52 14-124c0-73 17-127 87-127zm-1 229c47 0 54-49 54-102s-4-102-53-102c-51 0-55 48-55 102 0 53 5 102 54 102" id="bF"/><g id="aw"><use transform="matrix(0.04938271604938272,0,0,0.04938271604938272,0,0)" xlink:href="#bD"/><use transform="matrix(0.04938271604938272,0,0,0.04938271604938272,9.876543209876544,0)" xlink:href="#bE"/><use transform="matrix(0.04938271604938272,0,0,0.04938271604938272,14.814814814814817,0)" xlink:href="#bF"/></g></defs></g></svg>